SplineFontDB: 3.2
FontName: KoreeneSans-Bold
FullName: Koreene Sans Bold
FamilyName: Koreene Sans
Weight: Bold
Copyright: (C) Copyright HanYang I&C Co.,Ltd. All rights reserved.
Version: 2.52
ItalicAngle: 0
UnderlinePosition: -244
UnderlineWidth: 90
Ascent: 1638
Descent: 410
InvalidEm: 0
sfntRevision: 0x00020147
LayerCount: 2
Layer: 0 1 "Back" 1
Layer: 1 1 "Fore" 0
XUID: [1021 531 -1996577725 14419638]
StyleMap: 0x0020
FSType: 0
OS2Version: 4
OS2_WeightWidthSlopeOnly: 0
OS2_UseTypoMetrics: 1
CreationTime: 1068260456
ModificationTime: 1706984706
PfmFamily: 81
TTFWeight: 700
TTFWidth: 5
LineGap: 512
VLineGap: 0
Panose: 0 0 0 0 0 0 0 0 0 0
OS2TypoAscent: 1940
OS2TypoAOffset: 0
OS2TypoDescent: -470
OS2TypoDOffset: 0
OS2TypoLinegap: 512
OS2WinAscent: 2196
OS2WinAOffset: 0
OS2WinDescent: 726
OS2WinDOffset: 0
HheadAscent: 1940
HheadAOffset: 0
HheadDescent: -470
HheadDOffset: 0
OS2SubXSize: 410
OS2SubYSize: 410
OS2SubXOff: 0
OS2SubYOff: 574
OS2SupXSize: 410
OS2SupYSize: 410
OS2SupXOff: 0
OS2SupYOff: 1926
OS2StrikeYSize: 204
OS2StrikeYPos: 1024
OS2CapHeight: 1470
OS2XHeight: 1072
OS2Vendor: 'HY  '
OS2CodePages: 2000019f.00000000
OS2UnicodeRanges: e10002ff.4000001b.00000000.00000000
Lookup: 1 0 0 "'aalt' Access All Alternates lookup 0" { "'aalt' Access All Alternates lookup 0 subtable"  } ['aalt' ('DFLT' <'dflt' > 'cyrl' <'dflt' > 'grek' <'dflt' > 'hang' <'dflt' > 'jamo' <'dflt' > 'latn' <'dflt' > ) ]
Lookup: 3 0 0 "'aalt' Access All Alternates lookup 1" { "'aalt' Access All Alternates lookup 1 subtable"  } ['aalt' ('DFLT' <'dflt' > 'cyrl' <'dflt' > 'grek' <'dflt' > 'hang' <'dflt' > 'jamo' <'dflt' > 'latn' <'dflt' > ) ]
Lookup: 1 0 0 "'locl' Localized Forms in Latin lookup 2" { "'locl' Localized Forms in Latin lookup 2 subtable"  } ['locl' ('latn' <'MOL ' > ) ]
Lookup: 1 0 0 "'locl' Localized Forms in Latin lookup 3" { "'locl' Localized Forms in Latin lookup 3 subtable"  } ['locl' ('latn' <'ROM ' > ) ]

StartChar: exclam
Encoding: 33 33 4
Width: 620
GlyphClass: 2
Flags: W
LayerCount: 2
Fore
SplineSet
154 -10 m 1,0,-1
 154 274 l 1,1,-1
 468 274 l 1,2,-1
 468 -10 l 1,3,-1
 154 -10 l 1,0,-1
426 416 m 1,4,-1
 196 416 l 1,5,-1
 178 1480 l 1,6,-1
 440 1480 l 1,7,-1
 426 416 l 1,4,-1
EndSplineSet
EndChar

StartChar: quotedbl
Encoding: 34 34 5
Width: 1108
GlyphClass: 2
Flags: W
LayerCount: 2
Fore
SplineSet
580 1034 m 1,0,-1
 760 1634 l 1,1,-1
 1030 1634 l 1,2,-1
 772 1034 l 1,3,-1
 580 1034 l 1,0,-1
134 1034 m 1,4,-1
 312 1634 l 1,5,-1
 584 1634 l 1,6,-1
 324 1034 l 1,7,-1
 134 1034 l 1,4,-1
EndSplineSet
EndChar

StartChar: numbersign
Encoding: 35 35 6
Width: 1466
GlyphClass: 2
Flags: W
LayerCount: 2
Fore
SplineSet
100 368 m 1,0,-1
 100 550 l 1,1,-1
 344 550 l 1,2,-1
 388 882 l 1,3,-1
 162 882 l 1,4,-1
 162 1064 l 1,5,-1
 410 1064 l 1,6,-1
 460 1430 l 1,7,-1
 676 1430 l 1,8,-1
 628 1064 l 1,9,-1
 932 1064 l 1,10,-1
 982 1430 l 1,11,-1
 1198 1430 l 1,12,-1
 1150 1064 l 1,13,-1
 1370 1064 l 1,14,-1
 1370 882 l 1,15,-1
 1126 882 l 1,16,-1
 1084 550 l 1,17,-1
 1308 550 l 1,18,-1
 1308 368 l 1,19,-1
 1060 368 l 1,20,-1
 1012 4 l 1,21,-1
 794 4 l 1,22,-1
 842 368 l 1,23,-1
 538 368 l 1,24,-1
 488 4 l 1,25,-1
 272 4 l 1,26,-1
 320 368 l 1,27,-1
 100 368 l 1,0,-1
562 550 m 1,28,-1
 866 550 l 1,29,-1
 910 882 l 1,30,-1
 604 882 l 1,31,-1
 562 550 l 1,28,-1
EndSplineSet
EndChar

StartChar: dollar
Encoding: 36 36 7
Width: 1166
GlyphClass: 2
Flags: W
LayerCount: 2
Fore
SplineSet
90 306 m 1,0,-1
 268 392 l 1,1,2
 324 302 324 302 410 252 c 128,-1,3
 496 202 496 202 596 202 c 0,4,5
 692 202 692 202 757 254 c 128,-1,6
 822 306 822 306 822 404 c 0,7,8
 822 454 822 454 803 490 c 128,-1,9
 784 526 784 526 739 556 c 128,-1,10
 694 586 694 586 651 605 c 128,-1,11
 608 624 608 624 525 660 c 128,-1,12
 442 696 442 696 384 722 c 0,13,14
 136 844 136 844 136 1084 c 0,15,16
 136 1206 136 1206 222 1317 c 128,-1,17
 308 1428 308 1428 478 1456 c 1,18,-1
 478 1618 l 1,19,-1
 700 1618 l 1,20,-1
 700 1454 l 1,21,22
 808 1442 808 1442 906 1363 c 128,-1,23
 1004 1284 1004 1284 1042 1194 c 1,24,-1
 860 1108 l 1,25,26
 754 1266 754 1266 590 1266 c 0,27,28
 494 1266 494 1266 436 1214 c 128,-1,29
 378 1162 378 1162 378 1082 c 0,30,31
 378 1050 378 1050 385 1024 c 128,-1,32
 392 998 392 998 413 977 c 128,-1,33
 434 956 434 956 453 940 c 128,-1,34
 472 924 472 924 513 904 c 128,-1,35
 554 884 554 884 582 872 c 128,-1,36
 610 860 610 860 668 836 c 128,-1,37
 726 812 726 812 764 798 c 0,38,39
 1066 670 1066 670 1066 424 c 0,40,41
 1066 256 1066 256 965 148 c 128,-1,42
 864 40 864 40 700 10 c 1,43,-1
 700 -144 l 1,44,-1
 478 -144 l 1,45,-1
 478 14 l 1,46,47
 364 24 364 24 253 109 c 128,-1,48
 142 194 142 194 90 306 c 1,0,-1
EndSplineSet
EndChar

StartChar: percent
Encoding: 37 37 8
Width: 2002
GlyphClass: 2
Flags: W
LayerCount: 2
Fore
SplineSet
1300 338 m 256,0,1
 1300 248 1300 248 1353 196 c 128,-1,2
 1406 144 1406 144 1480 144 c 256,3,4
 1554 144 1554 144 1605 197 c 128,-1,5
 1656 250 1656 250 1656 338 c 0,6,7
 1656 428 1656 428 1606 480 c 128,-1,8
 1556 532 1556 532 1480 532 c 256,9,10
 1404 532 1404 532 1352 480 c 128,-1,11
 1300 428 1300 428 1300 338 c 256,0,1
348 1132 m 0,12,13
 348 1040 348 1040 400 989 c 128,-1,14
 452 938 452 938 524 938 c 0,15,16
 598 938 598 938 649 991 c 128,-1,17
 700 1044 700 1044 700 1132 c 256,18,19
 700 1220 700 1220 650 1273 c 128,-1,20
 600 1326 600 1326 524 1326 c 256,21,22
 448 1326 448 1326 398 1273 c 128,-1,23
 348 1220 348 1220 348 1132 c 0,12,13
362 -10 m 1,24,-1
 1398 1480 l 1,25,-1
 1642 1480 l 1,26,-1
 604 -10 l 1,27,-1
 362 -10 l 1,24,-1
1078 338 m 0,28,29
 1078 498 1078 498 1189 605 c 128,-1,30
 1300 712 1300 712 1480 712 c 0,31,32
 1656 712 1656 712 1767 606 c 128,-1,33
 1878 500 1878 500 1878 338 c 0,34,35
 1878 172 1878 172 1765 69 c 128,-1,36
 1652 -34 1652 -34 1480 -34 c 0,37,38
 1302 -34 1302 -34 1190 71 c 128,-1,39
 1078 176 1078 176 1078 338 c 0,28,29
124 1132 m 0,40,41
 124 1292 124 1292 235 1398 c 128,-1,42
 346 1504 346 1504 524 1504 c 0,43,44
 700 1504 700 1504 812 1399 c 128,-1,45
 924 1294 924 1294 924 1132 c 0,46,47
 924 968 924 968 811 863 c 128,-1,48
 698 758 698 758 524 758 c 0,49,50
 348 758 348 758 236 864 c 128,-1,51
 124 970 124 970 124 1132 c 0,40,41
EndSplineSet
EndChar

StartChar: ampersand
Encoding: 38 38 9
Width: 1352
GlyphClass: 2
Flags: W
LayerCount: 2
Fore
SplineSet
334 392 m 0,0,1
 334 288 334 288 402 228 c 128,-1,2
 470 168 470 168 578 168 c 0,3,4
 716 168 716 168 832 290 c 1,5,-1
 520 698 l 1,6,7
 334 558 334 558 334 392 c 0,0,1
92 388 m 0,8,9
 92 664 92 664 406 866 c 1,10,11
 316 984 316 984 294 1040 c 0,12,13
 276 1090 276 1090 276 1142 c 0,14,15
 276 1290 276 1290 381 1380 c 128,-1,16
 486 1470 486 1470 666 1470 c 0,17,18
 820 1470 820 1470 927 1392 c 128,-1,19
 1034 1314 1034 1314 1084 1196 c 1,20,-1
 906 1120 l 1,21,22
 820 1272 820 1272 686 1272 c 0,23,24
 608 1272 608 1272 563 1234 c 128,-1,25
 518 1196 518 1196 518 1136 c 0,26,27
 518 1104 518 1104 541 1057 c 128,-1,28
 564 1010 564 1010 620 930 c 128,-1,29
 676 850 676 850 726 784 c 128,-1,30
 776 718 776 718 876 590 c 0,31,32
 926 524 926 524 952 490 c 1,33,34
 994 594 994 594 1016 726 c 1,35,-1
 1232 690 l 1,36,37
 1198 474 1198 474 1098 302 c 1,38,-1
 1336 0 l 1,39,-1
 1052 0 l 1,40,-1
 962 116 l 1,41,42
 800 -36 800 -36 574 -36 c 0,43,44
 346 -36 346 -36 219 87 c 128,-1,45
 92 210 92 210 92 388 c 0,8,9
EndSplineSet
EndChar

StartChar: quotesingle
Encoding: 39 39 10
Width: 690
GlyphClass: 2
Flags: W
LayerCount: 2
Fore
SplineSet
166 1034 m 1,0,-1
 344 1634 l 1,1,-1
 616 1634 l 1,2,-1
 356 1034 l 1,3,-1
 166 1034 l 1,0,-1
EndSplineSet
EndChar

StartChar: parenleft
Encoding: 40 40 11
Width: 884
GlyphClass: 2
Flags: W
LayerCount: 2
Fore
SplineSet
250 708 m 0,0,1
 250 1250 250 1250 590 1702 c 1,2,-1
 764 1604 l 1,3,4
 642 1404 642 1404 598 1304 c 0,5,6
 486 1042 486 1042 486 708 c 0,7,8
 486 422 486 422 556 222 c 128,-1,9
 626 22 626 22 764 -190 c 1,10,-1
 590 -290 l 1,11,12
 428 -68 428 -68 339 170 c 128,-1,13
 250 408 250 408 250 708 c 0,0,1
EndSplineSet
Substitution2: "'sups' Superscript lookup 5 subtable" uni207D
Substitution2: "'aalt' Access All Alternates lookup 0 subtable" uni207D
EndChar

StartChar: parenright
Encoding: 41 41 12
Width: 884
GlyphClass: 2
Flags: W
LayerCount: 2
Fore
SplineSet
122 -190 m 1,0,1
 268 30 268 30 334 237 c 128,-1,2
 400 444 400 444 400 706 c 0,3,4
 400 864 400 864 378 997 c 128,-1,5
 356 1130 356 1130 312 1241 c 128,-1,6
 268 1352 268 1352 228 1427 c 128,-1,7
 188 1502 188 1502 122 1604 c 1,8,-1
 296 1702 l 1,9,10
 450 1494 450 1494 543 1257 c 128,-1,11
 636 1020 636 1020 636 706 c 0,12,13
 636 402 636 402 547 165 c 128,-1,14
 458 -72 458 -72 296 -290 c 1,15,-1
 122 -190 l 1,0,1
EndSplineSet
Substitution2: "'sups' Superscript lookup 5 subtable" uni207E
Substitution2: "'aalt' Access All Alternates lookup 0 subtable" uni207E
EndChar

StartChar: asterisk
Encoding: 42 42 13
Width: 1116
GlyphClass: 2
Flags: W
LayerCount: 2
Fore
SplineSet
36 802 m 1,0,-1
 118 996 l 1,1,-1
 460 862 l 1,2,-1
 448 1220 l 1,3,-1
 666 1220 l 1,4,-1
 654 862 l 1,5,-1
 996 996 l 1,6,-1
 1078 802 l 1,7,-1
 698 688 l 1,8,-1
 988 378 l 1,9,-1
 808 244 l 1,10,-1
 558 584 l 1,11,-1
 304 244 l 1,12,-1
 126 378 l 1,13,-1
 416 688 l 1,14,-1
 36 802 l 1,0,-1
EndSplineSet
EndChar

StartChar: plus
Encoding: 43 43 14
Width: 1116
GlyphClass: 2
Flags: W
LayerCount: 2
Fore
SplineSet
54 620 m 1,0,-1
 54 828 l 1,1,-1
 438 828 l 1,2,-1
 438 1220 l 1,3,-1
 672 1220 l 1,4,-1
 672 828 l 1,5,-1
 1062 828 l 1,6,-1
 1062 620 l 1,7,-1
 672 620 l 1,8,-1
 672 216 l 1,9,-1
 438 216 l 1,10,-1
 438 620 l 1,11,-1
 54 620 l 1,0,-1
EndSplineSet
Substitution2: "'sups' Superscript lookup 5 subtable" uni207A
Substitution2: "'aalt' Access All Alternates lookup 0 subtable" uni207A
EndChar

StartChar: comma
Encoding: 44 44 15
Width: 550
GlyphClass: 2
Flags: W
LayerCount: 2
Fore
SplineSet
8 -314 m 1,0,-1
 186 288 l 1,1,-1
 458 288 l 1,2,-1
 200 -314 l 1,3,-1
 8 -314 l 1,0,-1
EndSplineSet
EndChar

StartChar: hyphen
Encoding: 45 45 16
Width: 782
GlyphClass: 2
Flags: W
LayerCount: 2
Fore
SplineSet
68 620 m 1,0,-1
 68 828 l 1,1,-1
 712 828 l 1,2,-1
 712 620 l 1,3,-1
 68 620 l 1,0,-1
EndSplineSet
EndChar

StartChar: period
Encoding: 46 46 17
Width: 550
GlyphClass: 2
Flags: W
LayerCount: 2
Fore
SplineSet
120 0 m 1,0,-1
 120 286 l 1,1,-1
 434 286 l 1,2,-1
 434 0 l 1,3,-1
 120 0 l 1,0,-1
EndSplineSet
EndChar

StartChar: slash
Encoding: 47 47 18
Width: 752
GlyphClass: 2
Flags: W
LayerCount: 2
Fore
SplineSet
-30 -108 m 1,0,-1
 538 1564 l 1,1,-1
 784 1564 l 1,2,-1
 218 -108 l 1,3,-1
 -30 -108 l 1,0,-1
EndSplineSet
EndChar

StartChar: zero
Encoding: 48 48 19
Width: 1100
GlyphClass: 2
Flags: W
LayerCount: 2
Fore
SplineSet
320 734 m 0,0,1
 320 168 320 168 552 168 c 0,2,3
 616 168 616 168 662 215 c 128,-1,4
 708 262 708 262 733 345 c 128,-1,5
 758 428 758 428 769 523 c 128,-1,6
 780 618 780 618 780 734 c 0,7,8
 780 852 780 852 769 949 c 128,-1,9
 758 1046 758 1046 732 1128 c 128,-1,10
 706 1210 706 1210 659 1256 c 128,-1,11
 612 1302 612 1302 550 1302 c 0,12,13
 320 1302 320 1302 320 734 c 0,0,1
66 734 m 0,14,15
 66 952 66 952 110 1110 c 128,-1,16
 154 1268 154 1268 228 1349 c 128,-1,17
 302 1430 302 1430 381 1467 c 128,-1,18
 460 1504 460 1504 550 1504 c 0,19,20
 782 1504 782 1504 907 1301 c 128,-1,21
 1032 1098 1032 1098 1032 734 c 0,22,23
 1032 380 1032 380 909 172 c 128,-1,24
 786 -36 786 -36 552 -36 c 0,25,26
 466 -36 466 -36 387 0 c 128,-1,27
 308 36 308 36 233 116 c 128,-1,28
 158 196 158 196 112 355 c 128,-1,29
 66 514 66 514 66 734 c 0,14,15
EndSplineSet
EndChar

StartChar: one
Encoding: 49 49 20
Width: 1100
GlyphClass: 2
Flags: W
LayerCount: 2
Fore
SplineSet
152 1036 m 1,0,-1
 152 1222 l 1,1,-1
 218 1222 l 2,2,3
 522 1222 522 1222 522 1446 c 2,4,-1
 522 1470 l 1,5,-1
 734 1470 l 1,6,-1
 734 0 l 1,7,-1
 482 0 l 1,8,-1
 482 1036 l 1,9,-1
 152 1036 l 1,0,-1
EndSplineSet
Substitution2: "'subs' Subscript lookup 6 subtable" uni2081
Substitution2: "'sups' Superscript lookup 5 subtable" onesuperior
Substitution2: "'sinf' Scientific Inferiors lookup 4 subtable" uni2081
AlternateSubs2: "'aalt' Access All Alternates lookup 1 subtable" uni2081 onesuperior
EndChar

StartChar: two
Encoding: 50 50 21
Width: 1100
GlyphClass: 2
Flags: W
LayerCount: 2
Fore
SplineSet
76 1108 m 1,0,1
 118 1292 118 1292 235 1398 c 128,-1,2
 352 1504 352 1504 542 1504 c 0,3,4
 740 1504 740 1504 867 1389 c 128,-1,5
 994 1274 994 1274 994 1080 c 0,6,7
 994 954 994 954 936 851 c 128,-1,8
 878 748 878 748 768 644 c 0,9,10
 748 622 748 622 663 539 c 128,-1,11
 578 456 578 456 547 423 c 128,-1,12
 516 390 516 390 467 326 c 128,-1,13
 418 262 418 262 388 200 c 1,14,-1
 990 200 l 1,15,-1
 990 0 l 1,16,-1
 90 0 l 1,17,18
 90 88 90 88 119 176 c 128,-1,19
 148 264 148 264 186 329 c 128,-1,20
 224 394 224 394 296 477 c 128,-1,21
 368 560 368 560 415 606 c 128,-1,22
 462 652 462 652 548 734 c 0,23,24
 568 752 568 752 578 762 c 0,25,26
 740 918 740 918 740 1086 c 0,27,28
 740 1188 740 1188 685 1245 c 128,-1,29
 630 1302 630 1302 538 1302 c 0,30,31
 344 1302 344 1302 284 1046 c 1,32,-1
 76 1108 l 1,0,1
EndSplineSet
Substitution2: "'subs' Subscript lookup 6 subtable" uni2082
Substitution2: "'sups' Superscript lookup 5 subtable" twosuperior
Substitution2: "'sinf' Scientific Inferiors lookup 4 subtable" uni2082
AlternateSubs2: "'aalt' Access All Alternates lookup 1 subtable" uni2082 twosuperior
EndChar

StartChar: three
Encoding: 51 51 22
Width: 1100
GlyphClass: 2
Flags: W
LayerCount: 2
Fore
SplineSet
48 298 m 1,0,-1
 244 370 l 1,1,2
 332 168 332 168 528 168 c 0,3,4
 634 168 634 168 706 234 c 128,-1,5
 778 300 778 300 778 420 c 0,6,7
 778 530 778 530 698 599 c 128,-1,8
 618 668 618 668 496 668 c 0,9,10
 428 668 428 668 362 660 c 1,11,-1
 362 860 l 1,12,13
 410 856 410 856 488 856 c 0,14,15
 586 856 586 856 656 918 c 128,-1,16
 726 980 726 980 726 1088 c 0,17,18
 726 1182 726 1182 667 1242 c 128,-1,19
 608 1302 608 1302 516 1302 c 0,20,21
 356 1302 356 1302 282 1090 c 1,22,-1
 82 1154 l 1,23,24
 120 1308 120 1308 238 1406 c 128,-1,25
 356 1504 356 1504 530 1504 c 0,26,27
 736 1504 736 1504 856 1393 c 128,-1,28
 976 1282 976 1282 976 1112 c 0,29,30
 976 998 976 998 918 909 c 128,-1,31
 860 820 860 820 774 774 c 1,32,33
 876 740 876 740 953 650 c 128,-1,34
 1030 560 1030 560 1030 420 c 0,35,36
 1030 206 1030 206 894 86 c 128,-1,37
 758 -34 758 -34 530 -34 c 0,38,39
 346 -34 346 -34 218 63 c 128,-1,40
 90 160 90 160 48 298 c 1,0,-1
EndSplineSet
Substitution2: "'subs' Subscript lookup 6 subtable" uni2083
Substitution2: "'sups' Superscript lookup 5 subtable" threesuperior
Substitution2: "'sinf' Scientific Inferiors lookup 4 subtable" uni2083
AlternateSubs2: "'aalt' Access All Alternates lookup 1 subtable" uni2083 threesuperior
EndChar

StartChar: four
Encoding: 52 52 23
Width: 1100
GlyphClass: 2
Flags: W
LayerCount: 2
Fore
SplineSet
32 504 m 1,0,-1
 680 1470 l 1,1,-1
 890 1470 l 1,2,-1
 890 508 l 1,3,-1
 1072 508 l 1,4,-1
 1072 306 l 1,5,-1
 890 306 l 1,6,-1
 890 0 l 5,7,-1
 648 0 l 5,8,-1
 648 306 l 1,9,-1
 32 306 l 1,10,-1
 32 504 l 1,0,-1
264 508 m 1,11,-1
 648 508 l 1,12,-1
 648 906 l 2,13,14
 648 1006 648 1006 656 1102 c 1,15,-1
 646 1102 l 1,16,17
 588 996 588 996 546 932 c 2,18,-1
 264 508 l 1,11,-1
EndSplineSet
Substitution2: "'subs' Subscript lookup 6 subtable" uni2084
Substitution2: "'sups' Superscript lookup 5 subtable" uni2074
Substitution2: "'sinf' Scientific Inferiors lookup 4 subtable" uni2084
AlternateSubs2: "'aalt' Access All Alternates lookup 1 subtable" uni2084 uni2074
EndChar

StartChar: five
Encoding: 53 53 24
Width: 1100
GlyphClass: 2
Flags: W
LayerCount: 2
Fore
SplineSet
66 274 m 1,0,-1
 268 346 l 1,1,2
 302 268 302 268 367 218 c 128,-1,3
 432 168 432 168 510 168 c 0,4,5
 628 168 628 168 696 247 c 128,-1,6
 764 326 764 326 764 458 c 0,7,8
 764 586 764 586 691 667 c 128,-1,9
 618 748 618 748 506 748 c 0,10,11
 370 748 370 748 268 616 c 1,12,-1
 112 674 l 1,13,-1
 190 1470 l 1,14,-1
 934 1470 l 1,15,-1
 934 1268 l 1,16,-1
 416 1268 l 1,17,-1
 372 882 l 1,18,19
 462 948 462 948 592 948 c 0,20,21
 780 948 780 948 897 817 c 128,-1,22
 1014 686 1014 686 1014 462 c 0,23,24
 1014 368 1014 368 985 282 c 128,-1,25
 956 196 956 196 900 124 c 128,-1,26
 844 52 844 52 745 9 c 128,-1,27
 646 -34 646 -34 520 -34 c 0,28,29
 350 -34 350 -34 237 51 c 128,-1,30
 124 136 124 136 66 274 c 1,0,-1
EndSplineSet
EndChar

StartChar: six
Encoding: 54 54 25
Width: 1100
GlyphClass: 2
Flags: W
LayerCount: 2
Fore
SplineSet
328 468 m 0,0,1
 328 330 328 330 393 249 c 128,-1,2
 458 168 458 168 560 168 c 256,3,4
 662 168 662 168 725 248 c 128,-1,5
 788 328 788 328 788 468 c 0,6,7
 788 612 788 612 725 692 c 128,-1,8
 662 772 662 772 558 772 c 0,9,10
 458 772 458 772 393 688 c 128,-1,11
 328 604 328 604 328 468 c 0,0,1
74 668 m 0,12,13
 74 836 74 836 105 982 c 128,-1,14
 136 1128 136 1128 197 1247 c 128,-1,15
 258 1366 258 1366 363 1435 c 128,-1,16
 468 1504 468 1504 606 1504 c 0,17,18
 900 1504 900 1504 1028 1200 c 1,19,-1
 838 1134 l 1,20,21
 746 1302 746 1302 608 1302 c 0,22,23
 418 1302 418 1302 348 992 c 0,24,25
 332 918 332 918 322 824 c 1,26,27
 358 886 358 886 429 929 c 128,-1,28
 500 972 500 972 594 972 c 0,29,30
 790 972 790 972 913 830 c 128,-1,31
 1036 688 1036 688 1036 470 c 0,32,33
 1036 250 1036 250 912 108 c 128,-1,34
 788 -34 788 -34 568 -34 c 0,35,36
 338 -34 338 -34 216 122 c 0,37,38
 74 300 74 300 74 668 c 0,12,13
EndSplineSet
EndChar

StartChar: seven
Encoding: 55 55 26
Width: 1100
GlyphClass: 2
Flags: W
LayerCount: 2
Fore
SplineSet
78 1262 m 1,0,-1
 78 1470 l 1,1,-1
 1010 1470 l 1,2,-1
 1010 1304 l 1,3,4
 656 746 656 746 492 0 c 1,5,-1
 240 0 l 1,6,7
 358 622 358 622 726 1262 c 1,8,-1
 78 1262 l 1,0,-1
EndSplineSet
EndChar

StartChar: eight
Encoding: 56 56 27
Width: 1100
GlyphClass: 2
Flags: W
LayerCount: 2
Fore
SplineSet
354 1088 m 0,0,1
 354 990 354 990 409 931 c 128,-1,2
 464 872 464 872 550 872 c 256,3,4
 636 872 636 872 689 932 c 128,-1,5
 742 992 742 992 742 1088 c 0,6,7
 742 1178 742 1178 689 1240 c 128,-1,8
 636 1302 636 1302 550 1302 c 0,9,10
 462 1302 462 1302 408 1240 c 128,-1,11
 354 1178 354 1178 354 1088 c 0,0,1
58 404 m 0,12,13
 58 550 58 550 135 642 c 128,-1,14
 212 734 212 734 314 774 c 1,15,16
 102 884 102 884 102 1098 c 0,17,18
 102 1274 102 1274 230 1389 c 128,-1,19
 358 1504 358 1504 550 1504 c 0,20,21
 740 1504 740 1504 868 1389 c 128,-1,22
 996 1274 996 1274 996 1098 c 0,23,24
 996 882 996 882 784 774 c 1,25,26
 894 730 894 730 969 637 c 128,-1,27
 1044 544 1044 544 1044 404 c 0,28,29
 1044 208 1044 208 905 87 c 128,-1,30
 766 -34 766 -34 550 -34 c 0,31,32
 344 -34 344 -34 201 81 c 128,-1,33
 58 196 58 196 58 404 c 0,12,13
310 416 m 0,34,35
 310 308 310 308 377 238 c 128,-1,36
 444 168 444 168 550 168 c 256,37,38
 656 168 656 168 723 238 c 128,-1,39
 790 308 790 308 790 416 c 0,40,41
 790 520 790 520 723 596 c 128,-1,42
 656 672 656 672 550 672 c 0,43,44
 446 672 446 672 378 597 c 128,-1,45
 310 522 310 522 310 416 c 0,34,35
EndSplineSet
EndChar

StartChar: nine
Encoding: 57 57 28
Width: 1100
GlyphClass: 2
Flags: W
LayerCount: 2
Fore
SplineSet
308 1006 m 0,0,1
 308 872 308 872 372 790 c 128,-1,2
 436 708 436 708 534 708 c 0,3,4
 636 708 636 708 698 791 c 128,-1,5
 760 874 760 874 760 1006 c 0,6,7
 760 1134 760 1134 699 1218 c 128,-1,8
 638 1302 638 1302 534 1302 c 0,9,10
 434 1302 434 1302 371 1219 c 128,-1,11
 308 1136 308 1136 308 1006 c 0,0,1
60 272 m 1,12,-1
 258 336 l 1,13,14
 344 168 344 168 488 168 c 0,15,16
 564 168 564 168 621 210 c 128,-1,17
 678 252 678 252 709 325 c 128,-1,18
 740 398 740 398 755 477 c 128,-1,19
 770 556 770 556 772 646 c 1,20,21
 682 510 682 510 500 510 c 0,22,23
 316 510 316 510 188 644 c 128,-1,24
 60 778 60 778 60 1004 c 0,25,26
 60 1224 60 1224 193 1364 c 128,-1,27
 326 1504 326 1504 532 1504 c 0,28,29
 708 1504 708 1504 825 1392 c 128,-1,30
 942 1280 942 1280 984 1098 c 0,31,32
 1012 978 1012 978 1012 802 c 0,33,34
 1012 404 1012 404 882 185 c 128,-1,35
 752 -34 752 -34 486 -34 c 0,36,37
 332 -34 332 -34 219 59 c 128,-1,38
 106 152 106 152 60 272 c 1,12,-1
EndSplineSet
EndChar

StartChar: colon
Encoding: 58 58 29
Width: 550
GlyphClass: 2
Flags: W
LayerCount: 2
Fore
SplineSet
120 0 m 1,0,-1
 120 290 l 1,1,-1
 434 290 l 1,2,-1
 434 0 l 1,3,-1
 120 0 l 1,0,-1
120 788 m 1,4,-1
 120 1078 l 1,5,-1
 434 1078 l 1,6,-1
 434 788 l 1,7,-1
 120 788 l 1,4,-1
EndSplineSet
EndChar

StartChar: semicolon
Encoding: 59 59 30
Width: 550
GlyphClass: 2
Flags: W
LayerCount: 2
Fore
SplineSet
8 -312 m 1,0,-1
 186 290 l 1,1,-1
 458 290 l 1,2,-1
 200 -312 l 1,3,-1
 8 -312 l 1,0,-1
130 788 m 1,4,-1
 130 1078 l 1,5,-1
 444 1078 l 1,6,-1
 444 788 l 1,7,-1
 130 788 l 1,4,-1
EndSplineSet
EndChar

StartChar: less
Encoding: 60 60 31
Width: 1116
GlyphClass: 2
Flags: W
LayerCount: 2
Fore
SplineSet
80 604 m 1,0,-1
 80 822 l 1,1,-1
 892 1430 l 1,2,-1
 1020 1250 l 1,3,-1
 312 714 l 1,4,-1
 1020 174 l 1,5,-1
 892 -4 l 1,6,-1
 80 604 l 1,0,-1
EndSplineSet
EndChar

StartChar: equal
Encoding: 61 61 32
Width: 1116
GlyphClass: 2
Flags: W
LayerCount: 2
Fore
SplineSet
96 416 m 1,0,-1
 96 624 l 1,1,-1
 1018 624 l 1,2,-1
 1018 416 l 1,3,-1
 96 416 l 1,0,-1
96 826 m 1,4,-1
 96 1036 l 1,5,-1
 1018 1036 l 1,6,-1
 1018 826 l 1,7,-1
 96 826 l 1,4,-1
EndSplineSet
Substitution2: "'sups' Superscript lookup 5 subtable" uni207C
Substitution2: "'aalt' Access All Alternates lookup 0 subtable" uni207C
EndChar

StartChar: greater
Encoding: 62 62 33
Width: 1116
GlyphClass: 2
Flags: W
LayerCount: 2
Fore
SplineSet
222 -4 m 1,0,-1
 94 174 l 1,1,-1
 800 714 l 1,2,-1
 94 1250 l 1,3,-1
 222 1430 l 1,4,-1
 1036 822 l 1,5,-1
 1036 604 l 1,6,-1
 222 -4 l 1,0,-1
EndSplineSet
EndChar

StartChar: question
Encoding: 63 63 34
Width: 1142
GlyphClass: 2
Flags: W
LayerCount: 2
Fore
SplineSet
118 1154 m 1,0,1
 162 1306 162 1306 283 1408 c 128,-1,2
 404 1510 404 1510 580 1510 c 0,3,4
 774 1510 774 1510 896 1396 c 128,-1,5
 1018 1282 1018 1282 1018 1094 c 0,6,7
 1018 1006 1018 1006 984 935 c 128,-1,8
 950 864 950 864 901 817 c 128,-1,9
 852 770 852 770 802 724 c 128,-1,10
 752 678 752 678 718 615 c 128,-1,11
 684 552 684 552 684 476 c 2,12,-1
 684 410 l 1,13,-1
 438 410 l 1,14,-1
 438 492 l 2,15,16
 438 570 438 570 462 636 c 128,-1,17
 486 702 486 702 524 745 c 128,-1,18
 562 788 562 788 603 832 c 128,-1,19
 644 876 644 876 682 912 c 128,-1,20
 720 948 720 948 744 998 c 128,-1,21
 768 1048 768 1048 768 1106 c 0,22,23
 768 1194 768 1194 719 1248 c 128,-1,24
 670 1302 670 1302 584 1302 c 0,25,26
 420 1302 420 1302 336 1082 c 1,27,-1
 118 1154 l 1,0,1
404 -10 m 1,28,-1
 404 274 l 1,29,-1
 718 274 l 1,30,-1
 718 -10 l 1,31,-1
 404 -10 l 1,28,-1
EndSplineSet
EndChar

StartChar: at
Encoding: 64 64 35
Width: 1868
GlyphClass: 2
Flags: W
LayerCount: 2
Fore
SplineSet
96 692 m 0,0,1
 96 1064 96 1064 342 1302 c 128,-1,2
 588 1540 588 1540 972 1540 c 0,3,4
 1324 1540 1324 1540 1548 1328 c 128,-1,5
 1772 1116 1772 1116 1772 798 c 0,6,7
 1772 644 1772 644 1732 529 c 128,-1,8
 1692 414 1692 414 1627 351 c 128,-1,9
 1562 288 1562 288 1491 257 c 128,-1,10
 1420 226 1420 226 1346 226 c 0,11,12
 1266 226 1266 226 1204 275 c 128,-1,13
 1142 324 1142 324 1126 398 c 1,14,-1
 1124 398 l 1,15,16
 1098 332 1098 332 1023 280 c 128,-1,17
 948 228 948 228 854 228 c 0,18,19
 710 228 710 228 611 338 c 128,-1,20
 512 448 512 448 512 628 c 0,21,22
 512 868 512 868 635 1005 c 128,-1,23
 758 1142 758 1142 930 1142 c 0,24,25
 1056 1142 1056 1142 1130 1046 c 1,26,-1
 1136 1128 l 1,27,-1
 1316 1128 l 1,28,-1
 1284 540 l 2,29,30
 1284 534 1284 534 1284 530 c 0,31,32
 1284 472 1284 472 1305 439 c 128,-1,33
 1326 406 1326 406 1360 406 c 0,34,35
 1442 406 1442 406 1503 508 c 128,-1,36
 1564 610 1564 610 1564 784 c 0,37,38
 1564 1042 1564 1042 1403 1204 c 128,-1,39
 1242 1366 1242 1366 972 1366 c 0,40,41
 680 1366 680 1366 493 1175 c 128,-1,42
 306 984 306 984 306 692 c 0,43,44
 306 380 306 380 487 199 c 128,-1,45
 668 18 668 18 954 18 c 0,46,47
 1170 18 1170 18 1368 76 c 1,48,-1
 1404 -86 l 1,49,50
 1212 -154 1212 -154 954 -154 c 0,51,52
 564 -154 564 -154 330 81 c 128,-1,53
 96 316 96 316 96 692 c 0,0,1
734 632 m 0,54,55
 734 546 734 546 775 483 c 128,-1,56
 816 420 816 420 884 420 c 0,57,58
 964 420 964 420 1028 508 c 128,-1,59
 1092 596 1092 596 1092 798 c 0,60,61
 1092 872 1092 872 1056 919 c 128,-1,62
 1020 966 1020 966 948 966 c 0,63,64
 868 966 868 966 801 873 c 128,-1,65
 734 780 734 780 734 632 c 0,54,55
EndSplineSet
EndChar

StartChar: A
Encoding: 65 65 36
Width: 1316
GlyphClass: 2
Flags: W
LayerCount: 2
Fore
SplineSet
438 562 m 1,0,-1
 878 562 l 1,1,-1
 752 942 l 2,2,3
 740 984 740 984 724 1034 c 128,-1,4
 708 1084 708 1084 690 1144 c 128,-1,5
 672 1204 672 1204 664 1234 c 1,6,-1
 652 1234 l 1,7,8
 646 1216 646 1216 564 942 c 1,9,-1
 438 562 l 1,0,-1
-8 0 m 1,10,-1
 524 1470 l 1,11,-1
 794 1470 l 1,12,-1
 1324 0 l 1,13,-1
 1064 0 l 1,14,-1
 942 364 l 1,15,-1
 374 364 l 1,16,-1
 252 0 l 1,17,-1
 -8 0 l 1,10,-1
EndSplineSet
Substitution2: "Single Substitution lookup 12 subtable" ordfeminine
EndChar

StartChar: B
Encoding: 66 66 37
Width: 1326
GlyphClass: 2
Flags: W
LayerCount: 2
Fore
SplineSet
166 0 m 1,0,-1
 166 1470 l 1,1,-1
 722 1470 l 2,2,3
 958 1470 958 1470 1075 1366 c 128,-1,4
 1192 1262 1192 1262 1192 1082 c 0,5,6
 1192 974 1192 974 1141 897 c 128,-1,7
 1090 820 1090 820 1010 776 c 1,8,9
 1102 744 1102 744 1173 652 c 128,-1,10
 1244 560 1244 560 1244 428 c 0,11,12
 1244 244 1244 244 1126 122 c 128,-1,13
 1008 0 1008 0 796 0 c 2,14,-1
 166 0 l 1,0,-1
410 208 m 1,15,-1
 752 208 l 2,16,17
 852 208 852 208 921 266 c 128,-1,18
 990 324 990 324 990 428 c 0,19,20
 990 526 990 526 926 589 c 128,-1,21
 862 652 862 652 748 652 c 2,22,-1
 410 652 l 1,23,-1
 410 208 l 1,15,-1
410 858 m 1,24,-1
 698 858 l 2,25,26
 804 858 804 858 871 909 c 128,-1,27
 938 960 938 960 938 1064 c 0,28,29
 938 1154 938 1154 882 1207 c 128,-1,30
 826 1260 826 1260 706 1260 c 2,31,-1
 410 1260 l 1,32,-1
 410 858 l 1,24,-1
EndSplineSet
EndChar

StartChar: C
Encoding: 67 67 38
Width: 1326
GlyphClass: 2
Flags: W
LayerCount: 2
Fore
SplineSet
78 736 m 0,0,1
 78 1090 78 1090 260 1297 c 128,-1,2
 442 1504 442 1504 730 1504 c 0,3,4
 916 1504 916 1504 1049 1402 c 128,-1,5
 1182 1300 1182 1300 1246 1148 c 1,6,-1
 1036 1080 l 1,7,8
 918 1294 918 1294 726 1294 c 0,9,10
 544 1294 544 1294 437 1142 c 128,-1,11
 330 990 330 990 330 736 c 0,12,13
 330 478 330 478 438 327 c 128,-1,14
 546 176 546 176 726 176 c 0,15,16
 844 176 844 176 934 247 c 128,-1,17
 1024 318 1024 318 1064 420 c 1,18,-1
 1284 352 l 1,19,20
 1256 284 1256 284 1212 222 c 128,-1,21
 1168 160 1168 160 1102 100 c 128,-1,22
 1036 40 1036 40 940 3 c 128,-1,23
 844 -34 844 -34 730 -34 c 0,24,25
 448 -34 448 -34 263 172 c 128,-1,26
 78 378 78 378 78 736 c 0,0,1
EndSplineSet
EndChar

StartChar: D
Encoding: 68 68 39
Width: 1370
GlyphClass: 2
Flags: W
LayerCount: 2
Fore
SplineSet
166 0 m 1,0,-1
 166 1470 l 1,1,-1
 602 1470 l 2,2,3
 934 1470 934 1470 1115 1280 c 128,-1,4
 1296 1090 1296 1090 1296 736 c 0,5,6
 1296 616 1296 616 1273 511 c 128,-1,7
 1250 406 1250 406 1199 311 c 128,-1,8
 1148 216 1148 216 1070 148 c 128,-1,9
 992 80 992 80 872 40 c 128,-1,10
 752 0 752 0 600 0 c 2,11,-1
 166 0 l 1,0,-1
410 206 m 1,12,-1
 572 206 l 2,13,14
 1040 206 1040 206 1040 736 c 0,15,16
 1040 1018 1040 1018 918 1140 c 128,-1,17
 796 1262 796 1262 576 1262 c 2,18,-1
 410 1262 l 1,19,-1
 410 206 l 1,12,-1
EndSplineSet
EndChar

StartChar: E
Encoding: 69 69 40
Width: 1206
GlyphClass: 2
Flags: W
LayerCount: 2
Fore
SplineSet
166 0 m 1,0,-1
 166 1470 l 1,1,-1
 1130 1470 l 1,2,-1
 1130 1260 l 1,3,-1
 410 1260 l 1,4,-1
 410 862 l 1,5,-1
 1060 862 l 1,6,-1
 1060 656 l 1,7,-1
 410 656 l 1,8,-1
 410 208 l 1,9,-1
 1148 208 l 1,10,-1
 1148 0 l 1,11,-1
 166 0 l 1,0,-1
EndSplineSet
EndChar

StartChar: F
Encoding: 70 70 41
Width: 1128
GlyphClass: 2
Flags: W
LayerCount: 2
Fore
SplineSet
166 0 m 1,0,-1
 166 1470 l 1,1,-1
 1102 1470 l 1,2,-1
 1102 1260 l 1,3,-1
 410 1260 l 1,4,-1
 410 840 l 1,5,-1
 1030 840 l 1,6,-1
 1030 634 l 1,7,-1
 410 634 l 1,8,-1
 410 0 l 1,9,-1
 166 0 l 1,0,-1
EndSplineSet
EndChar

StartChar: G
Encoding: 71 71 42
Width: 1418
GlyphClass: 2
Flags: W
LayerCount: 2
Fore
SplineSet
78 736 m 0,0,1
 78 1072 78 1072 258 1288 c 128,-1,2
 438 1504 438 1504 742 1504 c 0,3,4
 854 1504 854 1504 950 1467 c 128,-1,5
 1046 1430 1046 1430 1109 1371 c 128,-1,6
 1172 1312 1172 1312 1210 1259 c 128,-1,7
 1248 1206 1248 1206 1274 1152 c 1,8,-1
 1064 1084 l 1,9,10
 1024 1142 1024 1142 991 1181 c 128,-1,11
 958 1220 958 1220 892 1257 c 128,-1,12
 826 1294 826 1294 744 1294 c 0,13,14
 550 1294 550 1294 440 1141 c 128,-1,15
 330 988 330 988 330 736 c 0,16,17
 330 478 330 478 442 327 c 128,-1,18
 554 176 554 176 732 176 c 0,19,20
 886 176 886 176 974 265 c 128,-1,21
 1062 354 1062 354 1072 492 c 0,22,23
 1078 576 1078 576 1078 614 c 1,24,-1
 718 614 l 1,25,-1
 718 822 l 1,26,-1
 1316 822 l 1,27,-1
 1316 0 l 1,28,-1
 1146 0 l 1,29,-1
 1124 150 l 1,30,31
 1004 -34 1004 -34 724 -34 c 0,32,33
 446 -34 446 -34 262 175 c 128,-1,34
 78 384 78 384 78 736 c 0,0,1
EndSplineSet
EndChar

StartChar: H
Encoding: 72 72 43
Width: 1410
GlyphClass: 2
Flags: W
LayerCount: 2
Fore
SplineSet
166 0 m 1,0,-1
 166 1470 l 1,1,-1
 408 1470 l 1,2,-1
 408 858 l 1,3,-1
 1004 858 l 1,4,-1
 1004 1470 l 1,5,-1
 1246 1470 l 1,6,-1
 1246 0 l 1,7,-1
 1004 0 l 1,8,-1
 1004 652 l 1,9,-1
 408 652 l 1,10,-1
 408 0 l 1,11,-1
 166 0 l 1,0,-1
EndSplineSet
EndChar

StartChar: I
Encoding: 73 73 44
Width: 572
GlyphClass: 2
Flags: W
LayerCount: 2
Fore
SplineSet
166 0 m 1,0,-1
 166 1470 l 1,1,-1
 410 1470 l 1,2,-1
 410 0 l 1,3,-1
 166 0 l 1,0,-1
EndSplineSet
EndChar

StartChar: J
Encoding: 74 74 45
Width: 1026
GlyphClass: 2
Flags: W
LayerCount: 2
Fore
SplineSet
16 274 m 1,0,-1
 220 354 l 1,1,2
 242 278 242 278 295 227 c 128,-1,3
 348 176 348 176 424 176 c 0,4,5
 516 176 516 176 566 247 c 128,-1,6
 616 318 616 318 616 452 c 2,7,-1
 616 1470 l 1,8,-1
 862 1470 l 1,9,-1
 862 418 l 2,10,11
 862 202 862 202 750 84 c 128,-1,12
 638 -34 638 -34 430 -34 c 0,13,14
 260 -34 260 -34 157 55 c 128,-1,15
 54 144 54 144 16 274 c 1,0,-1
EndSplineSet
EndChar

StartChar: K
Encoding: 75 75 46
Width: 1300
GlyphClass: 2
Flags: W
LayerCount: 2
Fore
SplineSet
166 0 m 1,0,-1
 166 1470 l 1,1,-1
 410 1470 l 1,2,-1
 410 804 l 1,3,-1
 414 804 l 1,4,-1
 984 1470 l 1,5,-1
 1296 1470 l 1,6,-1
 726 826 l 1,7,-1
 1310 0 l 1,8,-1
 1014 0 l 1,9,-1
 572 654 l 1,10,-1
 410 470 l 1,11,-1
 410 0 l 1,12,-1
 166 0 l 1,0,-1
EndSplineSet
EndChar

StartChar: L
Encoding: 76 76 47
Width: 1094
GlyphClass: 2
Flags: W
LayerCount: 2
Fore
SplineSet
166 0 m 1,0,-1
 166 1470 l 1,1,-1
 410 1470 l 1,2,-1
 410 208 l 1,3,-1
 1076 208 l 1,4,-1
 1076 0 l 1,5,-1
 166 0 l 1,0,-1
EndSplineSet
EndChar

StartChar: M
Encoding: 77 77 48
Width: 1708
GlyphClass: 2
Flags: W
LayerCount: 2
Fore
SplineSet
166 0 m 1,0,-1
 166 1470 l 1,1,-1
 464 1470 l 1,2,-1
 722 786 l 2,3,4
 750 710 750 710 793 579 c 128,-1,5
 836 448 836 448 850 408 c 1,6,-1
 856 408 l 1,7,8
 950 678 950 678 988 786 c 2,9,-1
 1242 1470 l 1,10,-1
 1544 1470 l 1,11,-1
 1544 0 l 1,12,-1
 1302 0 l 1,13,-1
 1302 668 l 2,14,15
 1302 834 1302 834 1328 1120 c 1,16,-1
 1322 1120 l 1,17,-1
 1216 808 l 1,18,-1
 946 84 l 1,19,-1
 764 84 l 1,20,-1
 498 808 l 1,21,-1
 388 1122 l 1,22,-1
 380 1122 l 1,23,24
 408 854 408 854 408 668 c 2,25,-1
 408 0 l 1,26,-1
 166 0 l 1,0,-1
EndSplineSet
EndChar

StartChar: N
Encoding: 78 78 49
Width: 1420
GlyphClass: 2
Flags: W
LayerCount: 2
Fore
SplineSet
166 0 m 1,0,-1
 166 1470 l 1,1,-1
 422 1470 l 1,2,-1
 1030 364 l 1,3,-1
 1038 364 l 1,4,5
 1010 560 1010 560 1010 788 c 2,6,-1
 1010 1470 l 1,7,-1
 1256 1470 l 1,8,-1
 1256 0 l 1,9,-1
 1000 0 l 1,10,-1
 556 794 l 1,11,-1
 392 1100 l 1,12,-1
 382 1100 l 1,13,14
 410 882 410 882 410 676 c 2,15,-1
 410 0 l 1,16,-1
 166 0 l 1,0,-1
EndSplineSet
EndChar

StartChar: O
Encoding: 79 79 50
Width: 1418
GlyphClass: 2
Flags: W
LayerCount: 2
Fore
SplineSet
78 734 m 0,0,1
 78 1080 78 1080 251 1292 c 128,-1,2
 424 1504 424 1504 710 1504 c 256,3,4
 996 1504 996 1504 1168 1293 c 128,-1,5
 1340 1082 1340 1082 1340 734 c 256,6,7
 1340 386 1340 386 1167 176 c 128,-1,8
 994 -34 994 -34 710 -34 c 0,9,10
 424 -34 424 -34 251 176 c 128,-1,11
 78 386 78 386 78 734 c 0,0,1
330 734 m 0,12,13
 330 476 330 476 432 326 c 128,-1,14
 534 176 534 176 710 176 c 0,15,16
 884 176 884 176 986 325 c 128,-1,17
 1088 474 1088 474 1088 734 c 0,18,19
 1088 990 1088 990 988 1142 c 128,-1,20
 888 1294 888 1294 710 1294 c 0,21,22
 534 1294 534 1294 432 1142 c 128,-1,23
 330 990 330 990 330 734 c 0,12,13
EndSplineSet
Substitution2: "Single Substitution lookup 12 subtable" ordmasculine
EndChar

StartChar: P
Encoding: 80 80 51
Width: 1294
GlyphClass: 2
Flags: W
LayerCount: 2
Fore
SplineSet
166 0 m 1,0,-1
 166 1470 l 1,1,-1
 740 1470 l 2,2,3
 970 1470 970 1470 1099 1346 c 128,-1,4
 1228 1222 1228 1222 1228 1020 c 0,5,6
 1228 812 1228 812 1095 691 c 128,-1,7
 962 570 962 570 744 570 c 2,8,-1
 410 570 l 1,9,-1
 410 0 l 1,10,-1
 166 0 l 1,0,-1
410 778 m 1,11,-1
 710 778 l 2,12,13
 836 778 836 778 907 840 c 128,-1,14
 978 902 978 902 978 1020 c 256,15,16
 978 1138 978 1138 909 1199 c 128,-1,17
 840 1260 840 1260 708 1260 c 2,18,-1
 410 1260 l 1,19,-1
 410 778 l 1,11,-1
EndSplineSet
EndChar

StartChar: Q
Encoding: 81 81 52
Width: 1418
GlyphClass: 2
Flags: W
LayerCount: 2
Fore
SplineSet
78 734 m 0,0,1
 78 1084 78 1084 252 1294 c 128,-1,2
 426 1504 426 1504 710 1504 c 256,3,4
 994 1504 994 1504 1167 1292 c 128,-1,5
 1340 1080 1340 1080 1340 734 c 0,6,7
 1340 400 1340 400 1178 190 c 1,8,-1
 1340 22 l 1,9,-1
 1200 -102 l 1,10,-1
 1042 62 l 1,11,12
 902 -34 902 -34 710 -34 c 0,13,14
 424 -34 424 -34 251 178 c 128,-1,15
 78 390 78 390 78 734 c 0,0,1
654 462 m 1,16,-1
 794 590 l 1,17,-1
 1010 364 l 1,18,19
 1088 508 1088 508 1088 734 c 0,20,21
 1088 996 1088 996 987 1145 c 128,-1,22
 886 1294 886 1294 710 1294 c 256,23,24
 534 1294 534 1294 432 1143 c 128,-1,25
 330 992 330 992 330 734 c 256,26,27
 330 476 330 476 432 326 c 128,-1,28
 534 176 534 176 710 176 c 0,29,30
 810 176 810 176 884 224 c 1,31,-1
 654 462 l 1,16,-1
EndSplineSet
EndChar

StartChar: R
Encoding: 82 82 53
Width: 1334
GlyphClass: 2
Flags: W
LayerCount: 2
Fore
SplineSet
410 796 m 1,0,-1
 720 796 l 2,1,2
 844 796 844 796 911 857 c 128,-1,3
 978 918 978 918 978 1034 c 0,4,5
 978 1136 978 1136 909 1198 c 128,-1,6
 840 1260 840 1260 714 1260 c 2,7,-1
 410 1260 l 1,8,-1
 410 796 l 1,0,-1
166 0 m 1,9,-1
 166 1470 l 1,10,-1
 760 1470 l 2,11,12
 986 1470 986 1470 1108 1351 c 128,-1,13
 1230 1232 1230 1232 1230 1054 c 0,14,15
 1230 904 1230 904 1163 809 c 128,-1,16
 1096 714 1096 714 1010 680 c 1,17,18
 1080 632 1080 632 1110 578 c 128,-1,19
 1140 524 1140 524 1160 414 c 0,20,21
 1204 196 1204 196 1320 0 c 1,22,-1
 1046 0 l 1,23,24
 956 154 956 154 904 396 c 0,25,26
 882 490 882 490 842 539 c 128,-1,27
 802 588 802 588 718 588 c 2,28,-1
 410 588 l 1,29,-1
 410 0 l 1,30,-1
 166 0 l 1,9,-1
EndSplineSet
EndChar

StartChar: S
Encoding: 83 83 54
Width: 1216
GlyphClass: 2
Flags: W
LayerCount: 2
Fore
SplineSet
50 314 m 1,0,-1
 266 386 l 1,1,2
 318 294 318 294 416 235 c 128,-1,3
 514 176 514 176 634 176 c 0,4,5
 756 176 756 176 831 236 c 128,-1,6
 906 296 906 296 906 390 c 0,7,8
 906 490 906 490 827 546 c 128,-1,9
 748 602 748 602 594 654 c 0,10,11
 378 726 378 726 302 770 c 0,12,13
 102 882 102 882 102 1098 c 0,14,15
 102 1280 102 1280 245 1392 c 128,-1,16
 388 1504 388 1504 618 1504 c 0,17,18
 808 1504 808 1504 943 1415 c 128,-1,19
 1078 1326 1078 1326 1140 1190 c 1,20,-1
 932 1120 l 1,21,22
 814 1294 814 1294 616 1294 c 0,23,24
 496 1294 496 1294 425 1240 c 128,-1,25
 354 1186 354 1186 354 1098 c 0,26,27
 354 1072 354 1072 360 1049 c 128,-1,28
 366 1026 366 1026 383 1005 c 128,-1,29
 400 984 400 984 413 970 c 128,-1,30
 426 956 426 956 456 939 c 128,-1,31
 486 922 486 922 503 913 c 128,-1,32
 520 904 520 904 561 889 c 128,-1,33
 602 874 602 874 620 868 c 128,-1,34
 638 862 638 862 686 846 c 128,-1,35
 734 830 734 830 750 826 c 0,36,37
 836 798 836 798 901 766 c 128,-1,38
 966 734 966 734 1028 685 c 128,-1,39
 1090 636 1090 636 1124 563 c 128,-1,40
 1158 490 1158 490 1158 400 c 0,41,42
 1158 194 1158 194 1010 80 c 128,-1,43
 862 -34 862 -34 628 -34 c 0,44,45
 426 -34 426 -34 273 60 c 128,-1,46
 120 154 120 154 50 314 c 1,0,-1
EndSplineSet
EndChar

StartChar: T
Encoding: 84 84 55
Width: 1130
GlyphClass: 2
Flags: W
LayerCount: 2
Fore
SplineSet
20 1260 m 1,0,-1
 20 1470 l 1,1,-1
 1114 1470 l 1,2,-1
 1114 1260 l 1,3,-1
 690 1260 l 1,4,-1
 690 0 l 1,5,-1
 444 0 l 1,6,-1
 444 1260 l 1,7,-1
 20 1260 l 1,0,-1
EndSplineSet
EndChar

StartChar: U
Encoding: 85 85 56
Width: 1402
GlyphClass: 2
Flags: W
LayerCount: 2
Fore
SplineSet
158 550 m 2,0,-1
 158 1470 l 1,1,-1
 406 1470 l 1,2,-1
 406 550 l 2,3,4
 406 360 406 360 484 268 c 128,-1,5
 562 176 562 176 700 176 c 0,6,7
 844 176 844 176 922 272 c 128,-1,8
 1000 368 1000 368 1000 550 c 2,9,-1
 1000 1470 l 1,10,-1
 1246 1470 l 1,11,-1
 1246 550 l 2,12,13
 1246 270 1246 270 1108 118 c 128,-1,14
 970 -34 970 -34 700 -34 c 0,15,16
 440 -34 440 -34 299 113 c 128,-1,17
 158 260 158 260 158 550 c 2,0,-1
EndSplineSet
EndChar

StartChar: V
Encoding: 86 86 57
Width: 1224
GlyphClass: 2
Flags: W
LayerCount: 2
Fore
SplineSet
2 1470 m 1,0,-1
 268 1470 l 1,1,-1
 514 620 l 1,2,3
 600 290 600 290 610 256 c 1,4,-1
 616 254 l 1,5,6
 662 426 662 426 712 620 c 2,7,-1
 958 1470 l 1,8,-1
 1224 1470 l 1,9,-1
 750 0 l 1,10,-1
 476 0 l 1,11,-1
 2 1470 l 1,0,-1
EndSplineSet
EndChar

StartChar: W
Encoding: 87 87 58
Width: 1748
GlyphClass: 2
Flags: W
LayerCount: 2
Fore
SplineSet
24 1470 m 1,0,-1
 282 1470 l 1,1,-1
 434 660 l 2,2,3
 468 452 468 452 496 266 c 1,4,-1
 506 266 l 1,5,6
 562 574 562 574 578 660 c 2,7,-1
 750 1470 l 1,8,-1
 998 1470 l 1,9,-1
 1172 660 l 2,10,11
 1186 598 1186 598 1213 449 c 128,-1,12
 1240 300 1240 300 1246 266 c 1,13,-1
 1254 266 l 1,14,15
 1264 324 1264 324 1287 463 c 128,-1,16
 1310 602 1310 602 1320 660 c 2,17,-1
 1468 1470 l 1,18,-1
 1726 1470 l 1,19,-1
 1396 0 l 1,20,-1
 1116 0 l 1,21,-1
 948 800 l 2,22,23
 882 1146 882 1146 880 1172 c 1,24,-1
 872 1172 l 1,25,26
 872 1168 872 1168 802 800 c 2,27,-1
 636 0 l 1,28,-1
 356 0 l 1,29,-1
 24 1470 l 1,0,-1
EndSplineSet
EndChar

StartChar: X
Encoding: 88 88 59
Width: 1232
GlyphClass: 2
Flags: W
LayerCount: 2
Fore
SplineSet
4 0 m 1,0,-1
 474 754 l 1,1,-1
 28 1470 l 1,2,-1
 318 1470 l 1,3,-1
 496 1150 l 2,4,5
 512 1118 512 1118 552 1047 c 128,-1,6
 592 976 592 976 614 936 c 1,7,-1
 620 936 l 1,8,9
 626 948 626 948 742 1150 c 2,10,-1
 922 1470 l 1,11,-1
 1210 1470 l 1,12,-1
 762 754 l 1,13,-1
 1234 0 l 1,14,-1
 950 0 l 1,15,-1
 748 344 l 2,16,17
 722 386 722 386 620 566 c 1,18,-1
 614 566 l 1,19,20
 506 374 506 374 488 344 c 2,21,-1
 290 0 l 1,22,-1
 4 0 l 1,0,-1
EndSplineSet
EndChar

StartChar: Y
Encoding: 89 89 60
Width: 1254
GlyphClass: 2
Flags: W
LayerCount: 2
Fore
SplineSet
-4 1470 m 1,0,-1
 276 1470 l 1,1,-1
 504 1036 l 2,2,3
 590 870 590 870 624 796 c 1,4,-1
 632 796 l 1,5,6
 672 874 672 874 754 1036 c 2,7,-1
 980 1470 l 1,8,-1
 1262 1470 l 1,9,-1
 752 596 l 1,10,-1
 752 0 l 1,11,-1
 508 0 l 1,12,-1
 508 596 l 1,13,-1
 -4 1470 l 1,0,-1
EndSplineSet
EndChar

StartChar: Z
Encoding: 90 90 61
Width: 1204
GlyphClass: 2
Flags: W
LayerCount: 2
Fore
SplineSet
64 178 m 1,0,-1
 826 1260 l 1,1,-1
 124 1260 l 1,2,-1
 124 1470 l 1,3,-1
 1128 1470 l 1,4,-1
 1128 1288 l 1,5,-1
 364 208 l 1,6,-1
 1148 208 l 1,7,-1
 1148 0 l 1,8,-1
 64 0 l 1,9,-1
 64 178 l 1,0,-1
EndSplineSet
EndChar

StartChar: bracketleft
Encoding: 91 91 62
Width: 884
GlyphClass: 2
Flags: W
LayerCount: 2
Fore
SplineSet
248 -240 m 1,0,-1
 248 1652 l 1,1,-1
 720 1652 l 1,2,-1
 720 1458 l 1,3,-1
 486 1458 l 1,4,-1
 486 -44 l 1,5,-1
 720 -44 l 1,6,-1
 720 -240 l 1,7,-1
 248 -240 l 1,0,-1
EndSplineSet
EndChar

StartChar: backslash
Encoding: 92 92 63
Width: 722
GlyphClass: 2
Flags: W
LayerCount: 2
Fore
SplineSet
-30 1564 m 1,0,-1
 216 1564 l 1,1,-1
 756 -106 l 1,2,-1
 512 -106 l 1,3,-1
 -30 1564 l 1,0,-1
EndSplineSet
EndChar

StartChar: bracketright
Encoding: 93 93 64
Width: 884
GlyphClass: 2
Flags: W
LayerCount: 2
Fore
SplineSet
166 -44 m 1,0,-1
 404 -44 l 1,1,-1
 404 1458 l 1,2,-1
 166 1458 l 1,3,-1
 166 1652 l 1,4,-1
 640 1652 l 1,5,-1
 640 -240 l 1,6,-1
 166 -240 l 1,7,-1
 166 -44 l 1,0,-1
EndSplineSet
EndChar

StartChar: asciicircum
Encoding: 94 94 65
Width: 1060
GlyphClass: 2
Flags: W
LayerCount: 2
Fore
SplineSet
20 920 m 1,0,-1
 420 1618 l 1,1,-1
 640 1618 l 1,2,-1
 1038 920 l 1,3,-1
 796 920 l 1,4,-1
 596 1300 l 1,5,-1
 532 1430 l 1,6,-1
 530 1430 l 1,7,-1
 264 920 l 1,8,-1
 20 920 l 1,0,-1
EndSplineSet
EndChar

StartChar: underscore
Encoding: 95 95 66
Width: 974
GlyphClass: 2
Flags: W
LayerCount: 2
Fore
SplineSet
12 -16 m 1,0,-1
 968 -16 l 1,1,-1
 968 -210 l 1,2,-1
 12 -210 l 1,3,-1
 12 -16 l 1,0,-1
EndSplineSet
EndChar

StartChar: grave
Encoding: 96 96 67
Width: 690
GlyphClass: 2
Flags: W
LayerCount: 2
Fore
SplineSet
334 1034 m 1,0,-1
 76 1634 l 1,1,-1
 346 1634 l 1,2,-1
 526 1034 l 1,3,-1
 334 1034 l 1,0,-1
EndSplineSet
EndChar

StartChar: a
Encoding: 97 97 68
Width: 1094
GlyphClass: 2
Flags: W
LayerCount: 2
Fore
SplineSet
302 302 m 0,0,1
 302 242 302 242 350 202 c 128,-1,2
 398 162 398 162 476 162 c 0,3,4
 588 162 588 162 667 236 c 128,-1,5
 746 310 746 310 746 432 c 2,6,-1
 746 530 l 1,7,8
 660 510 660 510 538 490 c 0,9,10
 302 454 302 454 302 302 c 0,0,1
66 280 m 0,11,12
 66 584 66 584 514 650 c 0,13,14
 678 674 678 674 746 696 c 1,15,-1
 746 752 l 2,16,17
 746 830 746 830 690 875 c 128,-1,18
 634 920 634 920 540 920 c 0,19,20
 364 920 364 920 236 774 c 1,21,-1
 92 898 l 1,22,23
 176 996 176 996 292 1051 c 128,-1,24
 408 1106 408 1106 538 1106 c 0,25,26
 776 1106 776 1106 879 990 c 128,-1,27
 982 874 982 874 982 666 c 2,28,-1
 982 0 l 1,29,-1
 752 0 l 1,30,-1
 752 134 l 1,31,32
 720 66 720 66 637 16 c 128,-1,33
 554 -34 554 -34 442 -34 c 0,34,35
 266 -34 266 -34 166 54 c 128,-1,36
 66 142 66 142 66 280 c 0,11,12
EndSplineSet
Substitution2: "Single Substitution lookup 12 subtable" ordfeminine
EndChar

StartChar: b
Encoding: 98 98 69
Width: 1168
GlyphClass: 2
Flags: W
LayerCount: 2
Fore
SplineSet
140 0 m 1,0,-1
 140 1518 l 1,1,-1
 372 1518 l 1,2,-1
 372 952 l 1,3,4
 414 1014 414 1014 486 1060 c 128,-1,5
 558 1106 558 1106 648 1106 c 0,6,7
 846 1106 846 1106 974 954 c 128,-1,8
 1102 802 1102 802 1102 538 c 0,9,10
 1102 416 1102 416 1074 318 c 128,-1,11
 1046 220 1046 220 1002 156 c 128,-1,12
 958 92 958 92 897 48 c 128,-1,13
 836 4 836 4 775 -15 c 128,-1,14
 714 -34 714 -34 650 -34 c 0,15,16
 556 -34 556 -34 479 17 c 128,-1,17
 402 68 402 68 368 138 c 1,18,-1
 368 0 l 1,19,-1
 140 0 l 1,0,-1
370 538 m 0,20,21
 370 366 370 366 438 267 c 128,-1,22
 506 168 506 168 616 168 c 0,23,24
 722 168 722 168 791 262 c 128,-1,25
 860 356 860 356 860 538 c 0,26,27
 860 706 860 706 794 806 c 128,-1,28
 728 906 728 906 616 906 c 256,29,30
 504 906 504 906 437 804 c 128,-1,31
 370 702 370 702 370 538 c 0,20,21
EndSplineSet
EndChar

StartChar: c
Encoding: 99 99 70
Width: 1032
GlyphClass: 2
Flags: W
LayerCount: 2
Fore
SplineSet
66 536 m 0,0,1
 66 794 66 794 205 950 c 128,-1,2
 344 1106 344 1106 564 1106 c 0,3,4
 722 1106 722 1106 832 1009 c 128,-1,5
 942 912 942 912 970 788 c 1,6,-1
 770 732 l 1,7,8
 748 802 748 802 694 854 c 128,-1,9
 640 906 640 906 564 906 c 0,10,11
 444 906 444 906 376 800 c 128,-1,12
 308 694 308 694 308 536 c 0,13,14
 308 360 308 360 381 264 c 128,-1,15
 454 168 454 168 564 168 c 0,16,17
 646 168 646 168 709 224 c 128,-1,18
 772 280 772 280 796 354 c 1,19,-1
 996 296 l 1,20,21
 960 166 960 166 841 66 c 128,-1,22
 722 -34 722 -34 564 -34 c 0,23,24
 344 -34 344 -34 205 121 c 128,-1,25
 66 276 66 276 66 536 c 0,0,1
EndSplineSet
EndChar

StartChar: d
Encoding: 100 100 71
Width: 1168
GlyphClass: 2
Flags: W
LayerCount: 2
Fore
SplineSet
66 538 m 0,0,1
 66 800 66 800 196 953 c 128,-1,2
 326 1106 326 1106 524 1106 c 0,3,4
 618 1106 618 1106 688 1060 c 128,-1,5
 758 1014 758 1014 796 954 c 1,6,-1
 796 1518 l 1,7,-1
 1030 1518 l 1,8,-1
 1030 0 l 1,9,-1
 802 0 l 1,10,-1
 802 140 l 1,11,12
 770 68 770 68 693 17 c 128,-1,13
 616 -34 616 -34 522 -34 c 0,14,15
 438 -34 438 -34 360 -2 c 128,-1,16
 282 30 282 30 214 95 c 128,-1,17
 146 160 146 160 106 274 c 128,-1,18
 66 388 66 388 66 538 c 0,0,1
308 538 m 0,19,20
 308 362 308 362 376 265 c 128,-1,21
 444 168 444 168 556 168 c 0,22,23
 664 168 664 168 732 267 c 128,-1,24
 800 366 800 366 800 538 c 0,25,26
 800 702 800 702 734 804 c 128,-1,27
 668 906 668 906 556 906 c 0,28,29
 438 906 438 906 373 805 c 128,-1,30
 308 704 308 704 308 538 c 0,19,20
EndSplineSet
EndChar

StartChar: e
Encoding: 101 101 72
Width: 1116
GlyphClass: 2
Flags: W
LayerCount: 2
Fore
SplineSet
66 540 m 0,0,1
 66 800 66 800 209 953 c 128,-1,2
 352 1106 352 1106 566 1106 c 0,3,4
 778 1106 778 1106 916 952 c 128,-1,5
 1054 798 1054 798 1054 550 c 0,6,7
 1054 502 1054 502 1048 456 c 1,8,-1
 304 456 l 1,9,10
 304 332 304 332 378 244 c 128,-1,11
 452 156 452 156 580 156 c 0,12,13
 670 156 670 156 737 200 c 128,-1,14
 804 244 804 244 840 312 c 1,15,-1
 1036 246 l 1,16,17
 984 126 984 126 867 46 c 128,-1,18
 750 -34 750 -34 576 -34 c 0,19,20
 352 -34 352 -34 209 122 c 128,-1,21
 66 278 66 278 66 540 c 0,0,1
308 620 m 1,22,-1
 814 620 l 1,23,24
 814 744 814 744 749 830 c 128,-1,25
 684 916 684 916 566 916 c 0,26,27
 450 916 450 916 380 828 c 128,-1,28
 310 740 310 740 308 620 c 1,22,-1
EndSplineSet
EndChar

StartChar: f
Encoding: 102 102 73
Width: 694
GlyphClass: 2
Flags: W
LayerCount: 2
Fore
SplineSet
44 872 m 1,0,-1
 44 1072 l 1,1,-1
 208 1072 l 1,2,-1
 208 1188 l 2,3,4
 208 1352 208 1352 291 1435 c 128,-1,5
 374 1518 374 1518 524 1518 c 2,6,-1
 694 1518 l 1,7,-1
 694 1320 l 1,8,-1
 558 1320 l 2,9,10
 500 1320 500 1320 473 1284 c 128,-1,11
 446 1248 446 1248 446 1170 c 2,12,-1
 446 1072 l 1,13,-1
 670 1072 l 1,14,-1
 670 872 l 1,15,-1
 446 872 l 1,16,-1
 446 0 l 1,17,-1
 208 0 l 1,18,-1
 208 872 l 1,19,-1
 44 872 l 1,0,-1
EndSplineSet
EndChar

StartChar: g
Encoding: 103 103 74
Width: 1138
GlyphClass: 2
Flags: W
LayerCount: 2
Fore
SplineSet
312 556 m 0,0,1
 312 392 312 392 376 301 c 128,-1,2
 440 210 440 210 546 210 c 0,3,4
 650 210 650 210 713 299 c 128,-1,5
 776 388 776 388 776 558 c 0,6,7
 776 722 776 722 713 814 c 128,-1,8
 650 906 650 906 548 906 c 0,9,10
 440 906 440 906 376 811 c 128,-1,11
 312 716 312 716 312 556 c 0,0,1
72 554 m 0,12,13
 72 804 72 804 197 955 c 128,-1,14
 322 1106 322 1106 516 1106 c 0,15,16
 616 1106 616 1106 683 1057 c 128,-1,17
 750 1008 750 1008 778 948 c 1,18,-1
 778 1072 l 1,19,-1
 1012 1072 l 1,20,-1
 1012 148 l 2,21,22
 1012 -154 1012 -154 894 -300 c 128,-1,23
 776 -446 776 -446 532 -446 c 0,24,25
 262 -446 262 -446 114 -238 c 1,26,-1
 270 -130 l 1,27,28
 378 -256 378 -256 536 -256 c 0,29,30
 638 -256 638 -256 705 -178 c 128,-1,31
 772 -100 772 -100 776 26 c 0,32,33
 780 100 780 100 780 148 c 1,34,35
 746 90 746 90 675 50 c 128,-1,36
 604 10 604 10 524 10 c 0,37,38
 322 10 322 10 197 159 c 128,-1,39
 72 308 72 308 72 554 c 0,12,13
EndSplineSet
EndChar

StartChar: h
Encoding: 104 104 75
Width: 1128
GlyphClass: 2
Flags: W
LayerCount: 2
Fore
SplineSet
140 0 m 1,0,-1
 140 1518 l 1,1,-1
 372 1518 l 1,2,-1
 372 962 l 1,3,-1
 378 962 l 1,4,5
 420 1024 420 1024 495 1065 c 128,-1,6
 570 1106 570 1106 654 1106 c 0,7,8
 808 1106 808 1106 910 1006 c 128,-1,9
 1012 906 1012 906 1012 690 c 2,10,-1
 1012 0 l 1,11,-1
 778 0 l 1,12,-1
 778 660 l 2,13,14
 778 906 778 906 612 906 c 0,15,16
 510 906 510 906 441 818 c 128,-1,17
 372 730 372 730 372 614 c 2,18,-1
 372 0 l 1,19,-1
 140 0 l 1,0,-1
EndSplineSet
Substitution2: "'sups' Superscript lookup 5 subtable" uni02B0
Substitution2: "'aalt' Access All Alternates lookup 0 subtable" uni02B0
EndChar

StartChar: i
Encoding: 105 105 76
Width: 536
GlyphClass: 2
Flags: W
LayerCount: 2
Fore
SplineSet
142 1232 m 1,0,-1
 142 1490 l 1,1,-1
 394 1490 l 1,2,-1
 394 1232 l 1,3,-1
 142 1232 l 1,0,-1
152 0 m 1,4,-1
 152 1072 l 1,5,-1
 384 1072 l 1,6,-1
 384 0 l 1,7,-1
 152 0 l 1,4,-1
EndSplineSet
EndChar

StartChar: j
Encoding: 106 106 77
Width: 546
GlyphClass: 2
Flags: W
LayerCount: 2
Fore
SplineSet
150 1232 m 1,0,-1
 150 1490 l 1,1,-1
 406 1490 l 1,2,-1
 406 1232 l 1,3,-1
 150 1232 l 1,0,-1
-22 -222 m 1,4,-1
 14 -222 l 2,5,6
 162 -222 162 -222 162 -14 c 2,7,-1
 162 1072 l 1,8,-1
 398 1072 l 1,9,-1
 398 -22 l 2,10,11
 398 -222 398 -222 310 -322 c 128,-1,12
 222 -422 222 -422 54 -422 c 2,13,-1
 -22 -422 l 1,14,-1
 -22 -222 l 1,4,-1
EndSplineSet
Substitution2: "'sups' Superscript lookup 5 subtable" uni02B2
Substitution2: "'aalt' Access All Alternates lookup 0 subtable" uni02B2
EndChar

StartChar: k
Encoding: 107 107 78
Width: 1056
GlyphClass: 2
Flags: W
LayerCount: 2
Fore
SplineSet
142 0 m 1,0,-1
 142 1518 l 1,1,-1
 376 1518 l 1,2,-1
 376 644 l 1,3,-1
 756 1072 l 1,4,-1
 1052 1072 l 1,5,-1
 656 636 l 1,6,-1
 1076 0 l 1,7,-1
 800 0 l 1,8,-1
 504 470 l 1,9,-1
 376 328 l 1,10,-1
 376 0 l 1,11,-1
 142 0 l 1,0,-1
EndSplineSet
EndChar

StartChar: l
Encoding: 108 108 79
Width: 530
GlyphClass: 2
Flags: W
LayerCount: 2
Fore
SplineSet
148 0 m 1,0,-1
 148 1518 l 1,1,-1
 382 1518 l 1,2,-1
 382 0 l 1,3,-1
 148 0 l 1,0,-1
EndSplineSet
Substitution2: "'sups' Superscript lookup 5 subtable" uni02E1
Substitution2: "'aalt' Access All Alternates lookup 0 subtable" uni02E1
EndChar

StartChar: m
Encoding: 109 109 80
Width: 1658
GlyphClass: 2
Flags: W
LayerCount: 2
Fore
SplineSet
128 0 m 1,0,-1
 128 1072 l 1,1,-1
 356 1072 l 1,2,-1
 356 948 l 1,3,4
 384 1002 384 1002 457 1054 c 128,-1,5
 530 1106 530 1106 632 1106 c 0,6,7
 808 1106 808 1106 892 914 c 1,8,9
 906 940 906 940 927 966 c 128,-1,10
 948 992 948 992 986 1028 c 128,-1,11
 1024 1064 1024 1064 1084 1085 c 128,-1,12
 1144 1106 1144 1106 1216 1106 c 0,13,14
 1544 1106 1544 1106 1544 690 c 2,15,-1
 1544 0 l 1,16,-1
 1306 0 l 1,17,-1
 1306 682 l 2,18,19
 1306 794 1306 794 1275 850 c 128,-1,20
 1244 906 1244 906 1164 906 c 0,21,22
 1068 906 1068 906 1010 827 c 128,-1,23
 952 748 952 748 952 632 c 2,24,-1
 952 0 l 1,25,-1
 720 0 l 1,26,-1
 720 688 l 2,27,28
 720 906 720 906 574 906 c 0,29,30
 474 906 474 906 419 831 c 128,-1,31
 364 756 364 756 364 636 c 2,32,-1
 364 0 l 1,33,-1
 128 0 l 1,0,-1
EndSplineSet
EndChar

StartChar: n
Encoding: 110 110 81
Width: 1118
GlyphClass: 2
Flags: W
LayerCount: 2
Fore
SplineSet
128 0 m 1,0,-1
 128 1072 l 1,1,-1
 356 1072 l 1,2,-1
 356 936 l 1,3,-1
 358 936 l 1,4,5
 386 996 386 996 462 1051 c 128,-1,6
 538 1106 538 1106 656 1106 c 0,7,8
 816 1106 816 1106 911 1007 c 128,-1,9
 1006 908 1006 908 1006 690 c 2,10,-1
 1006 0 l 1,11,-1
 770 0 l 1,12,-1
 770 658 l 2,13,14
 770 906 770 906 602 906 c 0,15,16
 500 906 500 906 432 824 c 128,-1,17
 364 742 364 742 364 620 c 2,18,-1
 364 0 l 1,19,-1
 128 0 l 1,0,-1
EndSplineSet
Substitution2: "'sups' Superscript lookup 5 subtable" uni207F
Substitution2: "'aalt' Access All Alternates lookup 0 subtable" uni207F
EndChar

StartChar: o
Encoding: 111 111 82
Width: 1122
GlyphClass: 2
Flags: W
LayerCount: 2
Fore
SplineSet
308 536 m 0,0,1
 308 350 308 350 384 259 c 128,-1,2
 460 168 460 168 564 168 c 0,3,4
 664 168 664 168 740 259 c 128,-1,5
 816 350 816 350 816 536 c 0,6,7
 816 724 816 724 740 815 c 128,-1,8
 664 906 664 906 564 906 c 0,9,10
 462 906 462 906 385 815 c 128,-1,11
 308 724 308 724 308 536 c 0,0,1
66 536 m 0,12,13
 66 774 66 774 193 940 c 128,-1,14
 320 1106 320 1106 564 1106 c 0,15,16
 804 1106 804 1106 931 940 c 128,-1,17
 1058 774 1058 774 1058 536 c 0,18,19
 1058 460 1058 460 1044 386 c 128,-1,20
 1030 312 1030 312 994 235 c 128,-1,21
 958 158 958 158 905 99 c 128,-1,22
 852 40 852 40 763 3 c 128,-1,23
 674 -34 674 -34 564 -34 c 256,24,25
 454 -34 454 -34 365 3 c 128,-1,26
 276 40 276 40 222 96 c 128,-1,27
 168 152 168 152 131 229 c 128,-1,28
 94 306 94 306 80 382 c 128,-1,29
 66 458 66 458 66 536 c 0,12,13
EndSplineSet
Substitution2: "Single Substitution lookup 12 subtable" ordmasculine
EndChar

StartChar: p
Encoding: 112 112 83
Width: 1168
GlyphClass: 2
Flags: W
LayerCount: 2
Fore
SplineSet
372 538 m 0,0,1
 372 368 372 368 436 268 c 128,-1,2
 500 168 500 168 616 168 c 0,3,4
 724 168 724 168 793 265 c 128,-1,5
 862 362 862 362 862 538 c 0,6,7
 862 706 862 706 796 806 c 128,-1,8
 730 906 730 906 616 906 c 256,9,10
 502 906 502 906 437 803 c 128,-1,11
 372 700 372 700 372 538 c 0,0,1
140 -438 m 1,12,-1
 140 1072 l 1,13,-1
 366 1072 l 1,14,-1
 366 932 l 1,15,16
 464 1106 464 1106 648 1106 c 0,17,18
 844 1106 844 1106 973 953 c 128,-1,19
 1102 800 1102 800 1102 538 c 0,20,21
 1102 390 1102 390 1061 276 c 128,-1,22
 1020 162 1020 162 952 97 c 128,-1,23
 884 32 884 32 807 -1 c 128,-1,24
 730 -34 730 -34 648 -34 c 0,25,26
 544 -34 544 -34 475 14 c 128,-1,27
 406 62 406 62 374 124 c 1,28,-1
 374 -438 l 1,29,-1
 140 -438 l 1,12,-1
EndSplineSet
EndChar

StartChar: q
Encoding: 113 113 84
Width: 1168
GlyphClass: 2
Flags: W
LayerCount: 2
Fore
SplineSet
308 538 m 0,0,1
 308 362 308 362 375 265 c 128,-1,2
 442 168 442 168 554 168 c 256,3,4
 666 168 666 168 733 267 c 128,-1,5
 800 366 800 366 800 538 c 0,6,7
 800 700 800 700 735 803 c 128,-1,8
 670 906 670 906 556 906 c 0,9,10
 438 906 438 906 373 803 c 128,-1,11
 308 700 308 700 308 538 c 0,0,1
66 538 m 0,12,13
 66 800 66 800 195 953 c 128,-1,14
 324 1106 324 1106 522 1106 c 0,15,16
 616 1106 616 1106 688 1057 c 128,-1,17
 760 1008 760 1008 802 932 c 1,18,-1
 802 1072 l 1,19,-1
 1030 1072 l 1,20,-1
 1030 -438 l 1,21,-1
 796 -438 l 1,22,-1
 796 126 l 1,23,24
 760 60 760 60 689 13 c 128,-1,25
 618 -34 618 -34 522 -34 c 0,26,27
 440 -34 440 -34 362 -1 c 128,-1,28
 284 32 284 32 216 97 c 128,-1,29
 148 162 148 162 107 276 c 128,-1,30
 66 390 66 390 66 538 c 0,12,13
EndSplineSet
EndChar

StartChar: r
Encoding: 114 114 85
Width: 748
GlyphClass: 2
Flags: W
LayerCount: 2
Fore
SplineSet
128 0 m 1,0,-1
 128 1072 l 1,1,-1
 354 1072 l 1,2,-1
 354 958 l 1,3,4
 390 1016 390 1016 456 1061 c 128,-1,5
 522 1106 522 1106 614 1106 c 0,6,7
 698 1106 698 1106 752 1082 c 1,8,-1
 752 868 l 1,9,10
 682 890 682 890 614 890 c 0,11,12
 492 890 492 890 428 796 c 128,-1,13
 364 702 364 702 364 546 c 2,14,-1
 364 0 l 1,15,-1
 128 0 l 1,0,-1
EndSplineSet
Substitution2: "'sups' Superscript lookup 5 subtable" uni02B3
Substitution2: "'aalt' Access All Alternates lookup 0 subtable" uni02B3
EndChar

StartChar: s
Encoding: 115 115 86
Width: 992
GlyphClass: 2
Flags: W
LayerCount: 2
Fore
SplineSet
48 224 m 1,0,-1
 218 322 l 1,1,2
 328 158 328 158 508 158 c 0,3,4
 594 158 594 158 645 192 c 128,-1,5
 696 226 696 226 696 284 c 0,6,7
 696 330 696 330 655 366 c 128,-1,8
 614 402 614 402 567 419 c 128,-1,9
 520 436 520 436 428 466 c 0,10,11
 410 472 410 472 404 474 c 0,12,13
 336 496 336 496 291 517 c 128,-1,14
 246 538 246 538 195 575 c 128,-1,15
 144 612 144 612 118 667 c 128,-1,16
 92 722 92 722 92 794 c 0,17,18
 92 934 92 934 211 1020 c 128,-1,19
 330 1106 330 1106 508 1106 c 0,20,21
 640 1106 640 1106 757 1036 c 128,-1,22
 874 966 874 966 932 858 c 1,23,-1
 774 764 l 1,24,25
 666 914 666 914 510 914 c 0,26,27
 424 914 424 914 378 880 c 128,-1,28
 332 846 332 846 332 790 c 0,29,30
 332 744 332 744 372 707 c 128,-1,31
 412 670 412 670 455 654 c 128,-1,32
 498 638 498 638 576 612 c 0,33,34
 596 606 596 606 606 602 c 0,35,36
 936 496 936 496 936 282 c 0,37,38
 936 150 936 150 826 58 c 128,-1,39
 716 -34 716 -34 512 -34 c 0,40,41
 356 -34 356 -34 235 35 c 128,-1,42
 114 104 114 104 48 224 c 1,0,-1
EndSplineSet
Substitution2: "'hist' Historical Forms lookup 11 subtable" longs
Substitution2: "'sups' Superscript lookup 5 subtable" uni02E2
AlternateSubs2: "'aalt' Access All Alternates lookup 1 subtable" uni02E2 longs
EndChar

StartChar: t
Encoding: 116 116 87
Width: 736
GlyphClass: 2
Flags: W
LayerCount: 2
Fore
SplineSet
34 872 m 1,0,-1
 34 1072 l 1,1,-1
 198 1072 l 1,2,-1
 198 1390 l 1,3,-1
 434 1390 l 1,4,-1
 434 1072 l 1,5,-1
 678 1072 l 1,6,-1
 678 872 l 1,7,-1
 434 872 l 1,8,-1
 434 344 l 2,9,10
 434 268 434 268 464 234 c 128,-1,11
 494 200 494 200 558 200 c 2,12,-1
 680 200 l 1,13,-1
 680 0 l 1,14,-1
 528 0 l 2,15,16
 198 0 198 0 198 328 c 2,17,-1
 198 872 l 1,18,-1
 34 872 l 1,0,-1
EndSplineSet
EndChar

StartChar: u
Encoding: 117 117 88
Width: 1116
GlyphClass: 2
Flags: W
LayerCount: 2
Fore
SplineSet
116 388 m 2,0,-1
 116 1072 l 1,1,-1
 352 1072 l 1,2,-1
 352 418 l 2,3,4
 352 168 352 168 528 168 c 0,5,6
 634 168 634 168 693 258 c 128,-1,7
 752 348 752 348 752 472 c 2,8,-1
 752 1072 l 1,9,-1
 986 1072 l 1,10,-1
 986 0 l 1,11,-1
 760 0 l 1,12,-1
 760 124 l 1,13,-1
 758 124 l 1,14,15
 732 66 732 66 659 16 c 128,-1,16
 586 -34 586 -34 476 -34 c 0,17,18
 410 -34 410 -34 352 -14 c 128,-1,19
 294 6 294 6 238 49 c 128,-1,20
 182 92 182 92 149 180 c 128,-1,21
 116 268 116 268 116 388 c 2,0,-1
EndSplineSet
EndChar

StartChar: v
Encoding: 118 118 89
Width: 1040
GlyphClass: 2
Flags: W
LayerCount: 2
Fore
SplineSet
16 1072 m 1,0,-1
 274 1072 l 1,1,-1
 434 522 l 2,2,3
 450 466 450 466 479 353 c 128,-1,4
 508 240 508 240 518 198 c 1,5,-1
 522 198 l 1,6,7
 534 242 534 242 565 355 c 128,-1,8
 596 468 596 468 612 522 c 2,9,-1
 772 1072 l 1,10,-1
 1028 1072 l 1,11,-1
 656 0 l 1,12,-1
 388 0 l 1,13,-1
 16 1072 l 1,0,-1
EndSplineSet
EndChar

StartChar: w
Encoding: 119 119 90
Width: 1480
GlyphClass: 2
Flags: W
LayerCount: 2
Fore
SplineSet
16 1072 m 1,0,-1
 270 1072 l 1,1,-1
 380 534 l 2,2,3
 392 470 392 470 436 228 c 1,4,-1
 444 228 l 1,5,6
 454 280 454 280 475 388 c 128,-1,7
 496 496 496 496 504 534 c 2,8,-1
 616 1072 l 1,9,-1
 864 1072 l 1,10,-1
 980 530 l 2,11,12
 986 486 986 486 1008 384 c 128,-1,13
 1030 282 1030 282 1038 228 c 1,14,-1
 1046 228 l 1,15,16
 1056 280 1056 280 1077 396 c 128,-1,17
 1098 512 1098 512 1102 534 c 2,18,-1
 1212 1072 l 1,19,-1
 1464 1072 l 1,20,-1
 1174 0 l 1,21,-1
 912 0 l 1,22,-1
 800 522 l 2,23,24
 774 642 774 642 746 818 c 1,25,-1
 738 818 l 1,26,27
 728 760 728 760 708 654 c 128,-1,28
 688 548 688 548 682 522 c 2,29,-1
 568 0 l 1,30,-1
 306 0 l 1,31,-1
 16 1072 l 1,0,-1
EndSplineSet
Substitution2: "'sups' Superscript lookup 5 subtable" uni02B7
Substitution2: "'aalt' Access All Alternates lookup 0 subtable" uni02B7
EndChar

StartChar: x
Encoding: 120 120 91
Width: 1064
GlyphClass: 2
Flags: W
LayerCount: 2
Fore
SplineSet
12 0 m 1,0,-1
 392 550 l 1,1,-1
 30 1072 l 1,2,-1
 314 1072 l 1,3,-1
 452 840 l 2,4,5
 504 748 504 748 526 710 c 1,6,-1
 534 710 l 1,7,8
 564 764 564 764 606 840 c 2,9,-1
 744 1072 l 1,10,-1
 1030 1072 l 1,11,-1
 668 550 l 1,12,-1
 1050 0 l 1,13,-1
 772 0 l 1,14,-1
 614 258 l 2,15,16
 598 282 598 282 572 325 c 128,-1,17
 546 368 546 368 534 392 c 1,18,-1
 526 392 l 1,19,20
 518 380 518 380 446 258 c 2,21,-1
 288 0 l 1,22,-1
 12 0 l 1,0,-1
EndSplineSet
Substitution2: "'sups' Superscript lookup 5 subtable" uni02E3
Substitution2: "'aalt' Access All Alternates lookup 0 subtable" uni02E3
EndChar

StartChar: y
Encoding: 121 121 92
Width: 1040
GlyphClass: 2
Flags: W
LayerCount: 2
Fore
SplineSet
14 1072 m 1,0,-1
 272 1072 l 1,1,-1
 456 520 l 2,2,3
 502 368 502 368 526 274 c 1,4,-1
 534 274 l 1,5,6
 542 306 542 306 602 520 c 2,7,-1
 772 1072 l 1,8,-1
 1028 1072 l 1,9,-1
 584 -142 l 2,10,11
 524 -304 524 -304 430 -371 c 128,-1,12
 336 -438 336 -438 196 -438 c 2,13,-1
 124 -438 l 1,14,-1
 124 -242 l 1,15,-1
 158 -242 l 2,16,17
 242 -242 242 -242 295 -206 c 128,-1,18
 348 -170 348 -170 380 -80 c 2,19,-1
 414 26 l 1,20,-1
 14 1072 l 1,0,-1
EndSplineSet
Substitution2: "'sups' Superscript lookup 5 subtable" uni02B8
Substitution2: "'aalt' Access All Alternates lookup 0 subtable" uni02B8
EndChar

StartChar: z
Encoding: 122 122 93
Width: 978
GlyphClass: 2
Flags: W
LayerCount: 2
Fore
SplineSet
48 0 m 1,0,-1
 48 156 l 1,1,-1
 602 872 l 1,2,-1
 92 872 l 1,3,-1
 92 1072 l 1,4,-1
 908 1072 l 1,5,-1
 908 926 l 1,6,-1
 352 200 l 1,7,-1
 932 200 l 1,8,-1
 932 0 l 1,9,-1
 48 0 l 1,0,-1
EndSplineSet
EndChar

StartChar: braceleft
Encoding: 123 123 94
Width: 884
GlyphClass: 2
Flags: W
LayerCount: 2
Fore
SplineSet
116 614 m 1,0,-1
 116 796 l 1,1,-1
 178 796 l 2,2,3
 228 796 228 796 255 853 c 128,-1,4
 282 910 282 910 282 1010 c 2,5,-1
 282 1370 l 2,6,7
 282 1506 282 1506 358 1579 c 128,-1,8
 434 1652 434 1652 562 1652 c 2,9,-1
 728 1652 l 1,10,-1
 728 1458 l 1,11,-1
 604 1458 l 2,12,13
 564 1458 564 1458 541 1428 c 128,-1,14
 518 1398 518 1398 518 1344 c 2,15,-1
 518 980 l 2,16,17
 518 800 518 800 378 704 c 1,18,19
 518 616 518 616 518 438 c 2,20,-1
 518 74 l 2,21,22
 518 -44 518 -44 608 -44 c 2,23,-1
 728 -44 l 1,24,-1
 728 -240 l 1,25,-1
 562 -240 l 2,26,27
 440 -240 440 -240 361 -169 c 128,-1,28
 282 -98 282 -98 282 40 c 2,29,-1
 282 408 l 2,30,31
 282 494 282 494 255 554 c 128,-1,32
 228 614 228 614 178 614 c 2,33,-1
 116 614 l 1,0,-1
EndSplineSet
EndChar

StartChar: bar
Encoding: 124 124 95
Width: 588
GlyphClass: 2
Flags: W
LayerCount: 2
Fore
SplineSet
176 -312 m 1,0,-1
 176 1720 l 1,1,-1
 412 1720 l 1,2,-1
 412 -312 l 1,3,-1
 176 -312 l 1,0,-1
EndSplineSet
EndChar

StartChar: braceright
Encoding: 125 125 96
Width: 884
GlyphClass: 2
Flags: W
LayerCount: 2
Fore
SplineSet
158 -44 m 1,0,-1
 280 -44 l 2,1,2
 368 -44 368 -44 368 74 c 2,3,-1
 368 438 l 2,4,5
 368 612 368 612 510 706 c 1,6,7
 368 800 368 800 368 980 c 2,8,-1
 368 1344 l 2,9,10
 368 1398 368 1398 345 1428 c 128,-1,11
 322 1458 322 1458 282 1458 c 2,12,-1
 158 1458 l 1,13,-1
 158 1652 l 1,14,-1
 326 1652 l 2,15,16
 452 1652 452 1652 528 1579 c 128,-1,17
 604 1506 604 1506 604 1370 c 2,18,-1
 604 1010 l 2,19,20
 604 796 604 796 708 796 c 2,21,-1
 772 796 l 1,22,-1
 772 614 l 1,23,-1
 708 614 l 2,24,25
 656 614 656 614 630 554 c 128,-1,26
 604 494 604 494 604 408 c 2,27,-1
 604 40 l 2,28,29
 604 -98 604 -98 525 -169 c 128,-1,30
 446 -240 446 -240 326 -240 c 2,31,-1
 158 -240 l 1,32,-1
 158 -44 l 1,0,-1
EndSplineSet
EndChar

StartChar: asciitilde
Encoding: 126 126 97
Width: 1578
GlyphClass: 2
Flags: W
LayerCount: 2
Fore
SplineSet
126 600 m 1,0,1
 260 944 260 944 552 944 c 0,2,3
 634 944 634 944 707 904 c 128,-1,4
 780 864 780 864 824 817 c 128,-1,5
 868 770 868 770 922 730 c 128,-1,6
 976 690 976 690 1024 690 c 0,7,8
 1064 690 1064 690 1098 706 c 128,-1,9
 1132 722 1132 722 1153 740 c 128,-1,10
 1174 758 1174 758 1195 793 c 128,-1,11
 1216 828 1216 828 1225 848 c 128,-1,12
 1234 868 1234 868 1248 906 c 1,13,-1
 1454 816 l 1,14,15
 1324 470 1324 470 1032 470 c 0,16,17
 966 470 966 470 906 497 c 128,-1,18
 846 524 846 524 802 561 c 128,-1,19
 758 598 758 598 718 636 c 128,-1,20
 678 674 678 674 635 701 c 128,-1,21
 592 728 592 728 552 728 c 0,22,23
 416 728 416 728 330 512 c 1,24,-1
 126 600 l 1,0,1
EndSplineSet
EndChar

StartChar: exclamdown
Encoding: 161 161 99
Width: 620
GlyphClass: 2
Flags: W
LayerCount: 2
Fore
SplineSet
178 -406 m 1,0,-1
 196 654 l 1,1,-1
 426 654 l 1,2,-1
 440 -406 l 1,3,-1
 178 -406 l 1,0,-1
154 798 m 1,4,-1
 154 1080 l 1,5,-1
 468 1080 l 1,6,-1
 468 798 l 1,7,-1
 154 798 l 1,4,-1
EndSplineSet
EndChar

StartChar: cent
Encoding: 162 162 100
Width: 1030
GlyphClass: 2
Flags: W
LayerCount: 2
Fore
SplineSet
66 538 m 0,0,1
 66 748 66 748 166 901 c 128,-1,2
 266 1054 266 1054 446 1090 c 1,3,-1
 446 1246 l 1,4,-1
 660 1246 l 1,5,-1
 660 1092 l 1,6,7
 782 1064 782 1064 863 977 c 128,-1,8
 944 890 944 890 970 788 c 1,9,-1
 772 732 l 1,10,11
 746 802 746 802 695 854 c 128,-1,12
 644 906 644 906 568 906 c 0,13,14
 444 906 444 906 376 801 c 128,-1,15
 308 696 308 696 308 538 c 0,16,17
 308 370 308 370 378 269 c 128,-1,18
 448 168 448 168 566 168 c 0,19,20
 650 168 650 168 711 222 c 128,-1,21
 772 276 772 276 796 354 c 1,22,-1
 994 298 l 1,23,24
 966 194 966 194 880 103 c 128,-1,25
 794 12 794 12 660 -22 c 1,26,-1
 660 -186 l 1,27,-1
 446 -186 l 1,28,-1
 446 -18 l 1,29,30
 278 14 278 14 172 163 c 128,-1,31
 66 312 66 312 66 538 c 0,0,1
EndSplineSet
EndChar

StartChar: sterling
Encoding: 163 163 101
Width: 1204
GlyphClass: 2
Flags: W
LayerCount: 2
Fore
SplineSet
78 620 m 1,0,-1
 78 828 l 1,1,-1
 288 828 l 1,2,-1
 288 1122 l 2,3,4
 288 1306 288 1306 411 1405 c 128,-1,5
 534 1504 534 1504 740 1504 c 0,6,7
 876 1504 876 1504 980 1431 c 128,-1,8
 1084 1358 1084 1358 1132 1268 c 1,9,-1
 948 1174 l 1,10,11
 870 1290 870 1290 742 1290 c 0,12,13
 648 1290 648 1290 589 1242 c 128,-1,14
 530 1194 530 1194 530 1098 c 2,15,-1
 530 828 l 1,16,-1
 932 828 l 1,17,-1
 932 620 l 1,18,-1
 530 620 l 1,19,-1
 530 438 l 2,20,21
 530 290 530 290 476 230 c 1,22,23
 548 244 548 244 586 244 c 0,24,25
 644 244 644 244 737 209 c 128,-1,26
 830 174 830 174 900 174 c 0,27,28
 1010 174 1010 174 1124 234 c 1,29,-1
 1190 34 l 1,30,31
 1036 -34 1036 -34 898 -34 c 0,32,33
 830 -34 830 -34 700 1 c 128,-1,34
 570 36 570 36 508 36 c 0,35,36
 436 36 436 36 342 22 c 128,-1,37
 248 8 248 8 188 -8 c 2,38,-1
 128 -22 l 1,39,-1
 68 150 l 1,40,41
 288 200 288 200 288 426 c 2,42,-1
 288 620 l 1,43,-1
 78 620 l 1,0,-1
EndSplineSet
EndChar

StartChar: currency
Encoding: 164 164 102
Width: 1314
GlyphClass: 2
Flags: W
LayerCount: 2
Fore
SplineSet
42 298 m 1,0,-1
 262 500 l 1,1,2
 194 596 194 596 194 728 c 0,3,4
 194 864 194 864 260 958 c 1,5,-1
 42 1158 l 1,6,-1
 206 1312 l 1,7,-1
 412 1112 l 1,8,9
 532 1186 532 1186 658 1186 c 0,10,11
 778 1186 778 1186 904 1112 c 1,12,-1
 1110 1312 l 1,13,-1
 1272 1158 l 1,14,-1
 1056 958 l 1,15,16
 1122 868 1122 868 1122 728 c 0,17,18
 1122 596 1122 596 1054 500 c 1,19,-1
 1272 298 l 1,20,-1
 1110 144 l 1,21,-1
 904 344 l 1,22,23
 784 270 784 270 658 270 c 0,24,25
 528 270 528 270 412 344 c 1,26,-1
 206 144 l 1,27,-1
 42 298 l 1,0,-1
408 728 m 0,28,29
 408 626 408 626 478 553 c 128,-1,30
 548 480 548 480 658 480 c 256,31,32
 768 480 768 480 837 552 c 128,-1,33
 906 624 906 624 906 728 c 256,34,35
 906 832 906 832 836 904 c 128,-1,36
 766 976 766 976 658 976 c 0,37,38
 548 976 548 976 478 901 c 128,-1,39
 408 826 408 826 408 728 c 0,28,29
EndSplineSet
EndChar

StartChar: yen
Encoding: 165 165 103
Width: 1252
GlyphClass: 2
Flags: W
LayerCount: 2
Fore
SplineSet
-4 1470 m 1,0,-1
 276 1470 l 1,1,-1
 486 1126 l 2,2,3
 580 966 580 966 624 886 c 1,4,-1
 632 886 l 1,5,6
 652 924 652 924 675 964 c 128,-1,7
 698 1004 698 1004 727 1052 c 128,-1,8
 756 1100 756 1100 772 1126 c 2,9,-1
 980 1470 l 1,10,-1
 1262 1470 l 1,11,-1
 848 842 l 1,12,-1
 1132 842 l 1,13,-1
 1132 668 l 1,14,-1
 750 668 l 1,15,-1
 750 472 l 1,16,-1
 1132 472 l 1,17,-1
 1132 300 l 1,18,-1
 750 300 l 1,19,-1
 750 0 l 1,20,-1
 506 0 l 1,21,-1
 506 300 l 1,22,-1
 124 300 l 1,23,-1
 124 472 l 1,24,-1
 506 472 l 1,25,-1
 506 668 l 1,26,-1
 124 668 l 1,27,-1
 124 842 l 1,28,-1
 408 842 l 1,29,-1
 -4 1470 l 1,0,-1
EndSplineSet
EndChar

StartChar: brokenbar
Encoding: 166 166 104
Width: 588
GlyphClass: 2
Flags: W
LayerCount: 2
Fore
SplineSet
176 908 m 1,0,-1
 176 1720 l 1,1,-1
 412 1720 l 1,2,-1
 412 908 l 1,3,-1
 176 908 l 1,0,-1
176 -310 m 1,4,-1
 176 498 l 1,5,-1
 412 498 l 1,6,-1
 412 -310 l 1,7,-1
 176 -310 l 1,4,-1
EndSplineSet
EndChar

StartChar: section
Encoding: 167 167 105
Width: 1100
GlyphClass: 2
Flags: W
LayerCount: 2
Fore
SplineSet
76 108 m 1,0,-1
 234 226 l 1,1,2
 278 170 278 170 351 134 c 128,-1,3
 424 98 424 98 510 98 c 0,4,5
 694 98 694 98 694 198 c 0,6,7
 694 232 694 232 669 256 c 128,-1,8
 644 280 644 280 590 304 c 2,9,-1
 380 404 l 2,10,11
 114 522 114 522 114 718 c 0,12,13
 114 874 114 874 276 992 c 1,14,15
 166 1082 166 1082 166 1200 c 0,16,17
 166 1336 166 1336 274 1420 c 128,-1,18
 382 1504 382 1504 600 1504 c 0,19,20
 872 1504 872 1504 1024 1300 c 1,21,-1
 870 1176 l 1,22,23
 756 1300 756 1300 594 1300 c 0,24,25
 506 1300 506 1300 458 1273 c 128,-1,26
 410 1246 410 1246 410 1198 c 0,27,28
 410 1180 410 1180 417 1165 c 128,-1,29
 424 1150 424 1150 439 1135 c 128,-1,30
 454 1120 454 1120 469 1110 c 128,-1,31
 484 1100 484 1100 511 1086 c 128,-1,32
 538 1072 538 1072 559 1063 c 128,-1,33
 580 1054 580 1054 616 1039 c 128,-1,34
 652 1024 652 1024 674 1012 c 0,35,36
 840 936 840 936 896 892 c 0,37,38
 1018 798 1018 798 1018 652 c 0,39,40
 1018 494 1018 494 870 380 c 1,41,42
 938 300 938 300 938 198 c 0,43,44
 938 58 938 58 831 -25 c 128,-1,45
 724 -108 724 -108 510 -108 c 0,46,47
 368 -108 368 -108 249 -44 c 128,-1,48
 130 20 130 20 76 108 c 1,0,-1
360 724 m 0,49,50
 360 666 360 666 396 633 c 128,-1,51
 432 600 432 600 512 564 c 2,52,-1
 682 486 l 1,53,54
 774 568 774 568 774 652 c 0,55,56
 774 702 774 702 734 738 c 128,-1,57
 694 774 694 774 616 810 c 2,58,-1
 460 888 l 1,59,60
 360 814 360 814 360 724 c 0,49,50
EndSplineSet
EndChar

StartChar: dieresis
Encoding: 168 168 106
Width: 1030
GlyphClass: 2
Flags: W
LayerCount: 2
Fore
SplineSet
192 1210 m 1,0,-1
 192 1470 l 1,1,-1
 446 1470 l 1,2,-1
 446 1210 l 1,3,-1
 192 1210 l 1,0,-1
586 1210 m 1,4,-1
 586 1470 l 1,5,-1
 840 1470 l 1,6,-1
 840 1210 l 1,7,-1
 586 1210 l 1,4,-1
EndSplineSet
EndChar

StartChar: copyright
Encoding: 169 169 107
Width: 1706
GlyphClass: 2
Flags: W
LayerCount: 2
Fore
SplineSet
470 746 m 0,0,1
 470 966 470 966 583 1088 c 128,-1,2
 696 1210 696 1210 878 1210 c 0,3,4
 1012 1210 1012 1210 1095 1135 c 128,-1,5
 1178 1060 1178 1060 1210 952 c 1,6,-1
 1044 902 l 1,7,8
 984 1040 984 1040 880 1040 c 256,9,10
 776 1040 776 1040 723 964 c 128,-1,11
 670 888 670 888 670 746 c 0,12,13
 670 594 670 594 726 522 c 128,-1,14
 782 450 782 450 880 450 c 0,15,16
 948 450 948 450 995 494 c 128,-1,17
 1042 538 1042 538 1064 600 c 1,18,-1
 1230 552 l 1,19,20
 1200 436 1200 436 1108 358 c 128,-1,21
 1016 280 1016 280 878 280 c 0,22,23
 696 280 696 280 583 402 c 128,-1,24
 470 524 470 524 470 746 c 0,0,1
72 744 m 0,25,26
 72 1104 72 1104 294 1322 c 128,-1,27
 516 1540 516 1540 854 1540 c 0,28,29
 1194 1540 1194 1540 1415 1320 c 128,-1,30
 1636 1100 1636 1100 1636 744 c 0,31,32
 1636 392 1636 392 1415 171 c 128,-1,33
 1194 -50 1194 -50 854 -50 c 0,34,35
 516 -50 516 -50 294 166 c 128,-1,36
 72 382 72 382 72 744 c 0,25,26
248 744 m 256,37,38
 248 452 248 452 415 277 c 128,-1,39
 582 102 582 102 854 102 c 0,40,41
 1116 102 1116 102 1289 272 c 128,-1,42
 1462 442 1462 442 1462 744 c 0,43,44
 1462 1038 1462 1038 1292 1213 c 128,-1,45
 1122 1388 1122 1388 854 1388 c 0,46,47
 584 1388 584 1388 416 1212 c 128,-1,48
 248 1036 248 1036 248 744 c 256,37,38
EndSplineSet
EndChar

StartChar: ordfeminine
Encoding: 170 170 108
Width: 772
GlyphClass: 2
Flags: W
LayerCount: 2
Fore
SplineSet
58 570 m 1,0,-1
 58 722 l 1,1,-1
 716 722 l 1,2,-1
 716 570 l 1,3,-1
 58 570 l 1,0,-1
218 1072 m 0,4,5
 218 1032 218 1032 250 1004 c 128,-1,6
 282 976 282 976 336 976 c 0,7,8
 414 976 414 976 469 1028 c 128,-1,9
 524 1080 524 1080 524 1164 c 2,10,-1
 524 1234 l 1,11,12
 498 1228 498 1228 449 1219 c 128,-1,13
 400 1210 400 1210 375 1205 c 128,-1,14
 350 1200 350 1200 314 1188 c 128,-1,15
 278 1176 278 1176 261 1162 c 128,-1,16
 244 1148 244 1148 231 1125 c 128,-1,17
 218 1102 218 1102 218 1072 c 0,4,5
48 1060 m 0,18,19
 48 1134 48 1134 83 1186 c 128,-1,20
 118 1238 118 1238 180 1265 c 128,-1,21
 242 1292 242 1292 299 1307 c 128,-1,22
 356 1322 356 1322 427 1333 c 128,-1,23
 498 1344 498 1344 524 1352 c 1,24,-1
 524 1390 l 2,25,26
 524 1446 524 1446 484 1477 c 128,-1,27
 444 1508 444 1508 380 1508 c 0,28,29
 258 1508 258 1508 170 1404 c 1,30,-1
 66 1490 l 1,31,32
 116 1550 116 1550 200 1593 c 128,-1,33
 284 1636 284 1636 380 1636 c 0,34,35
 548 1636 548 1636 620 1556 c 128,-1,36
 692 1476 692 1476 692 1328 c 2,37,-1
 692 860 l 1,38,-1
 532 860 l 1,39,-1
 532 956 l 1,40,41
 460 838 460 838 314 838 c 0,42,43
 192 838 192 838 120 899 c 128,-1,44
 48 960 48 960 48 1060 c 0,18,19
EndSplineSet
EndChar

StartChar: guillemotleft
Encoding: 171 171 109
Width: 1038
GlyphClass: 2
Flags: W
LayerCount: 2
Fore
SplineSet
74 530 m 1,0,-1
 406 1022 l 1,1,-1
 576 908 l 1,2,-1
 328 530 l 1,3,-1
 572 156 l 1,4,-1
 406 40 l 1,5,-1
 74 530 l 1,0,-1
472 530 m 1,6,-1
 802 998 l 1,7,-1
 966 872 l 1,8,-1
 722 530 l 1,9,-1
 966 184 l 1,10,-1
 802 62 l 1,11,-1
 472 530 l 1,6,-1
EndSplineSet
EndChar

StartChar: logicalnot
Encoding: 172 172 110
Width: 1112
GlyphClass: 2
Flags: W
LayerCount: 2
Fore
SplineSet
92 590 m 1,0,-1
 92 800 l 1,1,-1
 1022 800 l 1,2,-1
 1022 238 l 1,3,-1
 798 238 l 1,4,-1
 798 590 l 1,5,-1
 92 590 l 1,0,-1
EndSplineSet
EndChar

StartChar: uni00AD
Encoding: 173 173 111
Width: 1128
GlyphClass: 2
Flags: W
LayerCount: 2
Fore
SplineSet
112 628 m 1,0,-1
 112 836 l 1,1,-1
 1016 836 l 1,2,-1
 1016 628 l 1,3,-1
 112 628 l 1,0,-1
EndSplineSet
EndChar

StartChar: registered
Encoding: 174 174 112
Width: 1706
GlyphClass: 2
Flags: W
LayerCount: 2
Fore
SplineSet
544 288 m 1,0,-1
 544 1190 l 1,1,-1
 916 1190 l 2,2,3
 1054 1190 1054 1190 1129 1112 c 128,-1,4
 1204 1034 1204 1034 1204 924 c 0,5,6
 1204 772 1204 772 1088 706 c 1,7,8
 1122 676 1122 676 1137 643 c 128,-1,9
 1152 610 1152 610 1166 550 c 0,10,11
 1188 452 1188 452 1274 288 c 1,12,-1
 1054 288 l 1,13,14
 994 374 994 374 962 532 c 0,15,16
 946 612 946 612 928 626 c 0,17,18
 912 642 912 642 886 642 c 2,19,-1
 744 642 l 1,20,-1
 744 288 l 1,21,-1
 544 288 l 1,0,-1
744 794 m 1,22,-1
 888 794 l 2,23,24
 942 794 942 794 972 824 c 128,-1,25
 1002 854 1002 854 1002 906 c 0,26,27
 1002 950 1002 950 971 981 c 128,-1,28
 940 1012 940 1012 888 1012 c 2,29,-1
 744 1012 l 1,30,-1
 744 794 l 1,22,-1
72 748 m 0,31,32
 72 1108 72 1108 294 1324 c 128,-1,33
 516 1540 516 1540 854 1540 c 0,34,35
 1194 1540 1194 1540 1415 1320 c 128,-1,36
 1636 1100 1636 1100 1636 748 c 0,37,38
 1636 394 1636 394 1416 172 c 128,-1,39
 1196 -50 1196 -50 854 -50 c 0,40,41
 518 -50 518 -50 295 168 c 128,-1,42
 72 386 72 386 72 748 c 0,31,32
248 748 m 0,43,44
 248 452 248 452 412 282 c 128,-1,45
 576 112 576 112 854 112 c 0,46,47
 1122 112 1122 112 1292 280 c 128,-1,48
 1462 448 1462 448 1462 748 c 0,49,50
 1462 1046 1462 1046 1291 1212 c 128,-1,51
 1120 1378 1120 1378 854 1378 c 0,52,53
 580 1378 580 1378 414 1208 c 128,-1,54
 248 1038 248 1038 248 748 c 0,43,44
EndSplineSet
EndChar

StartChar: macron
Encoding: 175 175 113
Width: 986
GlyphClass: 2
Flags: W
LayerCount: 2
Fore
SplineSet
6 1384 m 1,0,-1
 6 1590 l 1,1,-1
 984 1590 l 1,2,-1
 984 1384 l 1,3,-1
 6 1384 l 1,0,-1
EndSplineSet
EndChar

StartChar: degree
Encoding: 176 176 114
Width: 860
GlyphClass: 2
Flags: W
LayerCount: 2
Fore
SplineSet
164 1220 m 0,0,1
 164 1328 164 1328 240 1405 c 128,-1,2
 316 1482 316 1482 432 1482 c 0,3,4
 542 1482 542 1482 620 1408 c 128,-1,5
 698 1334 698 1334 698 1220 c 0,6,7
 698 1108 698 1108 619 1032 c 128,-1,8
 540 956 540 956 432 956 c 0,9,10
 320 956 320 956 242 1032 c 128,-1,11
 164 1108 164 1108 164 1220 c 0,0,1
316 1220 m 0,12,13
 316 1168 316 1168 348 1134 c 128,-1,14
 380 1100 380 1100 432 1100 c 0,15,16
 480 1100 480 1100 513 1134 c 128,-1,17
 546 1168 546 1168 546 1220 c 0,18,19
 546 1268 546 1268 514 1302 c 128,-1,20
 482 1336 482 1336 432 1336 c 0,21,22
 380 1336 380 1336 348 1302 c 128,-1,23
 316 1268 316 1268 316 1220 c 0,12,13
EndSplineSet
EndChar

StartChar: plusminus
Encoding: 177 177 115
Width: 1128
GlyphClass: 2
Flags: W
LayerCount: 2
Fore
SplineSet
76 798 m 1,0,-1
 76 1000 l 1,1,-1
 446 1000 l 1,2,-1
 446 1326 l 1,3,-1
 680 1326 l 1,4,-1
 680 1000 l 1,5,-1
 1050 1000 l 1,6,-1
 1050 798 l 1,7,-1
 680 798 l 1,8,-1
 680 478 l 1,9,-1
 446 478 l 1,10,-1
 446 798 l 1,11,-1
 76 798 l 1,0,-1
80 158 m 1,12,-1
 80 362 l 1,13,-1
 1048 362 l 1,14,-1
 1048 158 l 1,15,-1
 80 158 l 1,12,-1
EndSplineSet
EndChar

StartChar: twosuperior
Encoding: 178 178 116
Width: 658
GlyphClass: 2
Flags: W
LayerCount: 2
Fore
SplineSet
48 1388 m 1,0,1
 58 1428 58 1428 68 1453 c 128,-1,2
 78 1478 78 1478 108 1529 c 128,-1,3
 138 1580 138 1580 194 1609 c 128,-1,4
 250 1638 250 1638 328 1638 c 0,5,6
 448 1638 448 1638 523 1568 c 128,-1,7
 598 1498 598 1498 598 1382 c 0,8,9
 598 1260 598 1260 474 1132 c 0,10,11
 462 1118 462 1118 406 1064 c 128,-1,12
 350 1010 350 1010 318 974 c 128,-1,13
 286 938 286 938 264 898 c 1,14,-1
 596 898 l 1,15,-1
 596 754 l 1,16,-1
 58 754 l 1,17,18
 58 878 58 878 117 968 c 128,-1,19
 176 1058 176 1058 338 1212 c 0,20,21
 428 1296 428 1296 428 1384 c 0,22,23
 428 1436 428 1436 401 1465 c 128,-1,24
 374 1494 374 1494 328 1494 c 0,25,26
 228 1494 228 1494 192 1348 c 1,27,-1
 48 1388 l 1,0,1
EndSplineSet
EndChar

StartChar: threesuperior
Encoding: 179 179 117
Width: 658
GlyphClass: 2
Flags: W
LayerCount: 2
Fore
SplineSet
32 946 m 1,0,-1
 166 996 l 1,1,2
 218 878 218 878 318 878 c 0,3,4
 374 878 374 878 411 911 c 128,-1,5
 448 944 448 944 448 1008 c 0,6,7
 448 1064 448 1064 407 1098 c 128,-1,8
 366 1132 366 1132 302 1132 c 0,9,10
 242 1132 242 1132 212 1128 c 1,11,-1
 212 1272 l 1,12,13
 278 1268 278 1268 298 1268 c 0,14,15
 350 1268 350 1268 384 1298 c 128,-1,16
 418 1328 418 1328 418 1384 c 0,17,18
 418 1432 418 1432 388 1463 c 128,-1,19
 358 1494 358 1494 312 1494 c 0,20,21
 262 1494 262 1494 236 1462 c 128,-1,22
 210 1430 210 1430 190 1372 c 1,23,-1
 50 1414 l 1,24,25
 66 1484 66 1484 101 1531 c 128,-1,26
 136 1578 136 1578 178 1599 c 128,-1,27
 220 1620 220 1620 253 1628 c 128,-1,28
 286 1636 286 1636 320 1636 c 0,29,30
 442 1636 442 1636 516 1569 c 128,-1,31
 590 1502 590 1502 590 1400 c 0,32,33
 590 1276 590 1276 492 1210 c 1,34,35
 620 1144 620 1144 620 1008 c 0,36,37
 620 880 620 880 539 807 c 128,-1,38
 458 734 458 734 320 734 c 0,39,40
 220 734 220 734 141 789 c 128,-1,41
 62 844 62 844 32 946 c 1,0,-1
EndSplineSet
EndChar

StartChar: acute
Encoding: 180 180 118
Width: 764
GlyphClass: 2
Flags: W
LayerCount: 2
Fore
SplineSet
166 1294 m 1,0,-1
 378 1644 l 1,1,-1
 662 1644 l 1,2,-1
 364 1294 l 1,3,-1
 166 1294 l 1,0,-1
EndSplineSet
EndChar

StartChar: uni00B5
Encoding: 181 181 119
Width: 1130
GlyphClass: 2
Flags: W
LayerCount: 2
Fore
SplineSet
140 -438 m 1,0,-1
 140 1072 l 1,1,-1
 374 1072 l 1,2,-1
 374 418 l 2,3,4
 374 168 374 168 550 168 c 0,5,6
 658 168 658 168 716 259 c 128,-1,7
 774 350 774 350 774 472 c 2,8,-1
 774 1072 l 1,9,-1
 1010 1072 l 1,10,-1
 1010 0 l 1,11,-1
 784 0 l 1,12,-1
 784 120 l 1,13,-1
 782 120 l 1,14,15
 758 62 758 62 684 14 c 128,-1,16
 610 -34 610 -34 508 -34 c 0,17,18
 424 -34 424 -34 374 20 c 1,19,-1
 374 -438 l 1,20,-1
 140 -438 l 1,0,-1
EndSplineSet
EndChar

StartChar: paragraph
Encoding: 182 182 120
Width: 1266
GlyphClass: 2
Flags: W
LayerCount: 2
Fore
SplineSet
100 1096 m 0,0,1
 100 1298 100 1298 206 1420 c 128,-1,2
 312 1542 312 1542 512 1542 c 2,3,-1
 1106 1542 l 1,4,-1
 1106 -144 l 1,5,-1
 912 -144 l 1,6,-1
 912 1326 l 1,7,-1
 766 1326 l 1,8,-1
 766 -144 l 1,9,-1
 572 -144 l 1,10,-1
 572 644 l 1,11,12
 528 632 528 632 486 632 c 0,13,14
 322 632 322 632 211 752 c 128,-1,15
 100 872 100 872 100 1096 c 0,0,1
EndSplineSet
EndChar

StartChar: periodcentered
Encoding: 183 183 121
Width: 696
GlyphClass: 2
Flags: W
LayerCount: 2
Fore
SplineSet
194 564 m 1,0,-1
 194 850 l 1,1,-1
 506 850 l 1,2,-1
 506 564 l 1,3,-1
 194 564 l 1,0,-1
EndSplineSet
EndChar

StartChar: cedilla
Encoding: 184 184 122
Width: 618
GlyphClass: 2
Flags: W
LayerCount: 2
Fore
SplineSet
86 -266 m 1,0,1
 164 -282 164 -282 210 -282 c 0,2,3
 312 -282 312 -282 312 -228 c 0,4,5
 312 -160 312 -160 134 -150 c 1,6,-1
 248 80 l 1,7,-1
 454 80 l 1,8,-1
 394 -42 l 1,9,10
 532 -90 532 -90 532 -232 c 0,11,12
 532 -322 532 -322 462 -386 c 128,-1,13
 392 -450 392 -450 228 -450 c 0,14,15
 136 -450 136 -450 86 -434 c 1,16,-1
 86 -266 l 1,0,1
EndSplineSet
EndChar

StartChar: onesuperior
Encoding: 185 185 123
Width: 658
GlyphClass: 2
Flags: W
LayerCount: 2
Fore
SplineSet
88 1346 m 1,0,-1
 88 1480 l 1,1,-1
 138 1480 l 2,2,3
 296 1480 296 1480 296 1592 c 2,4,-1
 296 1626 l 1,5,-1
 446 1626 l 1,6,-1
 446 756 l 1,7,-1
 276 756 l 1,8,-1
 276 1346 l 1,9,-1
 88 1346 l 1,0,-1
EndSplineSet
EndChar

StartChar: ordmasculine
Encoding: 186 186 124
Width: 784
GlyphClass: 2
Flags: W
LayerCount: 2
Fore
SplineSet
216 1238 m 0,0,1
 216 1108 216 1108 269 1044 c 128,-1,2
 322 980 322 980 392 980 c 256,3,4
 462 980 462 980 516 1044 c 128,-1,5
 570 1108 570 1108 570 1238 c 0,6,7
 570 1370 570 1370 516 1433 c 128,-1,8
 462 1496 462 1496 392 1496 c 0,9,10
 320 1496 320 1496 268 1433 c 128,-1,11
 216 1370 216 1370 216 1238 c 0,0,1
44 1238 m 0,12,13
 44 1406 44 1406 133 1522 c 128,-1,14
 222 1638 222 1638 392 1638 c 256,15,16
 562 1638 562 1638 651 1522 c 128,-1,17
 740 1406 740 1406 740 1238 c 0,18,19
 740 1170 740 1170 723 1105 c 128,-1,20
 706 1040 706 1040 669 978 c 128,-1,21
 632 916 632 916 560 877 c 128,-1,22
 488 838 488 838 392 838 c 0,23,24
 298 838 298 838 226 875 c 128,-1,25
 154 912 154 912 117 974 c 128,-1,26
 80 1036 80 1036 62 1102 c 128,-1,27
 44 1168 44 1168 44 1238 c 0,12,13
58 582 m 1,28,-1
 58 730 l 1,29,-1
 728 730 l 1,30,-1
 728 582 l 1,31,-1
 58 582 l 1,28,-1
EndSplineSet
EndChar

StartChar: guillemotright
Encoding: 187 187 125
Width: 1036
GlyphClass: 2
Flags: W
LayerCount: 2
Fore
SplineSet
74 872 m 1,0,-1
 238 998 l 1,1,-1
 568 530 l 1,2,-1
 238 62 l 1,3,-1
 74 184 l 1,4,-1
 318 530 l 1,5,-1
 74 872 l 1,0,-1
468 158 m 1,6,-1
 714 530 l 1,7,-1
 464 908 l 1,8,-1
 636 1022 l 1,9,-1
 966 530 l 1,10,-1
 636 40 l 1,11,-1
 468 158 l 1,6,-1
EndSplineSet
EndChar

StartChar: onequarter
Encoding: 188 188 126
Width: 1950
GlyphClass: 3
Flags: W
LayerCount: 2
Fore
SplineSet
1328 282 m 1,0,-1
 1514 282 l 1,1,-1
 1514 480 l 2,2,3
 1514 496 1514 496 1515 540 c 128,-1,4
 1516 584 1516 584 1516 590 c 1,5,-1
 1458 490 l 1,6,-1
 1328 282 l 1,0,-1
124 1250 m 1,7,-1
 124 1416 l 1,8,-1
 192 1416 l 2,9,10
 364 1416 364 1416 364 1538 c 2,11,-1
 364 1586 l 1,12,-1
 546 1586 l 1,13,-1
 546 580 l 1,14,-1
 338 580 l 1,15,-1
 338 1250 l 1,16,-1
 124 1250 l 1,7,-1
336 -102 m 1,17,-1
 1276 1564 l 1,18,-1
 1498 1564 l 1,19,-1
 562 -102 l 1,20,-1
 336 -102 l 1,17,-1
1118 264 m 1,21,-1
 1548 914 l 1,22,-1
 1720 914 l 1,23,-1
 1720 282 l 1,24,-1
 1834 282 l 1,25,-1
 1834 106 l 1,26,-1
 1720 106 l 1,27,-1
 1720 -100 l 1,28,-1
 1514 -100 l 1,29,-1
 1514 106 l 1,30,-1
 1118 106 l 1,31,-1
 1118 264 l 1,21,-1
EndSplineSet
Ligature2: "'frac' Diagonal Fractions lookup 7 subtable" one fraction four
Ligature2: "'frac' Diagonal Fractions lookup 7 subtable" one slash four
EndChar

StartChar: onehalf
Encoding: 189 189 127
Width: 1950
GlyphClass: 3
Flags: W
LayerCount: 2
Fore
SplineSet
308 -102 m 1,0,-1
 1260 1564 l 1,1,-1
 1482 1564 l 1,2,-1
 536 -102 l 1,3,-1
 308 -102 l 1,0,-1
1152 630 m 1,4,5
 1218 924 1218 924 1480 924 c 0,6,7
 1616 924 1616 924 1705 844 c 128,-1,8
 1794 764 1794 764 1794 628 c 0,9,10
 1794 560 1794 560 1765 497 c 128,-1,11
 1736 434 1736 434 1703 395 c 128,-1,12
 1670 356 1670 356 1610 298 c 0,13,14
 1454 148 1454 148 1418 84 c 1,15,-1
 1792 84 l 1,16,-1
 1792 -92 l 1,17,-1
 1166 -92 l 1,18,19
 1166 46 1166 46 1228 149 c 128,-1,20
 1290 252 1290 252 1484 438 c 0,21,22
 1586 534 1586 534 1586 630 c 0,23,24
 1586 686 1586 686 1557 717 c 128,-1,25
 1528 748 1528 748 1478 748 c 0,26,27
 1446 748 1446 748 1421 734 c 128,-1,28
 1396 720 1396 720 1382 704 c 128,-1,29
 1368 688 1368 688 1356 658 c 128,-1,30
 1344 628 1344 628 1341 616 c 128,-1,31
 1338 604 1338 604 1330 576 c 1,32,-1
 1152 630 l 1,4,5
124 1250 m 1,33,-1
 124 1416 l 1,34,-1
 192 1416 l 2,35,36
 364 1416 364 1416 364 1538 c 2,37,-1
 364 1586 l 1,38,-1
 546 1586 l 1,39,-1
 546 580 l 1,40,-1
 338 580 l 1,41,-1
 338 1250 l 1,42,-1
 124 1250 l 1,33,-1
EndSplineSet
Ligature2: "'frac' Diagonal Fractions lookup 7 subtable" one fraction two
Ligature2: "'frac' Diagonal Fractions lookup 7 subtable" one slash two
EndChar

StartChar: threequarters
Encoding: 190 190 128
Width: 1950
GlyphClass: 3
Flags: W
LayerCount: 2
Fore
SplineSet
104 816 m 1,0,-1
 270 878 l 1,1,2
 328 742 328 742 440 742 c 0,3,4
 500 742 500 742 540 777 c 128,-1,5
 580 812 580 812 580 880 c 0,6,7
 580 942 580 942 535 979 c 128,-1,8
 490 1016 490 1016 420 1016 c 0,9,10
 362 1016 362 1016 310 1010 c 1,11,-1
 310 1190 l 1,12,13
 352 1186 352 1186 414 1186 c 0,14,15
 468 1186 468 1186 507 1218 c 128,-1,16
 546 1250 546 1250 546 1310 c 0,17,18
 546 1360 546 1360 515 1394 c 128,-1,19
 484 1428 484 1428 434 1428 c 0,20,21
 394 1428 394 1428 366 1404 c 128,-1,22
 338 1380 338 1380 325 1354 c 128,-1,23
 312 1328 312 1328 298 1286 c 1,24,-1
 126 1340 l 1,25,26
 160 1478 160 1478 249 1541 c 128,-1,27
 338 1604 338 1604 442 1604 c 0,28,29
 584 1604 584 1604 669 1525 c 128,-1,30
 754 1446 754 1446 754 1326 c 0,31,32
 754 1194 754 1194 648 1114 c 1,33,34
 790 1036 790 1036 790 880 c 0,35,36
 790 734 790 734 695 649 c 128,-1,37
 600 564 600 564 442 564 c 0,38,39
 334 564 334 564 239 623 c 128,-1,40
 144 682 144 682 104 816 c 1,0,-1
1128 264 m 1,41,-1
 1556 914 l 1,42,-1
 1728 914 l 1,43,-1
 1728 282 l 1,44,-1
 1844 282 l 1,45,-1
 1844 106 l 1,46,-1
 1728 106 l 1,47,-1
 1728 -100 l 1,48,-1
 1524 -100 l 1,49,-1
 1524 106 l 1,50,-1
 1128 106 l 1,51,-1
 1128 264 l 1,41,-1
1338 282 m 1,52,-1
 1524 282 l 1,53,-1
 1524 472 l 2,54,55
 1524 488 1524 488 1525 536 c 128,-1,56
 1526 584 1526 584 1526 590 c 1,57,-1
 1464 484 l 1,58,-1
 1338 282 l 1,52,-1
444 -102 m 1,59,-1
 1404 1564 l 1,60,-1
 1624 1564 l 1,61,-1
 670 -102 l 1,62,-1
 444 -102 l 1,59,-1
EndSplineSet
Ligature2: "'frac' Diagonal Fractions lookup 7 subtable" three fraction four
Ligature2: "'frac' Diagonal Fractions lookup 7 subtable" three slash four
EndChar

StartChar: questiondown
Encoding: 191 191 129
Width: 1142
GlyphClass: 2
Flags: W
LayerCount: 2
Fore
SplineSet
124 -22 m 0,0,1
 124 66 124 66 159 138 c 128,-1,2
 194 210 194 210 243 257 c 128,-1,3
 292 304 292 304 341 350 c 128,-1,4
 390 396 390 396 425 459 c 128,-1,5
 460 522 460 522 460 600 c 2,6,-1
 460 660 l 1,7,-1
 706 660 l 1,8,-1
 706 580 l 2,9,10
 706 486 706 486 673 412 c 128,-1,11
 640 338 640 338 591 289 c 128,-1,12
 542 240 542 240 493 195 c 128,-1,13
 444 150 444 150 411 93 c 128,-1,14
 378 36 378 36 378 -34 c 0,15,16
 378 -124 378 -124 427 -176 c 128,-1,17
 476 -228 476 -228 560 -228 c 0,18,19
 722 -228 722 -228 806 -10 c 1,20,-1
 1024 -82 l 1,21,22
 982 -234 982 -234 860 -336 c 128,-1,23
 738 -438 738 -438 562 -438 c 0,24,25
 368 -438 368 -438 246 -324 c 128,-1,26
 124 -210 124 -210 124 -22 c 0,0,1
424 800 m 1,27,-1
 424 1080 l 1,28,-1
 738 1080 l 1,29,-1
 738 800 l 1,30,-1
 424 800 l 1,27,-1
EndSplineSet
EndChar

StartChar: AE
Encoding: 198 198 136
Width: 1912
GlyphClass: 2
Flags: W
LayerCount: 2
Fore
SplineSet
540 562 m 1,0,-1
 922 562 l 1,1,-1
 922 1238 l 1,2,-1
 904 1238 l 1,3,-1
 540 562 l 1,0,-1
-10 0 m 1,4,-1
 778 1470 l 1,5,-1
 1836 1470 l 1,6,-1
 1836 1262 l 1,7,-1
 1166 1262 l 1,8,-1
 1166 862 l 1,9,-1
 1766 862 l 1,10,-1
 1766 656 l 1,11,-1
 1150 656 l 1,12,-1
 1150 208 l 1,13,-1
 1854 208 l 1,14,-1
 1854 0 l 1,15,-1
 922 0 l 1,16,-1
 922 364 l 1,17,-1
 442 364 l 1,18,-1
 250 0 l 1,19,-1
 -10 0 l 1,4,-1
EndSplineSet
EndChar

StartChar: multiply
Encoding: 215 215 153
Width: 1116
GlyphClass: 2
Flags: W
LayerCount: 2
Fore
SplineSet
70 408 m 1,0,-1
 410 730 l 1,1,-1
 70 1050 l 1,2,-1
 224 1198 l 1,3,-1
 558 874 l 1,4,-1
 890 1198 l 1,5,-1
 1042 1052 l 1,6,-1
 704 730 l 1,7,-1
 1042 406 l 1,8,-1
 890 260 l 1,9,-1
 558 586 l 1,10,-1
 224 260 l 1,11,-1
 70 408 l 1,0,-1
EndSplineSet
EndChar

StartChar: Oslash
Encoding: 216 216 154
Width: 1418
GlyphClass: 2
Flags: W
LayerCount: 2
Fore
SplineSet
78 734 m 0,0,1
 78 1080 78 1080 252 1292 c 128,-1,2
 426 1504 426 1504 710 1504 c 0,3,4
 866 1504 866 1504 990 1436 c 1,5,-1
 1066 1578 l 1,6,-1
 1272 1578 l 1,7,-1
 1138 1326 l 1,8,9
 1342 1114 1342 1114 1342 734 c 0,10,11
 1342 386 1342 386 1168 176 c 128,-1,12
 994 -34 994 -34 710 -34 c 0,13,14
 562 -34 562 -34 448 22 c 1,15,-1
 374 -116 l 1,16,-1
 172 -116 l 1,17,-1
 302 122 l 1,18,19
 78 336 78 336 78 734 c 0,0,1
1010 1098 m 1,20,-1
 554 214 l 1,21,22
 612 176 612 176 710 176 c 0,23,24
 884 176 884 176 986 325 c 128,-1,25
 1088 474 1088 474 1088 734 c 0,26,27
 1088 960 1088 960 1010 1098 c 1,20,-1
888 1244 m 1,28,29
 810 1294 810 1294 710 1294 c 0,30,31
 534 1294 534 1294 432 1142 c 128,-1,32
 330 990 330 990 330 734 c 0,33,34
 330 504 330 504 424 348 c 1,35,-1
 888 1244 l 1,28,29
EndSplineSet
EndChar

StartChar: Thorn
Encoding: 222 222 160
Width: 1168
GlyphClass: 2
Flags: W
LayerCount: 2
Fore
SplineSet
166 0 m 1,0,-1
 166 1470 l 1,1,-1
 408 1470 l 1,2,-1
 408 1232 l 1,3,-1
 556 1232 l 2,4,5
 706 1232 706 1232 816 1191 c 128,-1,6
 926 1150 926 1150 986 1080 c 128,-1,7
 1046 1010 1046 1010 1074 928 c 128,-1,8
 1102 846 1102 846 1102 750 c 0,9,10
 1102 510 1102 510 956 386 c 128,-1,11
 810 262 810 262 560 262 c 2,12,-1
 408 262 l 1,13,-1
 408 0 l 1,14,-1
 166 0 l 1,0,-1
408 472 m 1,15,-1
 538 472 l 2,16,17
 844 472 844 472 844 754 c 0,18,19
 844 1024 844 1024 538 1024 c 2,20,-1
 408 1024 l 1,21,-1
 408 472 l 1,15,-1
EndSplineSet
EndChar

StartChar: germandbls
Encoding: 223 223 161
Width: 1286
GlyphClass: 2
Flags: W
LayerCount: 2
Fore
SplineSet
166 0 m 1,0,-1
 166 1070 l 2,1,2
 166 1280 166 1280 297 1392 c 128,-1,3
 428 1504 428 1504 620 1504 c 0,4,5
 834 1504 834 1504 965 1396 c 128,-1,6
 1096 1288 1096 1288 1096 1102 c 0,7,8
 1096 896 1096 896 930 796 c 1,9,-1
 930 792 l 1,10,11
 1056 750 1056 750 1131 653 c 128,-1,12
 1206 556 1206 556 1206 404 c 0,13,14
 1206 200 1206 200 1082 83 c 128,-1,15
 958 -34 958 -34 742 -34 c 0,16,17
 606 -34 606 -34 492 2 c 1,18,-1
 496 218 l 1,19,20
 606 174 606 174 732 174 c 0,21,22
 824 174 824 174 889 240 c 128,-1,23
 954 306 954 306 954 406 c 0,24,25
 954 530 954 530 882 597 c 128,-1,26
 810 664 810 664 678 664 c 2,27,-1
 546 664 l 1,28,-1
 546 872 l 1,29,-1
 658 872 l 2,30,31
 738 872 738 872 791 929 c 128,-1,32
 844 986 844 986 844 1090 c 0,33,34
 844 1180 844 1180 785 1237 c 128,-1,35
 726 1294 726 1294 628 1294 c 0,36,37
 526 1294 526 1294 468 1229 c 128,-1,38
 410 1164 410 1164 410 1052 c 2,39,-1
 410 0 l 1,40,-1
 166 0 l 1,0,-1
EndSplineSet
EndChar

StartChar: ae
Encoding: 230 230 168
Width: 1776
GlyphClass: 2
Flags: W
LayerCount: 2
Fore
SplineSet
66 286 m 0,0,1
 66 434 66 434 184 527 c 128,-1,2
 302 620 302 620 534 654 c 0,3,4
 682 676 682 676 746 694 c 1,5,-1
 746 756 l 2,6,7
 746 826 746 826 688 873 c 128,-1,8
 630 920 630 920 544 920 c 0,9,10
 368 920 368 920 234 774 c 1,11,-1
 92 896 l 1,12,13
 264 1104 264 1104 544 1104 c 0,14,15
 786 1104 786 1104 894 946 c 1,16,17
 1020 1104 1020 1104 1236 1104 c 0,18,19
 1440 1104 1440 1104 1577 948 c 128,-1,20
 1714 792 1714 792 1714 546 c 0,21,22
 1714 494 1714 494 1712 456 c 1,23,-1
 976 456 l 1,24,-1
 976 428 l 1,25,26
 984 324 984 324 1050 240 c 128,-1,27
 1116 156 1116 156 1242 156 c 0,28,29
 1414 156 1414 156 1502 312 c 1,30,-1
 1694 246 l 1,31,32
 1642 126 1642 126 1526 46 c 128,-1,33
 1410 -34 1410 -34 1240 -34 c 0,34,35
 1110 -34 1110 -34 1007 25 c 128,-1,36
 904 84 904 84 840 186 c 1,37,38
 680 -34 680 -34 442 -34 c 0,39,40
 268 -34 268 -34 167 55 c 128,-1,41
 66 144 66 144 66 286 c 0,0,1
302 302 m 0,42,43
 302 246 302 246 349 204 c 128,-1,44
 396 162 396 162 472 162 c 0,45,46
 586 162 586 162 666 238 c 128,-1,47
 746 314 746 314 746 428 c 2,48,-1
 746 530 l 1,49,50
 616 502 616 502 556 492 c 0,51,52
 302 458 302 458 302 302 c 0,42,43
976 620 m 1,53,-1
 1476 620 l 1,54,55
 1476 624 1476 624 1476 628 c 0,56,57
 1476 748 1476 748 1408 832 c 128,-1,58
 1340 916 1340 916 1238 916 c 0,59,60
 1128 916 1128 916 1064 845 c 128,-1,61
 1000 774 1000 774 980 664 c 1,62,-1
 976 620 l 1,53,-1
EndSplineSet
EndChar

StartChar: eth
Encoding: 240 240 178
Width: 1116
GlyphClass: 2
Flags: W
LayerCount: 2
Fore
SplineSet
66 462 m 0,0,1
 66 698 66 698 198 839 c 128,-1,2
 330 980 330 980 540 980 c 0,3,4
 620 980 620 980 686 951 c 128,-1,5
 752 922 752 922 780 886 c 1,6,7
 742 1050 742 1050 622 1170 c 1,8,-1
 424 1024 l 1,9,-1
 286 1172 l 1,10,-1
 450 1294 l 1,11,12
 362 1338 362 1338 260 1354 c 1,13,-1
 344 1544 l 1,14,15
 446 1528 446 1528 540 1492 c 0,16,17
 592 1472 592 1472 646 1438 c 1,18,-1
 850 1590 l 1,19,-1
 984 1438 l 1,20,-1
 810 1308 l 1,21,22
 856 1260 856 1260 894 1202 c 0,23,24
 962 1096 962 1096 1007 929 c 128,-1,25
 1052 762 1052 762 1052 554 c 0,26,27
 1052 290 1052 290 919 128 c 128,-1,28
 786 -34 786 -34 546 -34 c 0,29,30
 328 -34 328 -34 197 106 c 128,-1,31
 66 246 66 246 66 462 c 0,0,1
308 474 m 0,32,33
 308 338 308 338 374 253 c 128,-1,34
 440 168 440 168 554 168 c 0,35,36
 662 168 662 168 727 250 c 128,-1,37
 792 332 792 332 792 474 c 0,38,39
 792 610 792 610 726 693 c 128,-1,40
 660 776 660 776 552 776 c 256,41,42
 444 776 444 776 376 695 c 128,-1,43
 308 614 308 614 308 474 c 0,32,33
EndSplineSet
EndChar

StartChar: divide
Encoding: 247 247 185
Width: 1116
GlyphClass: 2
Flags: W
LayerCount: 2
Fore
SplineSet
414 978 m 1,0,-1
 414 1248 l 1,1,-1
 696 1248 l 1,2,-1
 696 978 l 1,3,-1
 414 978 l 1,0,-1
54 620 m 1,4,-1
 54 828 l 1,5,-1
 1062 828 l 1,6,-1
 1062 620 l 1,7,-1
 54 620 l 1,4,-1
414 198 m 1,8,-1
 414 472 l 1,9,-1
 696 472 l 1,10,-1
 696 198 l 1,11,-1
 414 198 l 1,8,-1
EndSplineSet
EndChar

StartChar: oslash
Encoding: 248 248 186
Width: 1122
GlyphClass: 2
Flags: W
LayerCount: 2
Fore
SplineSet
66 536 m 0,0,1
 66 774 66 774 193 939 c 128,-1,2
 320 1104 320 1104 564 1104 c 0,3,4
 676 1104 676 1104 770 1064 c 1,5,-1
 842 1200 l 1,6,-1
 1022 1200 l 1,7,-1
 902 974 l 1,8,9
 1056 820 1056 820 1056 536 c 0,10,11
 1056 460 1056 460 1043 386 c 128,-1,12
 1030 312 1030 312 994 235 c 128,-1,13
 958 158 958 158 905 99 c 128,-1,14
 852 40 852 40 763 3 c 128,-1,15
 674 -34 674 -34 564 -34 c 256,16,17
 454 -34 454 -34 364 2 c 1,18,-1
 302 -114 l 1,19,-1
 122 -114 l 1,20,-1
 230 88 l 1,21,22
 66 246 66 246 66 536 c 0,0,1
772 746 m 1,23,-1
 466 190 l 1,24,25
 512 168 512 168 564 168 c 0,26,27
 664 168 664 168 740 259 c 128,-1,28
 816 350 816 350 816 536 c 0,29,30
 816 662 816 662 772 746 c 1,23,-1
670 876 m 1,31,32
 618 906 618 906 564 906 c 0,33,34
 462 906 462 906 385 815 c 128,-1,35
 308 724 308 724 308 536 c 0,36,37
 308 404 308 404 358 312 c 1,38,-1
 670 876 l 1,31,32
EndSplineSet
EndChar

StartChar: thorn
Encoding: 254 254 192
Width: 1180
GlyphClass: 2
Flags: W
LayerCount: 2
Fore
SplineSet
382 538 m 0,0,1
 382 368 382 368 450 268 c 128,-1,2
 518 168 518 168 626 168 c 0,3,4
 742 168 742 168 808 264 c 128,-1,5
 874 360 874 360 874 538 c 0,6,7
 874 708 874 708 809 807 c 128,-1,8
 744 906 744 906 626 906 c 0,9,10
 518 906 518 906 450 805 c 128,-1,11
 382 704 382 704 382 538 c 0,0,1
152 -438 m 1,12,-1
 152 1518 l 1,13,-1
 386 1518 l 1,14,-1
 386 944 l 1,15,16
 414 1012 414 1012 491 1058 c 128,-1,17
 568 1104 568 1104 658 1104 c 0,18,19
 858 1104 858 1104 987 952 c 128,-1,20
 1116 800 1116 800 1116 538 c 0,21,22
 1116 388 1116 388 1075 275 c 128,-1,23
 1034 162 1034 162 966 97 c 128,-1,24
 898 32 898 32 820 -1 c 128,-1,25
 742 -34 742 -34 658 -34 c 0,26,27
 554 -34 554 -34 484 15 c 128,-1,28
 414 64 414 64 386 122 c 1,29,-1
 386 -438 l 1,30,-1
 152 -438 l 1,12,-1
EndSplineSet
EndChar

StartChar: dcroat
Encoding: 273 273 211
Width: 1168
GlyphClass: 2
Flags: W
LayerCount: 2
Fore
SplineSet
66 528 m 0,0,1
 66 796 66 796 197 941 c 128,-1,2
 328 1086 328 1086 520 1086 c 0,3,4
 616 1086 616 1086 688 1042 c 128,-1,5
 760 998 760 998 796 938 c 1,6,-1
 796 1186 l 1,7,-1
 382 1186 l 1,8,-1
 382 1366 l 1,9,-1
 796 1366 l 1,10,-1
 796 1518 l 1,11,-1
 1030 1518 l 1,12,-1
 1030 1366 l 1,13,-1
 1144 1366 l 1,14,-1
 1144 1186 l 1,15,-1
 1030 1186 l 1,16,-1
 1030 0 l 1,17,-1
 800 0 l 1,18,-1
 800 140 l 1,19,20
 760 64 760 64 688 15 c 128,-1,21
 616 -34 616 -34 520 -34 c 0,22,23
 332 -34 332 -34 199 109 c 128,-1,24
 66 252 66 252 66 528 c 0,0,1
308 528 m 0,25,26
 308 354 308 354 378 261 c 128,-1,27
 448 168 448 168 556 168 c 256,28,29
 664 168 664 168 732 266 c 128,-1,30
 800 364 800 364 800 528 c 0,31,32
 800 686 800 686 732 785 c 128,-1,33
 664 884 664 884 554 884 c 0,34,35
 446 884 446 884 377 787 c 128,-1,36
 308 690 308 690 308 528 c 0,25,26
EndSplineSet
EndChar

StartChar: uni0123
Encoding: 291 291 229
Width: 1142
GlyphClass: 2
Flags: W
LayerCount: 2
Fore
SplineSet
414 1248 m 1,0,-1
 594 1626 l 1,1,-1
 754 1626 l 1,2,-1
 670 1248 l 1,3,-1
 414 1248 l 1,0,-1
312 558 m 0,4,5
 312 392 312 392 377 301 c 128,-1,6
 442 210 442 210 544 210 c 0,7,8
 652 210 652 210 714 299 c 128,-1,9
 776 388 776 388 776 558 c 0,10,11
 776 722 776 722 713 814 c 128,-1,12
 650 906 650 906 546 906 c 0,13,14
 440 906 440 906 376 813 c 128,-1,15
 312 720 312 720 312 558 c 0,4,5
72 556 m 0,16,17
 72 806 72 806 197 955 c 128,-1,18
 322 1104 322 1104 514 1104 c 0,19,20
 616 1104 616 1104 683 1056 c 128,-1,21
 750 1008 750 1008 778 948 c 1,22,-1
 778 1072 l 1,23,-1
 1012 1072 l 1,24,-1
 1012 148 l 2,25,26
 1012 -154 1012 -154 894 -300 c 128,-1,27
 776 -446 776 -446 530 -446 c 0,28,29
 404 -446 404 -446 293 -392 c 128,-1,30
 182 -338 182 -338 112 -238 c 1,31,-1
 268 -130 l 1,32,33
 374 -256 374 -256 536 -256 c 0,34,35
 642 -256 642 -256 705 -179 c 128,-1,36
 768 -102 768 -102 774 24 c 0,37,38
 780 136 780 136 780 148 c 1,39,40
 746 88 746 88 675 49 c 128,-1,41
 604 10 604 10 524 10 c 0,42,43
 324 10 324 10 198 159 c 128,-1,44
 72 308 72 308 72 556 c 0,16,17
EndSplineSet
EndChar

StartChar: Hbar
Encoding: 294 294 232
Width: 1410
GlyphClass: 2
Flags: W
LayerCount: 2
Fore
SplineSet
20 1090 m 1,0,-1
 20 1284 l 1,1,-1
 166 1284 l 1,2,-1
 166 1470 l 1,3,-1
 408 1470 l 1,4,-1
 408 1284 l 1,5,-1
 1004 1284 l 1,6,-1
 1004 1470 l 1,7,-1
 1246 1470 l 1,8,-1
 1246 1284 l 1,9,-1
 1394 1284 l 1,10,-1
 1394 1090 l 1,11,-1
 1246 1090 l 1,12,-1
 1246 0 l 1,13,-1
 1004 0 l 1,14,-1
 1004 652 l 1,15,-1
 408 652 l 1,16,-1
 408 0 l 1,17,-1
 166 0 l 1,18,-1
 166 1090 l 1,19,-1
 20 1090 l 1,0,-1
1004 1090 m 1,20,-1
 408 1090 l 1,21,-1
 408 858 l 1,22,-1
 1004 858 l 1,23,-1
 1004 1090 l 1,20,-1
EndSplineSet
EndChar

StartChar: hbar
Encoding: 295 295 233
Width: 1128
GlyphClass: 2
Flags: W
LayerCount: 2
Fore
SplineSet
8 1188 m 1,0,-1
 8 1366 l 1,1,-1
 140 1366 l 1,2,-1
 140 1518 l 1,3,-1
 372 1518 l 1,4,-1
 372 1366 l 1,5,-1
 762 1366 l 1,6,-1
 762 1188 l 1,7,-1
 372 1188 l 1,8,-1
 372 914 l 1,9,-1
 374 914 l 1,10,11
 414 972 414 972 489 1015 c 128,-1,12
 564 1058 564 1058 652 1058 c 0,13,14
 716 1058 716 1058 773 1039 c 128,-1,15
 830 1020 830 1020 887 977 c 128,-1,16
 944 934 944 934 978 848 c 128,-1,17
 1012 762 1012 762 1012 642 c 2,18,-1
 1012 0 l 1,19,-1
 776 0 l 1,20,-1
 776 614 l 2,21,22
 776 854 776 854 608 854 c 0,23,24
 508 854 508 854 440 767 c 128,-1,25
 372 680 372 680 372 564 c 2,26,-1
 372 0 l 1,27,-1
 140 0 l 1,28,-1
 140 1188 l 1,29,-1
 8 1188 l 1,0,-1
EndSplineSet
EndChar

StartChar: dotlessi
Encoding: 305 305 243
Width: 516
GlyphClass: 2
Flags: W
LayerCount: 2
Fore
SplineSet
142 0 m 1,0,-1
 142 1072 l 1,1,-1
 376 1072 l 1,2,-1
 376 0 l 1,3,-1
 142 0 l 1,0,-1
EndSplineSet
EndChar

StartChar: kgreenlandic
Encoding: 312 312 250
Width: 1072
GlyphClass: 2
Flags: W
LayerCount: 2
Fore
SplineSet
140 0 m 1,0,-1
 140 1072 l 1,1,-1
 372 1072 l 1,2,-1
 372 676 l 1,3,-1
 378 676 l 1,4,-1
 788 1072 l 1,5,-1
 1086 1072 l 1,6,-1
 584 588 l 1,7,-1
 1092 0 l 1,8,-1
 812 0 l 1,9,-1
 434 418 l 1,10,-1
 372 354 l 1,11,-1
 372 0 l 1,12,-1
 140 0 l 1,0,-1
EndSplineSet
EndChar

StartChar: Lslash
Encoding: 321 321 259
Width: 1094
GlyphClass: 2
Flags: W
LayerCount: 2
Fore
SplineSet
410 672 m 1,0,-1
 410 208 l 1,1,-1
 1076 208 l 1,2,-1
 1076 0 l 1,3,-1
 166 0 l 1,4,-1
 166 522 l 1,5,-1
 -4 414 l 1,6,-1
 -116 592 l 1,7,-1
 166 770 l 1,8,-1
 166 1470 l 1,9,-1
 410 1470 l 1,10,-1
 410 920 l 1,11,-1
 616 1052 l 1,12,-1
 728 874 l 1,13,-1
 410 672 l 1,0,-1
EndSplineSet
EndChar

StartChar: lslash
Encoding: 322 322 260
Width: 530
GlyphClass: 2
Flags: W
LayerCount: 2
Fore
SplineSet
384 704 m 1,0,-1
 384 0 l 1,1,-1
 148 0 l 1,2,-1
 148 564 l 1,3,-1
 -18 462 l 1,4,-1
 -130 644 l 1,5,-1
 148 812 l 1,6,-1
 148 1518 l 1,7,-1
 384 1518 l 1,8,-1
 384 954 l 1,9,-1
 552 1054 l 1,10,-1
 660 874 l 1,11,-1
 384 704 l 1,0,-1
EndSplineSet
EndChar

StartChar: Eng
Encoding: 330 330 268
Width: 1420
GlyphClass: 2
Flags: W
LayerCount: 2
Fore
SplineSet
166 0 m 1,0,-1
 166 1470 l 1,1,-1
 422 1470 l 1,2,-1
 898 612 l 1,3,-1
 1030 364 l 1,4,-1
 1038 364 l 1,5,6
 1012 540 1012 540 1012 780 c 2,7,-1
 1012 1470 l 1,8,-1
 1256 1470 l 1,9,-1
 1256 30 l 2,10,11
 1256 -198 1256 -198 1154 -315 c 128,-1,12
 1052 -432 1052 -432 878 -432 c 0,13,14
 820 -432 820 -432 670 -410 c 1,15,-1
 670 -206 l 1,16,17
 770 -224 770 -224 826 -224 c 0,18,19
 920 -224 920 -224 958 -173 c 128,-1,20
 996 -122 996 -122 1002 -4 c 1,21,-1
 516 864 l 1,22,-1
 392 1102 l 1,23,-1
 382 1102 l 1,24,25
 410 870 410 870 410 702 c 2,26,-1
 410 0 l 1,27,-1
 166 0 l 1,0,-1
EndSplineSet
EndChar

StartChar: eng
Encoding: 331 331 269
Width: 1118
GlyphClass: 2
Flags: W
LayerCount: 2
Fore
SplineSet
128 0 m 1,0,-1
 128 1072 l 1,1,-1
 354 1072 l 1,2,-1
 354 938 l 1,3,-1
 356 938 l 1,4,5
 394 1006 394 1006 471 1055 c 128,-1,6
 548 1104 548 1104 654 1104 c 0,7,8
 1004 1104 1004 1104 1004 690 c 2,9,-1
 1004 16 l 2,10,11
 1004 -110 1004 -110 970 -205 c 128,-1,12
 936 -300 936 -300 881 -350 c 128,-1,13
 826 -400 826 -400 764 -423 c 128,-1,14
 702 -446 702 -446 634 -446 c 0,15,16
 598 -446 598 -446 563 -442 c 128,-1,17
 528 -438 528 -438 491 -432 c 128,-1,18
 454 -426 454 -426 446 -424 c 1,19,-1
 446 -222 l 1,20,21
 546 -238 546 -238 594 -238 c 0,22,23
 686 -238 686 -238 728 -183 c 128,-1,24
 770 -128 770 -128 770 -14 c 2,25,-1
 770 658 l 2,26,27
 770 906 770 906 602 906 c 0,28,29
 502 906 502 906 433 823 c 128,-1,30
 364 740 364 740 364 620 c 2,31,-1
 364 0 l 1,32,-1
 128 0 l 1,0,-1
EndSplineSet
EndChar

StartChar: OE
Encoding: 338 338 276
Width: 1948
GlyphClass: 2
Flags: W
LayerCount: 2
Fore
SplineSet
78 734 m 256,0,1
 78 1082 78 1082 256 1293 c 128,-1,2
 434 1504 434 1504 720 1504 c 0,3,4
 846 1504 846 1504 926 1470 c 1,5,-1
 1868 1470 l 1,6,-1
 1868 1260 l 1,7,-1
 1160 1260 l 1,8,-1
 1160 862 l 1,9,-1
 1798 862 l 1,10,-1
 1798 656 l 1,11,-1
 1160 656 l 1,12,-1
 1160 208 l 1,13,-1
 1888 208 l 1,14,-1
 1888 0 l 1,15,-1
 930 0 l 1,16,17
 832 -34 832 -34 720 -34 c 0,18,19
 430 -34 430 -34 254 176 c 128,-1,20
 78 386 78 386 78 734 c 256,0,1
330 734 m 0,21,22
 330 478 330 478 436 326 c 128,-1,23
 542 174 542 174 720 174 c 0,24,25
 830 174 830 174 914 242 c 1,26,-1
 914 1224 l 1,27,28
 834 1294 834 1294 720 1294 c 0,29,30
 538 1294 538 1294 434 1141 c 128,-1,31
 330 988 330 988 330 734 c 0,21,22
EndSplineSet
EndChar

StartChar: uni0163
Encoding: 355 355 293
Width: 736
GlyphClass: 2
Flags: W
LayerCount: 2
Fore
SplineSet
34 872 m 1,0,-1
 34 1072 l 1,1,-1
 198 1072 l 1,2,-1
 198 1390 l 1,3,-1
 434 1390 l 1,4,-1
 434 1072 l 1,5,-1
 678 1072 l 1,6,-1
 678 872 l 1,7,-1
 434 872 l 1,8,-1
 434 344 l 2,9,10
 434 268 434 268 464 234 c 128,-1,11
 494 200 494 200 558 200 c 2,12,-1
 680 200 l 1,13,-1
 680 0 l 1,14,-1
 562 0 l 1,15,-1
 546 -62 l 1,16,17
 624 -76 624 -76 667 -121 c 128,-1,18
 710 -166 710 -166 710 -232 c 0,19,20
 710 -314 710 -314 639 -374 c 128,-1,21
 568 -434 568 -434 412 -434 c 0,22,23
 320 -434 320 -434 238 -414 c 1,24,-1
 238 -270 l 1,25,26
 328 -288 328 -288 406 -288 c 0,27,28
 526 -288 526 -288 526 -218 c 0,29,30
 526 -150 526 -150 318 -142 c 1,31,-1
 360 30 l 1,32,33
 198 98 198 98 198 328 c 2,34,-1
 198 872 l 1,35,-1
 34 872 l 1,0,-1
EndSplineSet
Substitution2: "'locl' Localized Forms in Latin lookup 3 subtable" uni021B
Substitution2: "'locl' Localized Forms in Latin lookup 2 subtable" uni021B
Substitution2: "'aalt' Access All Alternates lookup 0 subtable" uni021B
EndChar

StartChar: tbar
Encoding: 359 359 297
Width: 736
GlyphClass: 2
Flags: W
LayerCount: 2
Fore
SplineSet
34 872 m 1,0,-1
 34 1072 l 1,1,-1
 198 1072 l 1,2,-1
 198 1390 l 1,3,-1
 434 1390 l 1,4,-1
 434 1072 l 1,5,-1
 678 1072 l 1,6,-1
 678 872 l 1,7,-1
 434 872 l 1,8,-1
 434 722 l 1,9,-1
 678 722 l 1,10,-1
 678 528 l 1,11,-1
 434 528 l 1,12,-1
 434 344 l 2,13,14
 434 268 434 268 464 234 c 128,-1,15
 494 200 494 200 558 200 c 2,16,-1
 680 200 l 1,17,-1
 680 0 l 1,18,-1
 528 0 l 2,19,20
 198 0 198 0 198 328 c 2,21,-1
 198 528 l 1,22,-1
 10 528 l 1,23,-1
 10 722 l 1,24,-1
 198 722 l 1,25,-1
 198 872 l 1,26,-1
 34 872 l 1,0,-1
EndSplineSet
EndChar

StartChar: longs
Encoding: 383 383 321
Width: 624
GlyphClass: 2
Flags: W
LayerCount: 2
Fore
SplineSet
148 0 m 1,0,-1
 148 1188 l 2,1,2
 148 1352 148 1352 230 1435 c 128,-1,3
 312 1518 312 1518 462 1518 c 2,4,-1
 626 1518 l 1,5,-1
 626 1318 l 1,6,-1
 510 1318 l 2,7,8
 446 1318 446 1318 414 1282 c 128,-1,9
 382 1246 382 1246 382 1164 c 2,10,-1
 382 0 l 1,11,-1
 148 0 l 1,0,-1
EndSplineSet
EndChar

StartChar: uni0180
Encoding: 384 384 322
Width: 1168
GlyphClass: 2
Flags: W
LayerCount: 2
Fore
SplineSet
370 530 m 0,0,1
 370 364 370 364 439 266 c 128,-1,2
 508 168 508 168 616 168 c 256,3,4
 724 168 724 168 792 262 c 128,-1,5
 860 356 860 356 860 530 c 0,6,7
 860 694 860 694 793 792 c 128,-1,8
 726 890 726 890 616 890 c 0,9,10
 508 890 508 890 439 791 c 128,-1,11
 370 692 370 692 370 530 c 0,0,1
10 1186 m 1,12,-1
 10 1368 l 1,13,-1
 140 1368 l 1,14,-1
 140 1518 l 1,15,-1
 374 1518 l 1,16,-1
 374 1368 l 1,17,-1
 756 1368 l 1,18,-1
 756 1186 l 1,19,-1
 374 1186 l 1,20,-1
 374 934 l 1,21,22
 414 996 414 996 486 1043 c 128,-1,23
 558 1090 558 1090 650 1090 c 0,24,25
 850 1090 850 1090 976 940 c 128,-1,26
 1102 790 1102 790 1102 530 c 0,27,28
 1102 382 1102 382 1060 270 c 128,-1,29
 1018 158 1018 158 950 94 c 128,-1,30
 882 30 882 30 806 -2 c 128,-1,31
 730 -34 730 -34 652 -34 c 0,32,33
 554 -34 554 -34 478 17 c 128,-1,34
 402 68 402 68 368 138 c 1,35,-1
 368 0 l 1,36,-1
 140 0 l 1,37,-1
 140 1186 l 1,38,-1
 10 1186 l 1,12,-1
EndSplineSet
EndChar

StartChar: uni0182
Encoding: 386 386 324
Width: 1314
GlyphClass: 2
Flags: W
LayerCount: 2
Fore
SplineSet
410 208 m 1,0,-1
 748 208 l 2,1,2
 850 208 850 208 918 263 c 128,-1,3
 986 318 986 318 986 428 c 0,4,5
 986 522 986 522 922 589 c 128,-1,6
 858 656 858 656 744 656 c 2,7,-1
 410 656 l 1,8,-1
 410 208 l 1,0,-1
166 0 m 1,9,-1
 166 1470 l 1,10,-1
 1070 1470 l 1,11,-1
 1070 1260 l 1,12,-1
 410 1260 l 1,13,-1
 410 862 l 1,14,-1
 762 862 l 2,15,16
 990 862 990 862 1116 739 c 128,-1,17
 1242 616 1242 616 1242 428 c 0,18,19
 1242 246 1242 246 1118 123 c 128,-1,20
 994 0 994 0 782 0 c 2,21,-1
 166 0 l 1,9,-1
EndSplineSet
EndChar

StartChar: uni0183
Encoding: 387 387 325
Width: 1168
GlyphClass: 2
Flags: W
LayerCount: 2
Fore
SplineSet
370 538 m 0,0,1
 370 364 370 364 438 266 c 128,-1,2
 506 168 506 168 616 168 c 0,3,4
 724 168 724 168 792 264 c 128,-1,5
 860 360 860 360 860 538 c 0,6,7
 860 708 860 708 794 807 c 128,-1,8
 728 906 728 906 616 906 c 0,9,10
 506 906 506 906 438 804 c 128,-1,11
 370 702 370 702 370 538 c 0,0,1
140 0 m 1,12,-1
 140 1504 l 1,13,-1
 912 1504 l 1,14,-1
 912 1304 l 1,15,-1
 374 1304 l 1,16,-1
 374 952 l 1,17,18
 400 1002 400 1002 473 1053 c 128,-1,19
 546 1104 546 1104 650 1104 c 0,20,21
 850 1104 850 1104 976 952 c 128,-1,22
 1102 800 1102 800 1102 538 c 0,23,24
 1102 390 1102 390 1061 275 c 128,-1,25
 1020 160 1020 160 953 96 c 128,-1,26
 886 32 886 32 809 -1 c 128,-1,27
 732 -34 732 -34 652 -34 c 0,28,29
 554 -34 554 -34 477 18 c 128,-1,30
 400 70 400 70 368 138 c 1,31,-1
 368 0 l 1,32,-1
 140 0 l 1,12,-1
EndSplineSet
EndChar

StartChar: uni0184
Encoding: 388 388 326
Width: 1322
GlyphClass: 2
Flags: W
LayerCount: 2
Fore
SplineSet
-10 1326 m 1,0,-1
 274 1470 l 1,1,-1
 410 1470 l 1,2,-1
 410 858 l 1,3,-1
 768 858 l 2,4,5
 996 858 996 858 1121 736 c 128,-1,6
 1246 614 1246 614 1246 428 c 0,7,8
 1246 250 1246 250 1125 125 c 128,-1,9
 1004 0 1004 0 794 0 c 2,10,-1
 166 0 l 1,11,-1
 166 1188 l 1,12,-1
 -10 1326 l 1,0,-1
410 208 m 1,13,-1
 752 208 l 2,14,15
 854 208 854 208 924 264 c 128,-1,16
 994 320 994 320 994 428 c 0,17,18
 994 520 994 520 931 586 c 128,-1,19
 868 652 868 652 750 652 c 2,20,-1
 410 652 l 1,21,-1
 410 208 l 1,13,-1
EndSplineSet
EndChar

StartChar: uni0185
Encoding: 389 389 327
Width: 1168
GlyphClass: 2
Flags: W
LayerCount: 2
Fore
SplineSet
-22 1370 m 1,0,-1
 246 1518 l 1,1,-1
 374 1518 l 1,2,-1
 374 954 l 1,3,4
 404 1016 404 1016 483 1060 c 128,-1,5
 562 1104 562 1104 650 1104 c 0,6,7
 852 1104 852 1104 977 952 c 128,-1,8
 1102 800 1102 800 1102 538 c 0,9,10
 1102 256 1102 256 966 111 c 128,-1,11
 830 -34 830 -34 652 -34 c 0,12,13
 556 -34 556 -34 481 16 c 128,-1,14
 406 66 406 66 368 138 c 1,15,-1
 368 0 l 1,16,-1
 140 0 l 1,17,-1
 140 1234 l 1,18,-1
 -22 1370 l 1,0,-1
370 538 m 0,19,20
 370 364 370 364 439 266 c 128,-1,21
 508 168 508 168 616 168 c 0,22,23
 728 168 728 168 794 265 c 128,-1,24
 860 362 860 362 860 538 c 0,25,26
 860 704 860 704 796 805 c 128,-1,27
 732 906 732 906 616 906 c 0,28,29
 506 906 506 906 438 806 c 128,-1,30
 370 706 370 706 370 538 c 0,19,20
EndSplineSet
EndChar

StartChar: uni0186
Encoding: 390 390 328
Width: 1326
GlyphClass: 2
Flags: W
LayerCount: 2
Fore
SplineSet
40 352 m 1,0,-1
 260 420 l 1,1,2
 302 320 302 320 392 248 c 128,-1,3
 482 176 482 176 598 176 c 0,4,5
 778 176 778 176 887 328 c 128,-1,6
 996 480 996 480 996 736 c 0,7,8
 996 990 996 990 888 1142 c 128,-1,9
 780 1294 780 1294 598 1294 c 0,10,11
 406 1294 406 1294 288 1080 c 1,12,-1
 78 1148 l 1,13,14
 144 1300 144 1300 276 1402 c 128,-1,15
 408 1504 408 1504 596 1504 c 0,16,17
 884 1504 884 1504 1066 1297 c 128,-1,18
 1248 1090 1248 1090 1248 736 c 0,19,20
 1248 378 1248 378 1064 172 c 128,-1,21
 880 -34 880 -34 596 -34 c 0,22,23
 484 -34 484 -34 386 3 c 128,-1,24
 288 40 288 40 222 100 c 128,-1,25
 156 160 156 160 112 222 c 128,-1,26
 68 284 68 284 40 352 c 1,0,-1
EndSplineSet
EndChar

StartChar: uni018B
Encoding: 395 395 333
Width: 1314
GlyphClass: 2
Flags: W
LayerCount: 2
Fore
SplineSet
328 428 m 0,0,1
 328 320 328 320 397 264 c 128,-1,2
 466 208 466 208 566 208 c 2,3,-1
 906 208 l 1,4,-1
 906 656 l 1,5,-1
 574 656 l 2,6,7
 460 656 460 656 394 589 c 128,-1,8
 328 522 328 522 328 428 c 0,0,1
74 428 m 0,9,10
 74 616 74 616 200 739 c 128,-1,11
 326 862 326 862 554 862 c 2,12,-1
 906 862 l 1,13,-1
 906 1260 l 1,14,-1
 246 1260 l 1,15,-1
 246 1470 l 1,16,-1
 1150 1470 l 1,17,-1
 1150 0 l 1,18,-1
 532 0 l 2,19,20
 322 0 322 0 198 123 c 128,-1,21
 74 246 74 246 74 428 c 0,9,10
EndSplineSet
EndChar

StartChar: uni018C
Encoding: 396 396 334
Width: 1168
GlyphClass: 2
Flags: W
LayerCount: 2
Fore
SplineSet
308 538 m 0,0,1
 308 358 308 358 377 263 c 128,-1,2
 446 168 446 168 556 168 c 256,3,4
 666 168 666 168 732 268 c 128,-1,5
 798 368 798 368 798 538 c 0,6,7
 798 702 798 702 732 804 c 128,-1,8
 666 906 666 906 554 906 c 0,9,10
 440 906 440 906 374 808 c 128,-1,11
 308 710 308 710 308 538 c 0,0,1
66 538 m 0,12,13
 66 800 66 800 195 952 c 128,-1,14
 324 1104 324 1104 522 1104 c 0,15,16
 628 1104 628 1104 700 1054 c 128,-1,17
 772 1004 772 1004 796 954 c 1,18,-1
 796 1320 l 1,19,-1
 250 1320 l 1,20,-1
 250 1518 l 1,21,-1
 1030 1518 l 1,22,-1
 1030 0 l 1,23,-1
 800 0 l 1,24,-1
 800 138 l 1,25,26
 766 70 766 70 692 18 c 128,-1,27
 618 -34 618 -34 518 -34 c 0,28,29
 434 -34 434 -34 358 -1 c 128,-1,30
 282 32 282 32 214 97 c 128,-1,31
 146 162 146 162 106 275 c 128,-1,32
 66 388 66 388 66 538 c 0,12,13
EndSplineSet
EndChar

StartChar: uni018D
Encoding: 397 397 335
Width: 1218
GlyphClass: 2
Flags: W
LayerCount: 2
Fore
SplineSet
308 642 m 0,0,1
 308 530 308 530 398 438 c 128,-1,2
 488 346 488 346 624 288 c 1,3,4
 750 348 750 348 830 440 c 128,-1,5
 910 532 910 532 910 638 c 0,6,7
 910 752 910 752 834 829 c 128,-1,8
 758 906 758 906 618 906 c 0,9,10
 476 906 476 906 392 831 c 128,-1,11
 308 756 308 756 308 642 c 0,0,1
66 634 m 0,12,13
 66 858 66 858 215 981 c 128,-1,14
 364 1104 364 1104 620 1104 c 0,15,16
 872 1104 872 1104 1012 977 c 128,-1,17
 1152 850 1152 850 1152 646 c 0,18,19
 1152 516 1152 516 1067 391 c 128,-1,20
 982 266 982 266 824 186 c 1,21,22
 1010 72 1010 72 1010 -94 c 0,23,24
 1010 -256 1010 -256 886 -345 c 128,-1,25
 762 -434 762 -434 564 -434 c 0,26,27
 396 -434 396 -434 277 -364 c 128,-1,28
 158 -294 158 -294 94 -180 c 1,29,-1
 266 -86 l 1,30,31
 308 -146 308 -146 386 -190 c 128,-1,32
 464 -234 464 -234 562 -234 c 0,33,34
 656 -234 656 -234 714 -197 c 128,-1,35
 772 -160 772 -160 772 -100 c 0,36,37
 772 -72 772 -72 751 -44 c 128,-1,38
 730 -16 730 -16 678 16 c 128,-1,39
 626 48 626 48 592 67 c 128,-1,40
 558 86 558 86 478 126 c 0,41,42
 66 330 66 330 66 634 c 0,12,13
EndSplineSet
EndChar

StartChar: uni018E
Encoding: 398 398 336
Width: 1206
GlyphClass: 2
Flags: W
LayerCount: 2
Fore
SplineSet
70 0 m 1,0,-1
 70 208 l 1,1,-1
 800 208 l 1,2,-1
 800 656 l 1,3,-1
 150 656 l 1,4,-1
 150 862 l 1,5,-1
 800 862 l 1,6,-1
 800 1260 l 1,7,-1
 68 1260 l 1,8,-1
 68 1470 l 1,9,-1
 1044 1470 l 1,10,-1
 1044 0 l 1,11,-1
 70 0 l 1,0,-1
EndSplineSet
EndChar

StartChar: uni018F
Encoding: 399 399 337
Width: 1412
GlyphClass: 2
Flags: W
LayerCount: 2
Fore
SplineSet
74 718 m 0,0,1
 74 788 74 788 80 844 c 1,2,-1
 1076 844 l 1,3,4
 1058 1060 1058 1060 955 1177 c 128,-1,5
 852 1294 852 1294 690 1294 c 0,6,7
 464 1294 464 1294 324 1086 c 1,8,-1
 116 1168 l 1,9,10
 198 1332 198 1332 348 1418 c 128,-1,11
 498 1504 498 1504 694 1504 c 0,12,13
 998 1504 998 1504 1168 1288 c 128,-1,14
 1338 1072 1338 1072 1338 732 c 0,15,16
 1338 390 1338 390 1158 178 c 128,-1,17
 978 -34 978 -34 696 -34 c 0,18,19
 410 -34 410 -34 242 173 c 128,-1,20
 74 380 74 380 74 718 c 0,0,1
332 634 m 1,21,22
 332 610 332 610 334 598 c 0,23,24
 350 422 350 422 440 298 c 128,-1,25
 530 174 530 174 698 174 c 0,26,27
 852 174 852 174 961 297 c 128,-1,28
 1070 420 1070 420 1078 634 c 1,29,-1
 332 634 l 1,21,22
EndSplineSet
EndChar

StartChar: uni0190
Encoding: 400 400 338
Width: 1220
GlyphClass: 2
Flags: W
LayerCount: 2
Fore
SplineSet
82 416 m 0,0,1
 82 558 82 558 164 649 c 128,-1,2
 246 740 246 740 352 774 c 1,3,4
 264 820 264 820 201 911 c 128,-1,5
 138 1002 138 1002 138 1114 c 0,6,7
 138 1288 138 1288 271 1396 c 128,-1,8
 404 1504 404 1504 616 1504 c 0,9,10
 732 1504 732 1504 827 1468 c 128,-1,11
 922 1432 922 1432 980 1375 c 128,-1,12
 1038 1318 1038 1318 1073 1263 c 128,-1,13
 1108 1208 1108 1208 1126 1154 c 1,14,-1
 920 1090 l 1,15,16
 818 1302 818 1302 630 1302 c 0,17,18
 524 1302 524 1302 456 1242 c 128,-1,19
 388 1182 388 1182 388 1090 c 0,20,21
 388 984 388 984 476 920 c 128,-1,22
 564 856 564 856 670 856 c 256,23,24
 776 856 776 856 826 860 c 1,25,-1
 826 660 l 1,26,27
 722 668 722 668 668 668 c 0,28,29
 530 668 530 668 432 600 c 128,-1,30
 334 532 334 532 334 418 c 0,31,32
 334 296 334 296 423 232 c 128,-1,33
 512 168 512 168 638 168 c 0,34,35
 734 168 734 168 828 227 c 128,-1,36
 922 286 922 286 964 368 c 1,37,-1
 1162 296 l 1,38,39
 1100 142 1100 142 959 54 c 128,-1,40
 818 -34 818 -34 626 -34 c 0,41,42
 380 -34 380 -34 231 88 c 128,-1,43
 82 210 82 210 82 416 c 0,0,1
EndSplineSet
EndChar

StartChar: uni0191
Encoding: 401 401 339
Width: 1138
GlyphClass: 2
Flags: W
LayerCount: 2
Fore
SplineSet
-86 -226 m 1,0,1
 -22 -238 -22 -238 16 -238 c 0,2,3
 92 -238 92 -238 129 -184 c 128,-1,4
 166 -130 166 -130 166 -14 c 2,5,-1
 166 1470 l 1,6,-1
 1102 1470 l 1,7,-1
 1102 1260 l 1,8,-1
 408 1260 l 1,9,-1
 408 840 l 1,10,-1
 1030 840 l 1,11,-1
 1030 634 l 1,12,-1
 408 634 l 1,13,-1
 408 -14 l 2,14,15
 408 -138 408 -138 378 -226 c 128,-1,16
 348 -314 348 -314 295 -360 c 128,-1,17
 242 -406 242 -406 185 -426 c 128,-1,18
 128 -446 128 -446 66 -446 c 0,19,20
 14 -446 14 -446 -86 -432 c 1,21,-1
 -86 -226 l 1,0,1
EndSplineSet
EndChar

StartChar: florin
Encoding: 402 402 340
Width: 694
GlyphClass: 2
Flags: W
LayerCount: 2
Fore
SplineSet
-46 -226 m 1,0,1
 16 -238 16 -238 58 -238 c 0,2,3
 208 -238 208 -238 208 -12 c 2,4,-1
 208 872 l 1,5,-1
 44 872 l 1,6,-1
 44 1072 l 1,7,-1
 208 1072 l 1,8,-1
 208 1188 l 2,9,10
 208 1352 208 1352 290 1435 c 128,-1,11
 372 1518 372 1518 522 1518 c 2,12,-1
 694 1518 l 1,13,-1
 694 1320 l 1,14,-1
 558 1320 l 2,15,16
 444 1320 444 1320 444 1170 c 2,17,-1
 444 1072 l 1,18,-1
 670 1072 l 1,19,-1
 670 872 l 1,20,-1
 444 872 l 1,21,-1
 444 -12 l 2,22,23
 444 -246 444 -246 346 -346 c 128,-1,24
 248 -446 248 -446 106 -446 c 0,25,26
 52 -446 52 -446 -46 -432 c 1,27,-1
 -46 -226 l 1,0,1
EndSplineSet
EndChar

StartChar: uni0194
Encoding: 404 404 342
Width: 1272
GlyphClass: 2
Flags: W
LayerCount: 2
Fore
SplineSet
2 1470 m 1,0,-1
 264 1470 l 1,1,-1
 636 374 l 1,2,-1
 640 374 l 1,3,-1
 1008 1470 l 1,4,-1
 1272 1470 l 1,5,-1
 822 258 l 1,6,7
 996 44 996 44 996 -118 c 0,8,9
 996 -260 996 -260 894 -353 c 128,-1,10
 792 -446 792 -446 636 -446 c 0,11,12
 476 -446 476 -446 373 -357 c 128,-1,13
 270 -268 270 -268 270 -118 c 0,14,15
 270 -66 270 -66 286 -13 c 128,-1,16
 302 40 302 40 340 100 c 128,-1,17
 378 160 378 160 393 181 c 128,-1,18
 408 202 408 202 452 258 c 1,19,-1
 2 1470 l 1,0,-1
514 -108 m 0,20,21
 514 -170 514 -170 548 -210 c 128,-1,22
 582 -250 582 -250 636 -250 c 256,23,24
 690 -250 690 -250 722 -210 c 128,-1,25
 754 -170 754 -170 754 -106 c 0,26,27
 754 2 754 2 634 136 c 1,28,29
 514 14 514 14 514 -108 c 0,20,21
EndSplineSet
EndChar

StartChar: uni0195
Encoding: 405 405 343
Width: 1764
GlyphClass: 2
Flags: W
LayerCount: 2
Fore
SplineSet
140 0 m 1,0,-1
 140 1518 l 1,1,-1
 374 1518 l 1,2,-1
 374 962 l 1,3,-1
 376 962 l 1,4,5
 420 1026 420 1026 493 1065 c 128,-1,6
 566 1104 566 1104 654 1104 c 0,7,8
 722 1104 722 1104 780 1085 c 128,-1,9
 838 1066 838 1066 894 1024 c 128,-1,10
 950 982 950 982 981 896 c 128,-1,11
 1012 810 1012 810 1012 690 c 2,12,-1
 1012 390 l 2,13,14
 1012 168 1012 168 1218 168 c 0,15,16
 1410 168 1410 168 1410 392 c 2,17,-1
 1410 1072 l 1,18,-1
 1648 1072 l 1,19,-1
 1648 354 l 2,20,21
 1648 158 1648 158 1526 62 c 128,-1,22
 1404 -34 1404 -34 1218 -34 c 0,23,24
 1130 -34 1130 -34 1057 -16 c 128,-1,25
 984 2 984 2 919 43 c 128,-1,26
 854 84 854 84 816 162 c 128,-1,27
 778 240 778 240 778 348 c 2,28,-1
 778 660 l 2,29,30
 778 906 778 906 612 906 c 0,31,32
 512 906 512 906 443 818 c 128,-1,33
 374 730 374 730 374 614 c 2,34,-1
 374 0 l 1,35,-1
 140 0 l 1,0,-1
EndSplineSet
EndChar

StartChar: uni0196
Encoding: 406 406 344
Width: 716
GlyphClass: 2
Flags: W
LayerCount: 2
Fore
SplineSet
168 328 m 2,0,-1
 168 1470 l 1,1,-1
 410 1470 l 1,2,-1
 410 338 l 2,3,4
 410 252 410 252 440 213 c 128,-1,5
 470 174 470 174 538 174 c 0,6,7
 620 174 620 174 690 188 c 1,8,-1
 690 -16 l 1,9,10
 572 -34 572 -34 490 -34 c 0,11,12
 350 -34 350 -34 259 52 c 128,-1,13
 168 138 168 138 168 328 c 2,0,-1
EndSplineSet
EndChar

StartChar: uni0197
Encoding: 407 407 345
Width: 574
GlyphClass: 2
Flags: W
LayerCount: 2
Fore
SplineSet
28 644 m 1,0,-1
 28 834 l 1,1,-1
 166 834 l 1,2,-1
 166 1470 l 1,3,-1
 410 1470 l 1,4,-1
 410 834 l 1,5,-1
 550 834 l 1,6,-1
 550 644 l 1,7,-1
 410 644 l 1,8,-1
 410 0 l 1,9,-1
 166 0 l 1,10,-1
 166 644 l 1,11,-1
 28 644 l 1,0,-1
EndSplineSet
EndChar

StartChar: uni0198
Encoding: 408 408 346
Width: 1300
GlyphClass: 2
Flags: W
LayerCount: 2
Fore
SplineSet
166 0 m 1,0,-1
 166 1470 l 1,1,-1
 410 1470 l 1,2,-1
 410 804 l 1,3,-1
 414 804 l 1,4,-1
 896 1362 l 2,5,6
 1018 1504 1018 1504 1212 1504 c 0,7,8
 1320 1504 1320 1504 1394 1482 c 1,9,-1
 1394 1272 l 1,10,11
 1322 1294 1322 1294 1220 1294 c 0,12,13
 1140 1294 1140 1294 1098 1246 c 2,14,-1
 726 828 l 1,15,-1
 1310 0 l 1,16,-1
 1014 0 l 1,17,-1
 572 654 l 1,18,-1
 410 470 l 1,19,-1
 410 0 l 1,20,-1
 166 0 l 1,0,-1
EndSplineSet
EndChar

StartChar: uni0199
Encoding: 409 409 347
Width: 1056
GlyphClass: 2
Flags: W
LayerCount: 2
Fore
SplineSet
142 0 m 1,0,-1
 142 1234 l 2,1,2
 142 1400 142 1400 242 1486 c 128,-1,3
 342 1572 342 1572 502 1572 c 0,4,5
 542 1572 542 1572 686 1562 c 1,6,-1
 686 1356 l 1,7,8
 588 1366 588 1366 546 1366 c 0,9,10
 474 1366 474 1366 425 1319 c 128,-1,11
 376 1272 376 1272 376 1190 c 2,12,-1
 376 644 l 1,13,-1
 756 1072 l 1,14,-1
 1052 1072 l 1,15,-1
 654 636 l 1,16,-1
 1076 0 l 1,17,-1
 800 0 l 1,18,-1
 504 470 l 1,19,-1
 376 328 l 1,20,-1
 376 0 l 1,21,-1
 142 0 l 1,0,-1
EndSplineSet
EndChar

StartChar: uni019A
Encoding: 410 410 348
Width: 530
GlyphClass: 2
Flags: W
LayerCount: 2
Fore
SplineSet
-10 744 m 1,0,-1
 -10 936 l 1,1,-1
 148 936 l 1,2,-1
 148 1518 l 1,3,-1
 384 1518 l 1,4,-1
 384 936 l 1,5,-1
 542 936 l 1,6,-1
 542 744 l 1,7,-1
 384 744 l 1,8,-1
 384 0 l 1,9,-1
 148 0 l 1,10,-1
 148 744 l 1,11,-1
 -10 744 l 1,0,-1
EndSplineSet
EndChar

StartChar: uni019B
Encoding: 411 411 349
Width: 1036
GlyphClass: 2
Flags: W
LayerCount: 2
Fore
SplineSet
12 0 m 1,0,-1
 412 1046 l 1,1,-1
 396 1094 l 1,2,-1
 178 930 l 1,3,-1
 66 1076 l 1,4,-1
 304 1250 l 1,5,6
 260 1312 260 1312 158 1312 c 2,7,-1
 118 1312 l 1,8,-1
 118 1510 l 1,9,-1
 196 1510 l 2,10,11
 382 1510 382 1510 486 1380 c 1,12,-1
 682 1522 l 1,13,-1
 794 1378 l 1,14,-1
 578 1224 l 1,15,-1
 588 1202 l 1,16,-1
 1028 0 l 1,17,-1
 770 0 l 1,18,-1
 602 548 l 2,19,20
 546 736 546 736 532 798 c 1,21,-1
 526 798 l 1,22,23
 506 712 506 712 456 548 c 2,24,-1
 272 0 l 1,25,-1
 12 0 l 1,0,-1
EndSplineSet
EndChar

StartChar: uni019C
Encoding: 412 412 350
Width: 1920
GlyphClass: 2
Flags: W
LayerCount: 2
Fore
SplineSet
164 498 m 2,0,-1
 164 1470 l 1,1,-1
 406 1470 l 1,2,-1
 406 470 l 2,3,4
 406 174 406 174 584 174 c 0,5,6
 694 174 694 174 766 281 c 128,-1,7
 838 388 838 388 838 536 c 2,8,-1
 838 1470 l 1,9,-1
 1084 1470 l 1,10,-1
 1084 462 l 2,11,12
 1084 308 1084 308 1135 241 c 128,-1,13
 1186 174 1186 174 1262 174 c 0,14,15
 1378 174 1378 174 1445 274 c 128,-1,16
 1512 374 1512 374 1512 532 c 2,17,-1
 1512 1470 l 1,18,-1
 1756 1470 l 1,19,-1
 1756 0 l 1,20,-1
 1524 0 l 1,21,-1
 1524 142 l 1,22,-1
 1520 142 l 1,23,24
 1476 62 1476 62 1389 13 c 128,-1,25
 1302 -36 1302 -36 1208 -36 c 0,26,27
 972 -36 972 -36 898 174 c 1,28,29
 854 86 854 86 761 26 c 128,-1,30
 668 -34 668 -34 530 -34 c 0,31,32
 424 -34 424 -34 350 6 c 128,-1,33
 276 46 276 46 236 122 c 128,-1,34
 196 198 196 198 180 289 c 128,-1,35
 164 380 164 380 164 498 c 2,0,-1
EndSplineSet
EndChar

StartChar: uni019D
Encoding: 413 413 351
Width: 1420
GlyphClass: 2
Flags: W
LayerCount: 2
Fore
SplineSet
166 1470 m 1,0,-1
 422 1470 l 1,1,-1
 898 612 l 1,2,-1
 1028 364 l 1,3,-1
 1036 364 l 1,4,5
 1010 650 1010 650 1010 788 c 2,6,-1
 1010 1470 l 1,7,-1
 1256 1470 l 1,8,-1
 1256 0 l 1,9,-1
 1000 0 l 1,10,-1
 524 848 l 1,11,-1
 392 1102 l 1,12,-1
 382 1102 l 1,13,14
 410 862 410 862 410 678 c 2,15,-1
 410 -2 l 2,16,17
 410 -238 410 -238 308 -342 c 128,-1,18
 206 -446 206 -446 62 -446 c 0,19,20
 -12 -446 -12 -446 -82 -432 c 1,21,-1
 -82 -226 l 1,22,23
 -46 -236 -46 -236 14 -236 c 0,24,25
 94 -236 94 -236 130 -179 c 128,-1,26
 166 -122 166 -122 166 0 c 2,27,-1
 166 1470 l 1,0,-1
EndSplineSet
EndChar

StartChar: uni019E
Encoding: 414 414 352
Width: 1142
GlyphClass: 2
Flags: W
LayerCount: 2
Fore
SplineSet
128 0 m 1,0,-1
 128 1072 l 1,1,-1
 354 1072 l 1,2,-1
 354 940 l 1,3,-1
 358 940 l 1,4,5
 448 1104 448 1104 654 1104 c 0,6,7
 1004 1104 1004 1104 1004 690 c 2,8,-1
 1004 -438 l 1,9,-1
 770 -438 l 1,10,-1
 770 660 l 2,11,12
 770 906 770 906 602 906 c 0,13,14
 502 906 502 906 433 823 c 128,-1,15
 364 740 364 740 364 620 c 2,16,-1
 364 0 l 1,17,-1
 128 0 l 1,0,-1
EndSplineSet
EndChar

StartChar: uni019F
Encoding: 415 415 353
Width: 1418
GlyphClass: 2
Flags: W
LayerCount: 2
Fore
SplineSet
78 734 m 0,0,1
 78 1080 78 1080 251 1292 c 128,-1,2
 424 1504 424 1504 710 1504 c 256,3,4
 996 1504 996 1504 1169 1293 c 128,-1,5
 1342 1082 1342 1082 1342 734 c 256,6,7
 1342 386 1342 386 1168 176 c 128,-1,8
 994 -34 994 -34 710 -34 c 0,9,10
 424 -34 424 -34 251 175 c 128,-1,11
 78 384 78 384 78 734 c 0,0,1
1082 630 m 1,12,-1
 336 630 l 1,13,14
 356 416 356 416 454 296 c 128,-1,15
 552 176 552 176 710 176 c 0,16,17
 866 176 866 176 965 297 c 128,-1,18
 1064 418 1064 418 1082 630 c 1,12,-1
334 822 m 1,19,-1
 1084 822 l 1,20,21
 1064 1040 1064 1040 968 1167 c 128,-1,22
 872 1294 872 1294 710 1294 c 256,23,24
 548 1294 548 1294 450 1168 c 128,-1,25
 352 1042 352 1042 334 822 c 1,19,-1
EndSplineSet
EndChar

StartChar: uni01A2
Encoding: 418 418 356
Width: 1928
GlyphClass: 2
Flags: W
LayerCount: 2
Fore
SplineSet
78 730 m 0,0,1
 78 1082 78 1082 252 1293 c 128,-1,2
 426 1504 426 1504 704 1504 c 0,3,4
 780 1504 780 1504 983 1464 c 128,-1,5
 1186 1424 1186 1424 1302 1424 c 0,6,7
 1504 1424 1504 1424 1764 1470 c 1,8,-1
 1764 0 l 1,9,-1
 1522 0 l 1,10,-1
 1522 1232 l 1,11,12
 1426 1214 1426 1214 1300 1214 c 0,13,14
 1220 1214 1220 1214 1112 1230 c 1,15,-1
 1112 122 l 1,16,17
 946 -34 946 -34 704 -34 c 0,18,19
 426 -34 426 -34 252 176 c 128,-1,20
 78 386 78 386 78 730 c 0,0,1
330 730 m 0,21,22
 330 474 330 474 432 324 c 128,-1,23
 534 174 534 174 704 174 c 0,24,25
 784 174 784 174 866 220 c 1,26,-1
 866 1266 l 1,27,28
 766 1296 766 1296 704 1296 c 0,29,30
 536 1296 536 1296 433 1144 c 128,-1,31
 330 992 330 992 330 730 c 0,21,22
EndSplineSet
EndChar

StartChar: uni01A3
Encoding: 419 419 357
Width: 1528
GlyphClass: 2
Flags: W
LayerCount: 2
Fore
SplineSet
66 536 m 256,0,1
 66 802 66 802 199 953 c 128,-1,2
 332 1104 332 1104 562 1104 c 0,3,4
 644 1104 644 1104 800 1075 c 128,-1,5
 956 1046 956 1046 1036 1046 c 0,6,7
 1214 1046 1214 1046 1402 1084 c 1,8,-1
 1402 0 l 1,9,-1
 1168 0 l 1,10,-1
 1168 854 l 1,11,12
 1116 846 1116 846 1034 846 c 0,13,14
 964 846 964 846 906 854 c 1,15,-1
 906 108 l 1,16,17
 778 -34 778 -34 562 -34 c 0,18,19
 334 -34 334 -34 200 118 c 128,-1,20
 66 270 66 270 66 536 c 256,0,1
308 536 m 0,21,22
 308 360 308 360 378 264 c 128,-1,23
 448 168 448 168 562 168 c 0,24,25
 610 168 610 168 670 222 c 1,26,-1
 670 890 l 1,27,28
 602 906 602 906 562 906 c 0,29,30
 442 906 442 906 375 807 c 128,-1,31
 308 708 308 708 308 536 c 0,21,22
EndSplineSet
EndChar

StartChar: uni01A5
Encoding: 421 421 359
Width: 1168
GlyphClass: 2
Flags: W
LayerCount: 2
Fore
SplineSet
372 538 m 0,0,1
 372 366 372 366 438 267 c 128,-1,2
 504 168 504 168 616 168 c 0,3,4
 726 168 726 168 794 266 c 128,-1,5
 862 364 862 364 862 538 c 0,6,7
 862 704 862 704 797 805 c 128,-1,8
 732 906 732 906 616 906 c 0,9,10
 504 906 504 906 438 804 c 128,-1,11
 372 702 372 702 372 538 c 0,0,1
140 -438 m 1,12,-1
 140 1192 l 2,13,14
 140 1360 140 1360 242 1447 c 128,-1,15
 344 1534 344 1534 498 1534 c 0,16,17
 528 1534 528 1534 676 1524 c 1,18,-1
 676 1318 l 1,19,20
 594 1326 594 1326 540 1326 c 0,21,22
 464 1326 464 1326 418 1277 c 128,-1,23
 372 1228 372 1228 372 1150 c 2,24,-1
 372 942 l 1,25,26
 406 1006 406 1006 479 1055 c 128,-1,27
 552 1104 552 1104 650 1104 c 0,28,29
 846 1104 846 1104 974 952 c 128,-1,30
 1102 800 1102 800 1102 538 c 0,31,32
 1102 388 1102 388 1060 273 c 128,-1,33
 1018 158 1018 158 950 94 c 128,-1,34
 882 30 882 30 805 -2 c 128,-1,35
 728 -34 728 -34 648 -34 c 0,36,37
 540 -34 540 -34 472 15 c 128,-1,38
 404 64 404 64 374 122 c 1,39,-1
 374 -438 l 1,40,-1
 140 -438 l 1,12,-1
EndSplineSet
EndChar

StartChar: uni01A6
Encoding: 422 422 360
Width: 1304
GlyphClass: 2
Flags: W
LayerCount: 2
Fore
SplineSet
396 640 m 1,0,-1
 694 640 l 2,1,2
 940 640 940 640 940 868 c 0,3,4
 940 1074 940 1074 696 1074 c 2,5,-1
 396 1074 l 1,6,-1
 396 640 l 1,0,-1
152 0 m 1,7,-1
 152 1470 l 1,8,-1
 396 1470 l 1,9,-1
 396 1282 l 1,10,-1
 740 1282 l 2,11,12
 962 1282 962 1282 1077 1170 c 128,-1,13
 1192 1058 1192 1058 1192 888 c 0,14,15
 1192 642 1192 642 958 524 c 1,16,17
 996 498 996 498 1022 472 c 128,-1,18
 1048 446 1048 446 1065 408 c 128,-1,19
 1082 370 1082 370 1088 345 c 128,-1,20
 1094 320 1094 320 1108 264 c 0,21,22
 1168 16 1168 16 1276 -170 c 1,23,-1
 1004 -170 l 1,24,25
 986 -144 986 -144 972 -114 c 128,-1,26
 958 -84 958 -84 947 -61 c 128,-1,27
 936 -38 936 -38 924 -3 c 128,-1,28
 912 32 912 32 906 49 c 128,-1,29
 900 66 900 66 889 105 c 128,-1,30
 878 144 878 144 875 153 c 128,-1,31
 872 162 872 162 861 204 c 128,-1,32
 850 246 850 246 850 250 c 0,33,34
 824 348 824 348 790 391 c 128,-1,35
 756 434 756 434 676 434 c 2,36,-1
 396 434 l 1,37,-1
 396 0 l 1,38,-1
 152 0 l 1,7,-1
EndSplineSet
EndChar

StartChar: uni01A7
Encoding: 423 423 361
Width: 1210
GlyphClass: 2
Flags: W
LayerCount: 2
Fore
SplineSet
60 400 m 0,0,1
 60 490 60 490 93 563 c 128,-1,2
 126 636 126 636 189 684 c 128,-1,3
 252 732 252 732 316 763 c 128,-1,4
 380 794 380 794 468 824 c 0,5,6
 678 892 678 892 734 922 c 0,7,8
 862 990 862 990 862 1100 c 0,9,10
 862 1188 862 1188 792 1241 c 128,-1,11
 722 1294 722 1294 602 1294 c 0,12,13
 410 1294 410 1294 282 1122 c 1,14,-1
 76 1192 l 1,15,16
 142 1326 142 1326 276 1415 c 128,-1,17
 410 1504 410 1504 600 1504 c 0,18,19
 830 1504 830 1504 973 1392 c 128,-1,20
 1116 1280 1116 1280 1116 1098 c 0,21,22
 1116 1038 1116 1038 1101 987 c 128,-1,23
 1086 936 1086 936 1066 901 c 128,-1,24
 1046 866 1046 866 1002 831 c 128,-1,25
 958 796 958 796 931 777 c 128,-1,26
 904 758 904 758 842 732 c 128,-1,27
 780 706 780 706 753 697 c 128,-1,28
 726 688 726 688 658 666 c 0,29,30
 636 658 636 658 624 654 c 0,31,32
 550 628 550 628 505 609 c 128,-1,33
 460 590 460 590 410 559 c 128,-1,34
 360 528 360 528 337 486 c 128,-1,35
 314 444 314 444 314 390 c 0,36,37
 314 296 314 296 390 235 c 128,-1,38
 466 174 466 174 588 174 c 0,39,40
 696 174 696 174 798 235 c 128,-1,41
 900 296 900 296 952 384 c 1,42,-1
 1164 310 l 1,43,44
 1092 154 1092 154 940 60 c 128,-1,45
 788 -34 788 -34 592 -34 c 0,46,47
 358 -34 358 -34 209 81 c 128,-1,48
 60 196 60 196 60 400 c 0,0,1
EndSplineSet
EndChar

StartChar: uni01A8
Encoding: 424 424 362
Width: 980
GlyphClass: 2
Flags: W
LayerCount: 2
Fore
SplineSet
58 290 m 0,0,1
 58 356 58 356 87 409 c 128,-1,2
 116 462 116 462 169 500 c 128,-1,3
 222 538 222 538 271 561 c 128,-1,4
 320 584 320 584 388 606 c 0,5,6
 554 658 554 658 598 692 c 0,7,8
 650 730 650 730 650 784 c 0,9,10
 650 842 650 842 604 874 c 128,-1,11
 558 906 558 906 480 906 c 0,12,13
 330 906 330 906 222 762 c 1,14,-1
 64 858 l 1,15,16
 120 964 120 964 232 1034 c 128,-1,17
 344 1104 344 1104 486 1104 c 0,18,19
 658 1104 658 1104 774 1018 c 128,-1,20
 890 932 890 932 890 782 c 0,21,22
 890 716 890 716 864 664 c 128,-1,23
 838 612 838 612 788 575 c 128,-1,24
 738 538 738 538 691 517 c 128,-1,25
 644 496 644 496 578 474 c 0,26,27
 564 470 564 470 533 460 c 128,-1,28
 502 450 502 450 487 445 c 128,-1,29
 472 440 472 440 446 430 c 128,-1,30
 420 420 420 420 406 413 c 128,-1,31
 392 406 392 406 372 395 c 128,-1,32
 352 384 352 384 341 374 c 128,-1,33
 330 364 330 364 319 351 c 128,-1,34
 308 338 308 338 304 322 c 128,-1,35
 300 306 300 306 300 290 c 0,36,37
 300 232 300 232 347 199 c 128,-1,38
 394 166 394 166 476 166 c 0,39,40
 648 166 648 166 762 322 c 1,41,-1
 932 224 l 1,42,43
 868 112 868 112 748 39 c 128,-1,44
 628 -34 628 -34 476 -34 c 0,45,46
 272 -34 272 -34 165 60 c 128,-1,47
 58 154 58 154 58 290 c 0,0,1
EndSplineSet
EndChar

StartChar: uni01A9
Encoding: 425 425 363
Width: 1238
GlyphClass: 2
Flags: W
LayerCount: 2
Fore
SplineSet
148 0 m 1,0,-1
 148 160 l 1,1,-1
 668 738 l 1,2,-1
 148 1310 l 1,3,-1
 148 1470 l 1,4,-1
 1132 1470 l 1,5,-1
 1132 1258 l 1,6,-1
 492 1258 l 1,7,-1
 946 738 l 1,8,-1
 492 208 l 1,9,-1
 1144 208 l 1,10,-1
 1144 0 l 1,11,-1
 148 0 l 1,0,-1
EndSplineSet
EndChar

StartChar: uni01AA
Encoding: 426 426 364
Width: 890
GlyphClass: 2
Flags: W
LayerCount: 2
Fore
SplineSet
104 1194 m 0,0,1
 104 1138 104 1138 140 1106 c 128,-1,2
 176 1074 176 1074 224 1074 c 0,3,4
 308 1074 308 1074 360 1122 c 1,5,6
 360 1208 360 1208 328 1262 c 128,-1,7
 296 1316 296 1316 228 1316 c 0,8,9
 176 1316 176 1316 140 1281 c 128,-1,10
 104 1246 104 1246 104 1194 c 0,0,1
-118 1186 m 0,11,12
 -118 1328 -118 1328 -21 1416 c 128,-1,13
 76 1504 76 1504 232 1504 c 0,14,15
 406 1504 406 1504 498 1399 c 128,-1,16
 590 1294 590 1294 590 1106 c 2,17,-1
 590 -80 l 2,18,19
 590 -238 590 -238 726 -238 c 0,20,21
 780 -238 780 -238 868 -224 c 1,22,-1
 868 -428 l 1,23,24
 700 -446 700 -446 678 -446 c 0,25,26
 536 -446 536 -446 445 -362 c 128,-1,27
 354 -278 354 -278 354 -94 c 2,28,-1
 354 928 l 1,29,30
 302 882 302 882 190 882 c 0,31,32
 58 882 58 882 -30 968 c 128,-1,33
 -118 1054 -118 1054 -118 1186 c 0,11,12
EndSplineSet
EndChar

StartChar: uni01AB
Encoding: 427 427 365
Width: 736
GlyphClass: 2
Flags: W
LayerCount: 2
Fore
SplineSet
34 872 m 1,0,-1
 34 1072 l 1,1,-1
 198 1072 l 1,2,-1
 198 1390 l 1,3,-1
 434 1390 l 1,4,-1
 434 1072 l 1,5,-1
 678 1072 l 1,6,-1
 678 872 l 1,7,-1
 434 872 l 1,8,-1
 434 344 l 2,9,10
 434 268 434 268 464 234 c 128,-1,11
 494 200 494 200 558 200 c 0,12,13
 626 200 626 200 700 212 c 1,14,-1
 700 12 l 2,15,16
 700 -214 700 -214 608 -330 c 128,-1,17
 516 -446 516 -446 348 -446 c 0,18,19
 266 -446 266 -446 196 -432 c 1,20,-1
 196 -224 l 1,21,22
 272 -238 272 -238 320 -238 c 0,23,24
 388 -238 388 -238 431 -188 c 128,-1,25
 474 -138 474 -138 474 -28 c 2,26,-1
 474 8 l 1,27,28
 406 16 406 16 374 28 c 0,29,30
 198 90 198 90 198 328 c 2,31,-1
 198 872 l 1,32,-1
 34 872 l 1,0,-1
EndSplineSet
EndChar

StartChar: uni01AC
Encoding: 428 428 366
Width: 1238
GlyphClass: 2
Flags: W
LayerCount: 2
Fore
SplineSet
-68 1140 m 0,0,1
 -68 1310 -68 1310 45 1390 c 128,-1,2
 158 1470 158 1470 334 1470 c 2,3,-1
 1220 1470 l 1,4,-1
 1220 1260 l 1,5,-1
 798 1260 l 1,6,-1
 798 0 l 1,7,-1
 552 0 l 1,8,-1
 552 1260 l 1,9,-1
 336 1260 l 2,10,11
 244 1260 244 1260 196 1223 c 128,-1,12
 148 1186 148 1186 148 1122 c 0,13,14
 148 1068 148 1068 158 1026 c 1,15,-1
 -56 1026 l 1,16,17
 -68 1074 -68 1074 -68 1140 c 0,0,1
EndSplineSet
EndChar

StartChar: uni01AD
Encoding: 429 429 367
Width: 736
GlyphClass: 2
Flags: W
LayerCount: 2
Fore
SplineSet
34 872 m 1,0,-1
 34 1072 l 1,1,-1
 198 1072 l 1,2,-1
 198 1184 l 2,3,4
 198 1350 198 1350 300 1437 c 128,-1,5
 402 1524 402 1524 562 1524 c 0,6,7
 598 1524 598 1524 742 1514 c 1,8,-1
 742 1308 l 1,9,10
 664 1316 664 1316 604 1316 c 0,11,12
 526 1316 526 1316 480 1271 c 128,-1,13
 434 1226 434 1226 434 1152 c 2,14,-1
 434 1072 l 1,15,-1
 678 1072 l 1,16,-1
 678 872 l 1,17,-1
 434 872 l 1,18,-1
 434 344 l 2,19,20
 434 268 434 268 464 234 c 128,-1,21
 494 200 494 200 558 200 c 2,22,-1
 680 200 l 1,23,-1
 680 0 l 1,24,-1
 528 0 l 2,25,26
 198 0 198 0 198 328 c 2,27,-1
 198 872 l 1,28,-1
 34 872 l 1,0,-1
EndSplineSet
EndChar

StartChar: uni01AE
Encoding: 430 430 368
Width: 1130
GlyphClass: 2
Flags: W
LayerCount: 2
Fore
SplineSet
20 1260 m 1,0,-1
 20 1470 l 1,1,-1
 1114 1470 l 1,2,-1
 1114 1260 l 1,3,-1
 690 1260 l 1,4,-1
 690 -28 l 2,5,6
 690 -138 690 -138 725 -188 c 128,-1,7
 760 -238 760 -238 836 -238 c 0,8,9
 876 -238 876 -238 938 -226 c 1,10,-1
 938 -432 l 1,11,12
 840 -446 840 -446 790 -446 c 0,13,14
 726 -446 726 -446 670 -427 c 128,-1,15
 614 -408 614 -408 561 -365 c 128,-1,16
 508 -322 508 -322 476 -235 c 128,-1,17
 444 -148 444 -148 444 -28 c 2,18,-1
 444 1260 l 1,19,-1
 20 1260 l 1,0,-1
EndSplineSet
EndChar

StartChar: uni01B1
Encoding: 433 433 371
Width: 1468
GlyphClass: 2
Flags: W
LayerCount: 2
Fore
SplineSet
78 614 m 0,0,1
 78 822 78 822 183 970 c 128,-1,2
 288 1118 288 1118 476 1190 c 1,3,-1
 476 1260 l 1,4,-1
 102 1260 l 1,5,-1
 102 1470 l 1,6,-1
 658 1470 l 1,7,-1
 658 1054 l 1,8,9
 496 1010 496 1010 416 890 c 128,-1,10
 336 770 336 770 336 614 c 0,11,12
 336 432 336 432 444 306 c 128,-1,13
 552 180 552 180 734 180 c 0,14,15
 914 180 914 180 1025 306 c 128,-1,16
 1136 432 1136 432 1136 614 c 0,17,18
 1136 764 1136 764 1057 886 c 128,-1,19
 978 1008 978 1008 812 1054 c 1,20,-1
 812 1470 l 1,21,-1
 1368 1470 l 1,22,-1
 1368 1260 l 1,23,-1
 994 1260 l 1,24,-1
 994 1190 l 1,25,26
 1182 1120 1182 1120 1287 971 c 128,-1,27
 1392 822 1392 822 1392 614 c 0,28,29
 1392 332 1392 332 1215 149 c 128,-1,30
 1038 -34 1038 -34 734 -34 c 0,31,32
 432 -34 432 -34 255 149 c 128,-1,33
 78 332 78 332 78 614 c 0,0,1
EndSplineSet
EndChar

StartChar: uni01B2
Encoding: 434 434 372
Width: 1430
GlyphClass: 2
Flags: W
LayerCount: 2
Fore
SplineSet
160 518 m 2,0,-1
 160 1470 l 1,1,-1
 406 1470 l 1,2,-1
 406 540 l 2,3,4
 406 334 406 334 472 254 c 128,-1,5
 538 174 538 174 670 174 c 0,6,7
 840 174 840 174 969 361 c 128,-1,8
 1098 548 1098 548 1098 834 c 0,9,10
 1098 1064 1098 1064 1039 1179 c 128,-1,11
 980 1294 980 1294 880 1294 c 0,12,13
 806 1294 806 1294 722 1268 c 1,14,-1
 722 1484 l 1,15,16
 824 1504 824 1504 914 1504 c 0,17,18
 1126 1504 1126 1504 1239 1333 c 128,-1,19
 1352 1162 1352 1162 1352 838 c 0,20,21
 1352 608 1352 608 1273 412 c 128,-1,22
 1194 216 1194 216 1035 91 c 128,-1,23
 876 -34 876 -34 670 -34 c 0,24,25
 406 -34 406 -34 283 101 c 128,-1,26
 160 236 160 236 160 518 c 2,0,-1
EndSplineSet
EndChar

StartChar: uni01B3
Encoding: 435 435 373
Width: 1254
GlyphClass: 2
Flags: W
LayerCount: 2
Fore
SplineSet
-4 1470 m 1,0,-1
 276 1470 l 1,1,-1
 512 1016 l 2,2,3
 562 922 562 922 624 788 c 1,4,-1
 632 788 l 1,5,6
 680 892 680 892 748 1018 c 2,7,-1
 890 1292 l 2,8,9
 996 1504 996 1504 1180 1504 c 0,10,11
 1238 1504 1238 1504 1312 1494 c 1,12,-1
 1312 1288 l 1,13,14
 1282 1296 1282 1296 1210 1296 c 0,15,16
 1160 1296 1160 1296 1084 1162 c 2,17,-1
 750 596 l 1,18,-1
 750 0 l 1,19,-1
 506 0 l 1,20,-1
 506 596 l 1,21,-1
 -4 1470 l 1,0,-1
EndSplineSet
EndChar

StartChar: uni01B4
Encoding: 436 436 374
Width: 1036
GlyphClass: 2
Flags: W
LayerCount: 2
Fore
SplineSet
14 1072 m 1,0,-1
 272 1072 l 1,1,-1
 454 522 l 2,2,3
 502 360 502 360 526 272 c 1,4,-1
 532 272 l 1,5,6
 542 318 542 318 604 520 c 2,7,-1
 726 920 l 2,8,9
 776 1096 776 1096 994 1096 c 0,10,11
 1028 1096 1028 1096 1138 1082 c 1,12,-1
 1138 872 l 1,13,14
 1078 888 1078 888 1042 888 c 0,15,16
 958 888 958 888 932 816 c 2,17,-1
 590 -124 l 2,18,19
 530 -292 530 -292 435 -365 c 128,-1,20
 340 -438 340 -438 202 -438 c 2,21,-1
 124 -438 l 1,22,-1
 124 -242 l 1,23,-1
 164 -242 l 2,24,25
 246 -242 246 -242 300 -201 c 128,-1,26
 354 -160 354 -160 384 -62 c 2,27,-1
 414 26 l 1,28,-1
 14 1072 l 1,0,-1
EndSplineSet
EndChar

StartChar: uni01B5
Encoding: 437 437 375
Width: 1206
GlyphClass: 2
Flags: W
LayerCount: 2
Fore
SplineSet
176 628 m 1,0,-1
 176 822 l 1,1,-1
 518 822 l 1,2,-1
 826 1260 l 1,3,-1
 124 1260 l 1,4,-1
 124 1470 l 1,5,-1
 1128 1470 l 1,6,-1
 1128 1288 l 1,7,-1
 800 822 l 1,8,-1
 1002 822 l 1,9,-1
 1002 628 l 1,10,-1
 660 628 l 1,11,-1
 366 208 l 1,12,-1
 1148 208 l 1,13,-1
 1148 0 l 1,14,-1
 64 0 l 1,15,-1
 64 176 l 1,16,-1
 380 628 l 1,17,-1
 176 628 l 1,0,-1
EndSplineSet
EndChar

StartChar: uni01B6
Encoding: 438 438 376
Width: 978
GlyphClass: 2
Flags: W
LayerCount: 2
Fore
SplineSet
48 0 m 1,0,-1
 48 156 l 1,1,-1
 276 450 l 1,2,-1
 122 450 l 1,3,-1
 122 642 l 1,4,-1
 426 642 l 1,5,-1
 602 872 l 1,6,-1
 92 872 l 1,7,-1
 92 1072 l 1,8,-1
 908 1072 l 1,9,-1
 908 926 l 1,10,-1
 692 642 l 1,11,-1
 846 642 l 1,12,-1
 846 450 l 1,13,-1
 540 450 l 1,14,-1
 352 200 l 1,15,-1
 932 200 l 1,16,-1
 932 0 l 1,17,-1
 48 0 l 1,0,-1
EndSplineSet
EndChar

StartChar: uni01B7
Encoding: 439 439 377
Width: 1394
GlyphClass: 2
Flags: W
LayerCount: 2
Fore
SplineSet
92 -16 m 1,0,-1
 302 66 l 1,1,2
 340 -54 340 -54 436 -141 c 128,-1,3
 532 -228 532 -228 678 -228 c 0,4,5
 850 -228 850 -228 952 -117 c 128,-1,6
 1054 -6 1054 -6 1054 176 c 0,7,8
 1054 360 1054 360 937 472 c 128,-1,9
 820 584 820 584 616 584 c 2,10,-1
 414 584 l 1,11,-1
 414 774 l 1,12,-1
 846 1260 l 1,13,-1
 156 1260 l 1,14,-1
 156 1470 l 1,15,-1
 1216 1470 l 1,16,-1
 1216 1328 l 1,17,-1
 724 786 l 1,18,-1
 752 784 l 1,19,20
 1002 750 1002 750 1154 590 c 128,-1,21
 1306 430 1306 430 1306 176 c 0,22,23
 1306 -94 1306 -94 1132 -265 c 128,-1,24
 958 -436 958 -436 686 -436 c 0,25,26
 560 -436 560 -436 455 -400 c 128,-1,27
 350 -364 350 -364 280 -302 c 128,-1,28
 210 -240 210 -240 164 -169 c 128,-1,29
 118 -98 118 -98 92 -16 c 1,0,-1
EndSplineSet
EndChar

StartChar: uni01B8
Encoding: 440 440 378
Width: 1394
GlyphClass: 2
Flags: W
LayerCount: 2
Fore
SplineSet
88 176 m 0,0,1
 88 430 88 430 244 594 c 128,-1,2
 400 758 400 758 642 784 c 1,3,-1
 670 786 l 1,4,-1
 180 1328 l 1,5,-1
 180 1470 l 1,6,-1
 1238 1470 l 1,7,-1
 1238 1260 l 1,8,-1
 548 1260 l 1,9,-1
 980 774 l 1,10,-1
 980 584 l 1,11,-1
 780 584 l 2,12,13
 576 584 576 584 458 472 c 128,-1,14
 340 360 340 360 340 176 c 0,15,16
 340 -6 340 -6 442 -117 c 128,-1,17
 544 -228 544 -228 716 -228 c 0,18,19
 862 -228 862 -228 958 -141 c 128,-1,20
 1054 -54 1054 -54 1090 66 c 1,21,-1
 1302 -16 l 1,22,23
 1276 -98 1276 -98 1230 -169 c 128,-1,24
 1184 -240 1184 -240 1114 -302 c 128,-1,25
 1044 -364 1044 -364 939 -400 c 128,-1,26
 834 -436 834 -436 708 -436 c 0,27,28
 434 -436 434 -436 261 -265 c 128,-1,29
 88 -94 88 -94 88 176 c 0,0,1
EndSplineSet
EndChar

StartChar: uni01B9
Encoding: 441 441 379
Width: 1158
GlyphClass: 2
Flags: W
LayerCount: 2
Fore
SplineSet
80 54 m 0,0,1
 80 238 80 238 202 375 c 128,-1,2
 324 512 324 512 510 528 c 1,3,-1
 534 528 l 1,4,-1
 146 928 l 1,5,-1
 146 1072 l 1,6,-1
 1020 1072 l 1,7,-1
 1020 872 l 1,8,-1
 494 872 l 1,9,-1
 828 514 l 1,10,-1
 828 354 l 1,11,-1
 644 354 l 2,12,13
 488 354 488 354 405 269 c 128,-1,14
 322 184 322 184 322 54 c 0,15,16
 322 -74 322 -74 396 -160 c 128,-1,17
 470 -246 470 -246 596 -246 c 0,18,19
 704 -246 704 -246 775 -177 c 128,-1,20
 846 -108 846 -108 874 -10 c 1,21,-1
 1082 -66 l 1,22,23
 1036 -228 1036 -228 910 -337 c 128,-1,24
 784 -446 784 -446 588 -446 c 0,25,26
 358 -446 358 -446 219 -303 c 128,-1,27
 80 -160 80 -160 80 54 c 0,0,1
EndSplineSet
EndChar

StartChar: uni01BA
Encoding: 442 442 380
Width: 896
GlyphClass: 2
Flags: W
LayerCount: 2
Fore
SplineSet
72 -122 m 0,0,1
 72 -46 72 -46 122 19 c 128,-1,2
 172 84 172 84 244 127 c 128,-1,3
 316 170 316 170 388 210 c 128,-1,4
 460 250 460 250 511 289 c 128,-1,5
 562 328 562 328 562 368 c 0,6,7
 562 418 562 418 493 450 c 128,-1,8
 424 482 424 482 306 482 c 2,9,-1
 236 482 l 1,10,-1
 236 604 l 1,11,-1
 522 872 l 1,12,-1
 80 872 l 1,13,-1
 80 1072 l 1,14,-1
 826 1072 l 1,15,-1
 826 916 l 1,16,-1
 500 616 l 1,17,-1
 540 612 l 2,18,19
 652 604 652 604 726 547 c 128,-1,20
 800 490 800 490 800 380 c 0,21,22
 800 304 800 304 750 241 c 128,-1,23
 700 178 700 178 629 134 c 128,-1,24
 558 90 558 90 486 52 c 128,-1,25
 414 14 414 14 364 -26 c 128,-1,26
 314 -66 314 -66 314 -106 c 0,27,28
 314 -204 314 -204 454 -204 c 0,29,30
 534 -204 534 -204 672 -176 c 1,31,-1
 672 -380 l 1,32,33
 520 -406 520 -406 418 -406 c 0,34,35
 266 -406 266 -406 169 -331 c 128,-1,36
 72 -256 72 -256 72 -122 c 0,0,1
EndSplineSet
EndChar

StartChar: uni01BB
Encoding: 443 443 381
Width: 1106
GlyphClass: 2
Flags: W
LayerCount: 2
Fore
SplineSet
196 612 m 1,0,-1
 196 804 l 1,1,-1
 620 804 l 1,2,3
 744 936 744 936 744 1086 c 0,4,5
 744 1192 744 1192 685 1247 c 128,-1,6
 626 1302 626 1302 548 1302 c 0,7,8
 544 1302 544 1302 542 1302 c 0,9,10
 358 1300 358 1300 288 1046 c 1,11,-1
 82 1108 l 1,12,13
 120 1284 120 1284 237 1394 c 128,-1,14
 354 1504 354 1504 550 1504 c 0,15,16
 748 1504 748 1504 872 1389 c 128,-1,17
 996 1274 996 1274 996 1076 c 0,18,19
 996 936 996 936 906 804 c 1,20,-1
 1058 804 l 1,21,-1
 1058 612 l 1,22,-1
 740 612 l 1,23,24
 724 596 724 596 683 556 c 128,-1,25
 642 516 642 516 625 500 c 128,-1,26
 608 484 608 484 573 448 c 128,-1,27
 538 412 538 412 520 390 c 128,-1,28
 502 368 502 368 476 335 c 128,-1,29
 450 302 450 302 430 269 c 128,-1,30
 410 236 410 236 394 200 c 1,31,-1
 990 200 l 1,32,-1
 990 0 l 1,33,-1
 96 0 l 1,34,35
 96 160 96 160 184 305 c 128,-1,36
 272 450 272 450 428 612 c 1,37,-1
 196 612 l 1,0,-1
EndSplineSet
EndChar

StartChar: uni01BC
Encoding: 444 444 382
Width: 1180
GlyphClass: 2
Flags: W
LayerCount: 2
Fore
SplineSet
88 272 m 1,0,-1
 286 344 l 1,1,2
 322 262 322 262 393 215 c 128,-1,3
 464 168 464 168 562 168 c 0,4,5
 682 168 682 168 754 245 c 128,-1,6
 826 322 826 322 826 450 c 0,7,8
 826 564 826 564 742 648 c 128,-1,9
 658 732 658 732 494 732 c 0,10,11
 366 732 366 732 230 700 c 1,12,-1
 304 1262 l 1,13,-1
 212 1262 l 1,14,-1
 212 1470 l 1,15,-1
 1008 1470 l 1,16,-1
 1008 1260 l 1,17,-1
 532 1260 l 1,18,-1
 488 930 l 1,19,20
 522 934 522 934 588 934 c 0,21,22
 808 934 808 934 945 800 c 128,-1,23
 1082 666 1082 666 1082 456 c 0,24,25
 1082 360 1082 360 1051 275 c 128,-1,26
 1020 190 1020 190 960 120 c 128,-1,27
 900 50 900 50 800 8 c 128,-1,28
 700 -34 700 -34 572 -34 c 0,29,30
 392 -34 392 -34 265 53 c 128,-1,31
 138 140 138 140 88 272 c 1,0,-1
EndSplineSet
EndChar

StartChar: uni01BD
Encoding: 445 445 383
Width: 962
GlyphClass: 2
Flags: W
LayerCount: 2
Fore
SplineSet
84 216 m 1,0,-1
 272 298 l 1,1,2
 298 238 298 238 348 202 c 128,-1,3
 398 166 398 166 458 166 c 0,4,5
 538 166 538 166 587 212 c 128,-1,6
 636 258 636 258 636 332 c 0,7,8
 636 404 636 404 577 458 c 128,-1,9
 518 512 518 512 416 512 c 0,10,11
 324 512 324 512 194 490 c 1,12,-1
 250 874 l 1,13,-1
 182 874 l 1,14,-1
 182 1072 l 1,15,-1
 802 1072 l 1,16,-1
 802 872 l 1,17,-1
 456 872 l 1,18,-1
 428 712 l 1,19,-1
 476 714 l 2,20,21
 654 714 654 714 765 608 c 128,-1,22
 876 502 876 502 876 344 c 0,23,24
 876 190 876 190 771 78 c 128,-1,25
 666 -34 666 -34 458 -34 c 0,26,27
 204 -34 204 -34 84 216 c 1,0,-1
EndSplineSet
EndChar

StartChar: uni01BE
Encoding: 446 446 384
Width: 890
GlyphClass: 2
Flags: W
LayerCount: 2
Fore
SplineSet
46 872 m 1,0,-1
 46 1072 l 1,1,-1
 198 1072 l 1,2,-1
 198 1384 l 1,3,-1
 432 1384 l 1,4,-1
 432 1072 l 1,5,-1
 670 1072 l 1,6,-1
 670 872 l 1,7,-1
 432 872 l 1,8,-1
 432 804 l 2,9,10
 432 740 432 740 471 692 c 128,-1,11
 510 644 510 644 565 612 c 128,-1,12
 620 580 620 580 677 543 c 128,-1,13
 734 506 734 506 773 443 c 128,-1,14
 812 380 812 380 812 294 c 0,15,16
 812 160 812 160 723 63 c 128,-1,17
 634 -34 634 -34 442 -34 c 0,18,19
 194 -34 194 -34 64 200 c 1,20,-1
 230 292 l 1,21,22
 314 168 314 168 434 168 c 0,23,24
 502 168 502 168 540 201 c 128,-1,25
 578 234 578 234 578 286 c 0,26,27
 578 334 578 334 539 370 c 128,-1,28
 500 406 500 406 444 437 c 128,-1,29
 388 468 388 468 332 506 c 128,-1,30
 276 544 276 544 237 615 c 128,-1,31
 198 686 198 686 198 782 c 2,32,-1
 198 872 l 1,33,-1
 46 872 l 1,0,-1
EndSplineSet
EndChar

StartChar: uni01BF
Encoding: 447 447 385
Width: 1152
GlyphClass: 2
Flags: W
LayerCount: 2
Fore
SplineSet
140 -438 m 1,0,-1
 140 1072 l 1,1,-1
 368 1072 l 1,2,-1
 368 986 l 1,3,4
 480 1104 480 1104 662 1104 c 0,5,6
 868 1104 868 1104 977 986 c 128,-1,7
 1086 868 1086 868 1086 676 c 0,8,9
 1086 114 1086 114 374 4 c 1,10,-1
 374 -438 l 1,11,-1
 140 -438 l 1,0,-1
374 196 m 1,12,13
 572 226 572 226 710 342 c 128,-1,14
 848 458 848 458 848 648 c 0,15,16
 848 778 848 778 787 842 c 128,-1,17
 726 906 726 906 632 906 c 0,18,19
 552 906 552 906 480 863 c 128,-1,20
 408 820 408 820 374 758 c 1,21,-1
 374 196 l 1,12,13
EndSplineSet
EndChar

StartChar: uni01C0
Encoding: 448 448 386
Width: 516
GlyphClass: 2
Flags: W
LayerCount: 2
Fore
SplineSet
152 -404 m 1,0,-1
 152 1628 l 1,1,-1
 366 1628 l 1,2,-1
 366 -404 l 1,3,-1
 152 -404 l 1,0,-1
EndSplineSet
EndChar

StartChar: uni01C1
Encoding: 449 449 387
Width: 904
GlyphClass: 2
Flags: W
LayerCount: 2
Fore
SplineSet
152 -404 m 1,0,-1
 152 1628 l 1,1,-1
 366 1628 l 1,2,-1
 366 -404 l 1,3,-1
 152 -404 l 1,0,-1
538 -404 m 1,4,-1
 538 1628 l 1,5,-1
 752 1628 l 1,6,-1
 752 -404 l 1,7,-1
 538 -404 l 1,4,-1
EndSplineSet
EndChar

StartChar: uni01C2
Encoding: 450 450 388
Width: 710
GlyphClass: 2
Flags: W
LayerCount: 2
Fore
SplineSet
30 824 m 1,0,-1
 30 986 l 1,1,-1
 250 986 l 1,2,-1
 250 1628 l 1,3,-1
 466 1628 l 1,4,-1
 466 986 l 1,5,-1
 682 986 l 1,6,-1
 682 824 l 1,7,-1
 466 824 l 1,8,-1
 466 562 l 1,9,-1
 682 562 l 1,10,-1
 682 396 l 1,11,-1
 466 396 l 1,12,-1
 466 -404 l 1,13,-1
 250 -404 l 1,14,-1
 250 396 l 1,15,-1
 30 396 l 1,16,-1
 30 562 l 1,17,-1
 250 562 l 1,18,-1
 250 824 l 1,19,-1
 30 824 l 1,0,-1
EndSplineSet
EndChar

StartChar: uni01DD
Encoding: 477 477 415
Width: 1116
GlyphClass: 2
Flags: W
LayerCount: 2
Fore
SplineSet
66 522 m 0,0,1
 66 588 66 588 68 616 c 1,2,-1
 812 616 l 1,3,4
 812 740 812 740 739 827 c 128,-1,5
 666 914 666 914 538 914 c 0,6,7
 446 914 446 914 379 870 c 128,-1,8
 312 826 312 826 278 758 c 1,9,-1
 84 826 l 1,10,11
 136 946 136 946 251 1025 c 128,-1,12
 366 1104 366 1104 542 1104 c 0,13,14
 770 1104 770 1104 910 947 c 128,-1,15
 1050 790 1050 790 1050 530 c 0,16,17
 1050 272 1050 272 909 119 c 128,-1,18
 768 -34 768 -34 552 -34 c 0,19,20
 340 -34 340 -34 203 121 c 128,-1,21
 66 276 66 276 66 522 c 0,0,1
302 452 m 1,22,23
 302 328 302 328 368 241 c 128,-1,24
 434 154 434 154 552 154 c 0,25,26
 668 154 668 154 738 241 c 128,-1,27
 808 328 808 328 812 452 c 1,28,-1
 302 452 l 1,22,23
EndSplineSet
EndChar

StartChar: uni01E4
Encoding: 484 484 422
Width: 1450
GlyphClass: 2
Flags: W
LayerCount: 2
Fore
SplineSet
78 736 m 0,0,1
 78 948 78 948 151 1120 c 128,-1,2
 224 1292 224 1292 379 1398 c 128,-1,3
 534 1504 534 1504 746 1504 c 0,4,5
 854 1504 854 1504 947 1467 c 128,-1,6
 1040 1430 1040 1430 1104 1373 c 128,-1,7
 1168 1316 1168 1316 1207 1262 c 128,-1,8
 1246 1208 1246 1208 1274 1152 c 1,9,-1
 1064 1084 l 1,10,11
 1034 1128 1034 1128 1017 1149 c 128,-1,12
 1000 1170 1000 1170 958 1212 c 128,-1,13
 916 1254 916 1254 863 1274 c 128,-1,14
 810 1294 810 1294 746 1294 c 0,15,16
 552 1294 552 1294 441 1143 c 128,-1,17
 330 992 330 992 330 736 c 0,18,19
 330 482 330 482 441 329 c 128,-1,20
 552 176 552 176 728 176 c 0,21,22
 820 176 820 176 899 217 c 128,-1,23
 978 258 978 258 1022 340 c 1,24,-1
 672 340 l 1,25,-1
 672 492 l 1,26,-1
 1074 492 l 1,27,-1
 1080 554 l 1,28,-1
 1080 618 l 1,29,-1
 718 618 l 1,30,-1
 718 822 l 1,31,-1
 1316 822 l 1,32,-1
 1316 492 l 1,33,-1
 1436 492 l 1,34,-1
 1436 340 l 1,35,-1
 1316 340 l 1,36,-1
 1316 0 l 1,37,-1
 1146 0 l 1,38,-1
 1124 150 l 1,39,40
 1004 -34 1004 -34 726 -34 c 256,41,42
 448 -34 448 -34 263 173 c 128,-1,43
 78 380 78 380 78 736 c 0,0,1
EndSplineSet
EndChar

StartChar: uni01E5
Encoding: 485 485 423
Width: 1144
GlyphClass: 2
Flags: W
LayerCount: 2
Fore
SplineSet
72 590 m 0,0,1
 72 818 72 818 198 961 c 128,-1,2
 324 1104 324 1104 518 1104 c 0,3,4
 616 1104 616 1104 685 1056 c 128,-1,5
 754 1008 754 1008 778 952 c 1,6,-1
 778 1072 l 1,7,-1
 1012 1072 l 1,8,-1
 1012 196 l 2,9,10
 1012 84 1012 84 1006 12 c 1,11,-1
 1136 12 l 1,12,-1
 1136 -130 l 1,13,-1
 982 -130 l 1,14,15
 934 -284 934 -284 828 -365 c 128,-1,16
 722 -446 722 -446 532 -446 c 0,17,18
 264 -446 264 -446 112 -238 c 1,19,-1
 268 -130 l 1,20,21
 368 -256 368 -256 536 -256 c 0,22,23
 670 -256 670 -256 738 -130 c 1,24,-1
 398 -130 l 1,25,-1
 398 12 l 1,26,-1
 772 12 l 1,27,28
 780 66 780 66 780 136 c 2,29,-1
 780 224 l 1,30,31
 746 164 746 164 672 125 c 128,-1,32
 598 86 598 86 518 86 c 0,33,34
 326 86 326 86 199 221 c 128,-1,35
 72 356 72 356 72 590 c 0,0,1
312 590 m 0,36,37
 312 444 312 444 381 365 c 128,-1,38
 450 286 450 286 542 286 c 0,39,40
 644 286 644 286 709 369 c 128,-1,41
 774 452 774 452 774 596 c 0,42,43
 774 738 774 738 709 822 c 128,-1,44
 644 906 644 906 546 906 c 0,45,46
 442 906 442 906 377 817 c 128,-1,47
 312 728 312 728 312 590 c 0,36,37
EndSplineSet
EndChar

StartChar: uni01EF
Encoding: 495 495 433
Width: 1158
GlyphClass: 2
Flags: W
LayerCount: 2
Fore
SplineSet
168 1574 m 1,0,-1
 396 1574 l 1,1,-1
 572 1372 l 1,2,-1
 748 1574 l 1,3,-1
 978 1574 l 1,4,-1
 670 1248 l 1,5,-1
 468 1248 l 1,6,-1
 168 1574 l 1,0,-1
78 -66 m 1,7,-1
 288 -10 l 1,8,9
 316 -108 316 -108 386 -177 c 128,-1,10
 456 -246 456 -246 564 -246 c 0,11,12
 690 -246 690 -246 764 -161 c 128,-1,13
 838 -76 838 -76 838 56 c 0,14,15
 838 184 838 184 755 269 c 128,-1,16
 672 354 672 354 518 354 c 2,17,-1
 330 354 l 1,18,-1
 330 514 l 1,19,-1
 668 872 l 1,20,-1
 142 872 l 1,21,-1
 142 1072 l 1,22,-1
 1014 1072 l 1,23,-1
 1014 928 l 1,24,-1
 624 528 l 1,25,-1
 710 514 l 1,26,27
 868 480 868 480 974 353 c 128,-1,28
 1080 226 1080 226 1080 56 c 0,29,30
 1080 -162 1080 -162 940 -304 c 128,-1,31
 800 -446 800 -446 570 -446 c 0,32,33
 374 -446 374 -446 248 -337 c 128,-1,34
 122 -228 122 -228 78 -66 c 1,7,-1
EndSplineSet
EndChar

StartChar: uni01F6
Encoding: 502 502 440
Width: 1996
GlyphClass: 2
Flags: W
LayerCount: 2
Fore
SplineSet
166 0 m 1,0,-1
 166 1470 l 1,1,-1
 410 1470 l 1,2,-1
 410 858 l 1,3,-1
 992 858 l 1,4,-1
 992 1470 l 1,5,-1
 1240 1470 l 1,6,-1
 1240 408 l 2,7,8
 1240 288 1240 288 1295 228 c 128,-1,9
 1350 168 1350 168 1444 168 c 0,10,11
 1528 168 1528 168 1583 229 c 128,-1,12
 1638 290 1638 290 1638 386 c 2,13,-1
 1638 1072 l 1,14,-1
 1882 1072 l 1,15,-1
 1882 356 l 2,16,17
 1882 164 1882 164 1754 65 c 128,-1,18
 1626 -34 1626 -34 1442 -34 c 0,19,20
 1354 -34 1354 -34 1278 -14 c 128,-1,21
 1202 6 1202 6 1135 49 c 128,-1,22
 1068 92 1068 92 1030 171 c 128,-1,23
 992 250 992 250 992 356 c 2,24,-1
 992 652 l 1,25,-1
 410 652 l 1,26,-1
 410 0 l 1,27,-1
 166 0 l 1,0,-1
EndSplineSet
EndChar

StartChar: uni01F7
Encoding: 503 503 441
Width: 1290
GlyphClass: 2
Flags: W
LayerCount: 2
Fore
SplineSet
168 -430 m 1,0,-1
 168 1470 l 1,1,-1
 410 1470 l 1,2,-1
 410 1338 l 1,3,4
 590 1504 590 1504 780 1504 c 0,5,6
 996 1504 996 1504 1105 1367 c 128,-1,7
 1214 1230 1214 1230 1214 984 c 0,8,9
 1214 808 1214 808 1138 645 c 128,-1,10
 1062 482 1062 482 936 360 c 128,-1,11
 810 238 810 238 680 151 c 128,-1,12
 550 64 550 64 410 2 c 1,13,-1
 410 -430 l 1,14,-1
 168 -430 l 1,0,-1
410 238 m 1,15,16
 506 286 506 286 598 357 c 128,-1,17
 690 428 690 428 774 522 c 128,-1,18
 858 616 858 616 910 734 c 128,-1,19
 962 852 962 852 962 974 c 0,20,21
 962 1130 962 1130 903 1213 c 128,-1,22
 844 1296 844 1296 730 1296 c 0,23,24
 646 1296 646 1296 558 1238 c 128,-1,25
 470 1180 470 1180 410 1098 c 1,26,-1
 410 238 l 1,15,16
EndSplineSet
EndChar

StartChar: Aringacute
Encoding: 506 506 444
Width: 1316
GlyphClass: 2
Flags: W
LayerCount: 2
Fore
SplineSet
-8 0 m 1,0,-1
 522 1466 l 1,1,2
 486 1484 486 1484 454 1514 c 0,3,4
 370 1590 370 1590 370 1706 c 0,5,6
 370 1816 370 1816 452 1896 c 0,7,8
 502 1946 502 1946 568 1964 c 1,9,-1
 730 2216 l 1,10,-1
 1012 2216 l 1,11,-1
 774 1956 l 1,12,13
 826 1936 826 1936 866 1896 c 0,14,15
 948 1814 948 1814 948 1706 c 0,16,17
 948 1590 948 1590 864 1514 c 0,18,19
 832 1484 832 1484 796 1466 c 1,20,-1
 1324 0 l 1,21,-1
 1064 0 l 1,22,-1
 942 364 l 1,23,-1
 374 364 l 1,24,-1
 252 0 l 1,25,-1
 -8 0 l 1,0,-1
438 562 m 1,26,-1
 878 562 l 1,27,-1
 752 942 l 2,28,29
 740 984 740 984 724 1034 c 128,-1,30
 708 1084 708 1084 690 1144 c 128,-1,31
 672 1204 672 1204 664 1234 c 1,32,-1
 652 1234 l 1,33,34
 646 1216 646 1216 564 942 c 1,35,-1
 438 562 l 1,26,-1
532 1706 m 256,36,37
 532 1654 532 1654 567 1618 c 128,-1,38
 602 1582 602 1582 658 1582 c 0,39,40
 710 1582 710 1582 746 1617 c 128,-1,41
 782 1652 782 1652 782 1706 c 0,42,43
 782 1758 782 1758 747 1794 c 128,-1,44
 712 1830 712 1830 658 1830 c 256,45,46
 604 1830 604 1830 568 1794 c 128,-1,47
 532 1758 532 1758 532 1706 c 256,36,37
EndSplineSet
EndChar

StartChar: aringacute
Encoding: 507 507 445
Width: 1094
GlyphClass: 2
Flags: W
LayerCount: 2
Fore
SplineSet
66 280 m 0,0,1
 66 584 66 584 514 650 c 0,2,3
 678 674 678 674 746 696 c 1,4,-1
 746 752 l 2,5,6
 746 830 746 830 690 875 c 128,-1,7
 634 920 634 920 540 920 c 0,8,9
 364 920 364 920 236 774 c 1,10,-1
 92 898 l 1,11,12
 176 996 176 996 292 1051 c 128,-1,13
 408 1106 408 1106 538 1106 c 0,14,15
 776 1106 776 1106 879 990 c 128,-1,16
 982 874 982 874 982 666 c 2,17,-1
 982 0 l 1,18,-1
 752 0 l 1,19,-1
 752 134 l 1,20,21
 720 66 720 66 637 16 c 128,-1,22
 554 -34 554 -34 442 -34 c 0,23,24
 266 -34 266 -34 166 54 c 128,-1,25
 66 142 66 142 66 280 c 0,0,1
260 1456 m 0,26,27
 260 1566 260 1566 342 1646 c 0,28,29
 394 1696 394 1696 460 1714 c 1,30,-1
 620 1966 l 1,31,-1
 904 1966 l 1,32,-1
 664 1706 l 1,33,34
 716 1686 716 1686 756 1646 c 0,35,36
 838 1564 838 1564 838 1456 c 0,37,38
 838 1342 838 1342 754 1265 c 128,-1,39
 670 1188 670 1188 548 1188 c 0,40,41
 430 1188 430 1188 345 1265 c 128,-1,42
 260 1342 260 1342 260 1456 c 0,26,27
302 302 m 0,43,44
 302 242 302 242 350 202 c 128,-1,45
 398 162 398 162 476 162 c 0,46,47
 588 162 588 162 667 236 c 128,-1,48
 746 310 746 310 746 432 c 2,49,-1
 746 530 l 1,50,51
 660 510 660 510 538 490 c 0,52,53
 302 454 302 454 302 302 c 0,43,44
422 1456 m 0,54,55
 422 1404 422 1404 457 1368 c 128,-1,56
 492 1332 492 1332 548 1332 c 0,57,58
 600 1332 600 1332 636 1368 c 128,-1,59
 672 1404 672 1404 672 1456 c 0,60,61
 672 1510 672 1510 637 1546 c 128,-1,62
 602 1582 602 1582 548 1582 c 256,63,64
 494 1582 494 1582 458 1546 c 128,-1,65
 422 1510 422 1510 422 1456 c 0,54,55
EndSplineSet
EndChar

StartChar: uni021C
Encoding: 540 540 478
Width: 1152
GlyphClass: 2
Flags: W
LayerCount: 2
Fore
SplineSet
74 -188 m 1,0,1
 222 -222 222 -222 384 -222 c 0,2,3
 578 -222 578 -222 696 -117 c 128,-1,4
 814 -12 814 -12 814 168 c 0,5,6
 814 360 814 360 721 447 c 128,-1,7
 628 534 628 534 502 534 c 0,8,9
 396 534 396 534 272 486 c 1,10,-1
 272 698 l 1,11,-1
 486 746 l 2,12,13
 620 774 620 774 704 853 c 128,-1,14
 788 932 788 932 788 1052 c 0,15,16
 788 1158 788 1158 718 1224 c 128,-1,17
 648 1290 648 1290 526 1290 c 0,18,19
 434 1290 434 1290 375 1247 c 128,-1,20
 316 1204 316 1204 272 1116 c 1,21,-1
 78 1210 l 1,22,23
 134 1348 134 1348 254 1426 c 128,-1,24
 374 1504 374 1504 530 1504 c 0,25,26
 780 1504 780 1504 912 1387 c 128,-1,27
 1044 1270 1044 1270 1044 1080 c 0,28,29
 1044 916 1044 916 962 807 c 128,-1,30
 880 698 880 698 772 652 c 1,31,-1
 772 650 l 1,32,33
 894 610 894 610 981 485 c 128,-1,34
 1068 360 1068 360 1068 164 c 0,35,36
 1068 -118 1068 -118 878 -277 c 128,-1,37
 688 -436 688 -436 386 -436 c 0,38,39
 246 -436 246 -436 74 -406 c 1,40,-1
 74 -188 l 1,0,1
EndSplineSet
EndChar

StartChar: uni021D
Encoding: 541 541 479
Width: 902
GlyphClass: 2
Flags: W
LayerCount: 2
Fore
SplineSet
64 -220 m 1,0,1
 186 -246 186 -246 302 -246 c 0,2,3
 432 -246 432 -246 511 -173 c 128,-1,4
 590 -100 590 -100 590 36 c 0,5,6
 590 160 590 160 525 231 c 128,-1,7
 460 302 460 302 374 302 c 0,8,9
 308 302 308 302 214 270 c 1,10,-1
 214 466 l 1,11,-1
 374 502 l 2,12,13
 466 522 466 522 521 585 c 128,-1,14
 576 648 576 648 576 728 c 0,15,16
 576 806 576 806 535 856 c 128,-1,17
 494 906 494 906 424 906 c 0,18,19
 302 906 302 906 250 768 c 1,20,-1
 70 838 l 1,21,22
 100 952 100 952 196 1028 c 128,-1,23
 292 1104 292 1104 440 1104 c 0,24,25
 612 1104 612 1104 711 1003 c 128,-1,26
 810 902 810 902 810 762 c 0,27,28
 810 520 810 520 608 414 c 1,29,30
 696 382 696 382 762 282 c 128,-1,31
 828 182 828 182 828 42 c 0,32,33
 828 -196 828 -196 692 -321 c 128,-1,34
 556 -446 556 -446 306 -446 c 0,35,36
 206 -446 206 -446 64 -426 c 1,37,-1
 64 -220 l 1,0,1
EndSplineSet
EndChar

StartChar: uni0220
Encoding: 544 544 482
Width: 1402
GlyphClass: 2
Flags: W
LayerCount: 2
Fore
SplineSet
166 0 m 1,0,-1
 166 1470 l 1,1,-1
 400 1470 l 1,2,-1
 400 1304 l 1,3,-1
 402 1304 l 1,4,5
 566 1504 566 1504 810 1504 c 0,6,7
 1242 1504 1242 1504 1242 978 c 2,8,-1
 1242 -438 l 1,9,-1
 996 -438 l 1,10,-1
 996 960 l 2,11,12
 996 1120 996 1120 938 1207 c 128,-1,13
 880 1294 880 1294 748 1294 c 256,14,15
 616 1294 616 1294 513 1179 c 128,-1,16
 410 1064 410 1064 410 914 c 2,17,-1
 410 0 l 1,18,-1
 166 0 l 1,0,-1
EndSplineSet
EndChar

StartChar: uni0221
Encoding: 545 545 483
Width: 1482
GlyphClass: 2
Flags: W
LayerCount: 2
Fore
SplineSet
1056 -166 m 1,0,1
 1068 -214 1068 -214 1107 -245 c 128,-1,2
 1146 -276 1146 -276 1202 -276 c 0,3,4
 1248 -276 1248 -276 1275 -251 c 128,-1,5
 1302 -226 1302 -226 1302 -192 c 0,6,7
 1302 -154 1302 -154 1273 -127 c 128,-1,8
 1244 -100 1244 -100 1194 -100 c 0,9,10
 1116 -100 1116 -100 1056 -166 c 1,0,1
66 538 m 0,11,12
 66 800 66 800 195 952 c 128,-1,13
 324 1104 324 1104 524 1104 c 0,14,15
 618 1104 618 1104 689 1059 c 128,-1,16
 760 1014 760 1014 796 952 c 1,17,-1
 796 1518 l 1,18,-1
 1030 1518 l 1,19,-1
 1030 124 l 2,20,21
 1030 38 1030 38 1034 22 c 1,22,23
 1106 74 1106 74 1202 74 c 0,24,25
 1336 74 1336 74 1416 -1 c 128,-1,26
 1496 -76 1496 -76 1496 -186 c 0,27,28
 1496 -304 1496 -304 1417 -375 c 128,-1,29
 1338 -446 1338 -446 1204 -446 c 0,30,31
 1060 -446 1060 -446 962 -340 c 1,32,33
 934 -388 934 -388 914 -448 c 1,34,-1
 722 -376 l 1,35,36
 774 -242 774 -242 828 -164 c 1,37,38
 804 -98 804 -98 798 50 c 2,39,-1
 798 138 l 1,40,41
 768 72 768 72 694 19 c 128,-1,42
 620 -34 620 -34 522 -34 c 0,43,44
 438 -34 438 -34 360 -2 c 128,-1,45
 282 30 282 30 214 95 c 128,-1,46
 146 160 146 160 106 274 c 128,-1,47
 66 388 66 388 66 538 c 0,11,12
308 538 m 0,48,49
 308 362 308 362 376 265 c 128,-1,50
 444 168 444 168 556 168 c 0,51,52
 664 168 664 168 731 266 c 128,-1,53
 798 364 798 364 798 538 c 0,54,55
 798 702 798 702 732 804 c 128,-1,56
 666 906 666 906 556 906 c 0,57,58
 438 906 438 906 373 807 c 128,-1,59
 308 708 308 708 308 538 c 0,48,49
EndSplineSet
EndChar

StartChar: uni0222
Encoding: 546 546 484
Width: 1420
GlyphClass: 2
Flags: W
LayerCount: 2
Fore
SplineSet
74 486 m 0,0,1
 74 620 74 620 148 737 c 128,-1,2
 222 854 222 854 356 930 c 1,3,4
 130 1040 130 1040 130 1288 c 0,5,6
 130 1400 130 1400 160 1470 c 1,7,-1
 400 1470 l 1,8,9
 384 1404 384 1404 384 1302 c 0,10,11
 384 1190 384 1190 473 1104 c 128,-1,12
 562 1018 562 1018 712 1018 c 0,13,14
 858 1018 858 1018 947 1103 c 128,-1,15
 1036 1188 1036 1188 1036 1302 c 0,16,17
 1036 1380 1036 1380 1020 1470 c 1,18,-1
 1262 1470 l 1,19,20
 1292 1400 1292 1400 1292 1288 c 0,21,22
 1292 1038 1292 1038 1064 930 c 1,23,24
 1200 858 1200 858 1274 739 c 128,-1,25
 1348 620 1348 620 1348 486 c 0,26,27
 1348 392 1348 392 1311 304 c 128,-1,28
 1274 216 1274 216 1201 138 c 128,-1,29
 1128 60 1128 60 1001 13 c 128,-1,30
 874 -34 874 -34 712 -34 c 256,31,32
 550 -34 550 -34 423 13 c 128,-1,33
 296 60 296 60 222 138 c 128,-1,34
 148 216 148 216 111 304 c 128,-1,35
 74 392 74 392 74 486 c 0,0,1
328 486 m 0,36,37
 328 344 328 344 435 259 c 128,-1,38
 542 174 542 174 712 174 c 0,39,40
 878 174 878 174 985 260 c 128,-1,41
 1092 346 1092 346 1092 486 c 256,42,43
 1092 626 1092 626 983 715 c 128,-1,44
 874 804 874 804 712 804 c 256,45,46
 550 804 550 804 439 717 c 128,-1,47
 328 630 328 630 328 486 c 0,36,37
EndSplineSet
EndChar

StartChar: uni0223
Encoding: 547 547 485
Width: 1116
GlyphClass: 2
Flags: W
LayerCount: 2
Fore
SplineSet
66 492 m 0,0,1
 66 650 66 650 132 768 c 128,-1,2
 198 886 198 886 308 938 c 1,3,4
 112 1042 112 1042 112 1300 c 0,5,6
 112 1404 112 1404 140 1486 c 1,7,-1
 372 1486 l 1,8,9
 352 1368 352 1368 352 1316 c 0,10,11
 352 1194 352 1194 399 1111 c 128,-1,12
 446 1028 446 1028 558 1028 c 0,13,14
 666 1028 666 1028 715 1111 c 128,-1,15
 764 1194 764 1194 764 1316 c 0,16,17
 764 1368 764 1368 744 1486 c 1,18,-1
 974 1486 l 1,19,20
 1002 1406 1002 1406 1002 1300 c 0,21,22
 1002 1036 1002 1036 808 938 c 1,23,24
 918 888 918 888 983 769 c 128,-1,25
 1048 650 1048 650 1048 492 c 0,26,27
 1048 416 1048 416 1032 344 c 128,-1,28
 1016 272 1016 272 979 202 c 128,-1,29
 942 132 942 132 887 81 c 128,-1,30
 832 30 832 30 748 -2 c 128,-1,31
 664 -34 664 -34 558 -34 c 0,32,33
 454 -34 454 -34 369 -2 c 128,-1,34
 284 30 284 30 228 81 c 128,-1,35
 172 132 172 132 135 201 c 128,-1,36
 98 270 98 270 82 342 c 128,-1,37
 66 414 66 414 66 492 c 0,0,1
308 492 m 0,38,39
 308 348 308 348 377 258 c 128,-1,40
 446 168 446 168 558 168 c 256,41,42
 670 168 670 168 739 257 c 128,-1,43
 808 346 808 346 808 492 c 0,44,45
 808 636 808 636 739 731 c 128,-1,46
 670 826 670 826 558 826 c 0,47,48
 448 826 448 826 378 733 c 128,-1,49
 308 640 308 640 308 492 c 0,38,39
EndSplineSet
EndChar

StartChar: uni0224
Encoding: 548 548 486
Width: 1206
GlyphClass: 2
Flags: W
LayerCount: 2
Fore
SplineSet
64 0 m 1,0,-1
 64 176 l 1,1,-1
 826 1260 l 1,2,-1
 124 1260 l 1,3,-1
 124 1470 l 1,4,-1
 1128 1470 l 1,5,-1
 1128 1288 l 1,6,-1
 366 208 l 1,7,-1
 906 208 l 2,8,9
 1252 208 1252 208 1252 -170 c 0,10,11
 1252 -304 1252 -304 1194 -438 c 1,12,-1
 972 -438 l 1,13,14
 1034 -312 1034 -312 1034 -202 c 0,15,16
 1034 -118 1034 -118 989 -59 c 128,-1,17
 944 0 944 0 844 0 c 2,18,-1
 64 0 l 1,0,-1
EndSplineSet
EndChar

StartChar: uni0225
Encoding: 549 549 487
Width: 962
GlyphClass: 2
Flags: W
LayerCount: 2
Fore
SplineSet
48 0 m 1,0,-1
 48 156 l 1,1,-1
 602 876 l 1,2,-1
 92 876 l 1,3,-1
 92 1074 l 1,4,-1
 908 1074 l 1,5,-1
 908 928 l 1,6,-1
 352 200 l 1,7,-1
 748 200 l 2,8,9
 1078 200 1078 200 1078 -166 c 0,10,11
 1078 -340 1078 -340 1036 -438 c 1,12,-1
 828 -438 l 1,13,14
 872 -352 872 -352 872 -206 c 0,15,16
 872 -104 872 -104 831 -52 c 128,-1,17
 790 0 790 0 692 0 c 2,18,-1
 48 0 l 1,0,-1
EndSplineSet
EndChar

StartChar: uni0234
Encoding: 564 564 502
Width: 824
GlyphClass: 2
Flags: W
LayerCount: 2
Fore
SplineSet
406 -164 m 1,0,1
 416 -210 416 -210 456 -243 c 128,-1,2
 496 -276 496 -276 550 -276 c 0,3,4
 598 -276 598 -276 625 -252 c 128,-1,5
 652 -228 652 -228 652 -194 c 0,6,7
 652 -154 652 -154 621 -127 c 128,-1,8
 590 -100 590 -100 544 -100 c 0,9,10
 464 -100 464 -100 406 -164 c 1,0,1
70 -376 m 1,11,12
 138 -222 138 -222 178 -164 c 1,13,14
 144 -82 144 -82 144 70 c 2,15,-1
 144 1518 l 1,16,-1
 380 1518 l 1,17,-1
 380 124 l 2,18,19
 380 54 380 54 382 20 c 1,20,21
 456 74 456 74 552 74 c 0,22,23
 684 74 684 74 765 -1 c 128,-1,24
 846 -76 846 -76 846 -186 c 0,25,26
 846 -304 846 -304 767 -375 c 128,-1,27
 688 -446 688 -446 554 -446 c 0,28,29
 406 -446 406 -446 310 -340 c 1,30,31
 278 -394 278 -394 262 -448 c 1,32,-1
 70 -376 l 1,11,12
EndSplineSet
EndChar

StartChar: uni0235
Encoding: 565 565 503
Width: 1452
GlyphClass: 2
Flags: W
LayerCount: 2
Fore
SplineSet
1032 -164 m 1,0,1
 1044 -212 1044 -212 1085 -244 c 128,-1,2
 1126 -276 1126 -276 1178 -276 c 0,3,4
 1224 -276 1224 -276 1251 -252 c 128,-1,5
 1278 -228 1278 -228 1278 -192 c 256,6,7
 1278 -156 1278 -156 1249 -128 c 128,-1,8
 1220 -100 1220 -100 1170 -100 c 0,9,10
 1090 -100 1090 -100 1032 -164 c 1,0,1
128 0 m 1,11,-1
 128 1072 l 1,12,-1
 354 1072 l 1,13,-1
 354 936 l 1,14,-1
 356 936 l 1,15,16
 386 998 386 998 462 1051 c 128,-1,17
 538 1104 538 1104 654 1104 c 0,18,19
 1004 1104 1004 1104 1004 690 c 2,20,-1
 1004 118 l 2,21,22
 1004 98 1004 98 1004 80 c 0,23,24
 1004 46 1004 46 1006 22 c 1,25,26
 1076 74 1076 74 1176 74 c 0,27,28
 1308 74 1308 74 1390 0 c 128,-1,29
 1472 -74 1472 -74 1472 -186 c 0,30,31
 1472 -304 1472 -304 1392 -375 c 128,-1,32
 1312 -446 1312 -446 1178 -446 c 0,33,34
 1036 -446 1036 -446 938 -338 c 1,35,36
 900 -414 900 -414 888 -448 c 1,37,-1
 696 -376 l 1,38,39
 736 -266 736 -266 804 -164 c 1,40,41
 770 -78 770 -78 770 74 c 2,42,-1
 770 660 l 2,43,44
 770 906 770 906 602 906 c 0,45,46
 502 906 502 906 433 823 c 128,-1,47
 364 740 364 740 364 620 c 2,48,-1
 364 0 l 1,49,-1
 128 0 l 1,11,-1
EndSplineSet
EndChar

StartChar: uni0236
Encoding: 566 566 504
Width: 888
GlyphClass: 2
Flags: W
LayerCount: 2
Fore
SplineSet
460 -164 m 1,0,1
 470 -206 470 -206 511 -241 c 128,-1,2
 552 -276 552 -276 606 -276 c 0,3,4
 656 -276 656 -276 682 -251 c 128,-1,5
 708 -226 708 -226 708 -194 c 0,6,7
 708 -160 708 -160 679 -130 c 128,-1,8
 650 -100 650 -100 600 -100 c 0,9,10
 518 -100 518 -100 460 -164 c 1,0,1
34 872 m 1,11,-1
 34 1072 l 1,12,-1
 198 1072 l 1,13,-1
 198 1390 l 1,14,-1
 434 1390 l 1,15,-1
 434 1072 l 1,16,-1
 678 1072 l 1,17,-1
 678 872 l 1,18,-1
 434 872 l 1,19,-1
 434 22 l 1,20,21
 506 74 506 74 606 74 c 0,22,23
 740 74 740 74 820 -1 c 128,-1,24
 900 -76 900 -76 900 -186 c 0,25,26
 900 -304 900 -304 821 -375 c 128,-1,27
 742 -446 742 -446 608 -446 c 0,28,29
 462 -446 462 -446 366 -340 c 1,30,31
 328 -414 328 -414 316 -448 c 1,32,-1
 126 -376 l 1,33,34
 194 -216 194 -216 232 -164 c 1,35,36
 198 -80 198 -80 198 76 c 2,37,-1
 198 872 l 1,38,-1
 34 872 l 1,11,-1
EndSplineSet
EndChar

StartChar: uni0237
Encoding: 567 567 505
Width: 542
GlyphClass: 2
Flags: W
LayerCount: 2
Fore
SplineSet
-24 -226 m 1,0,-1
 14 -226 l 2,1,2
 86 -226 86 -226 122 -177 c 128,-1,3
 158 -128 158 -128 158 -18 c 2,4,-1
 158 1072 l 1,5,-1
 396 1072 l 1,6,-1
 396 -28 l 2,7,8
 396 -224 396 -224 307 -326 c 128,-1,9
 218 -428 218 -428 52 -428 c 2,10,-1
 -24 -428 l 1,11,-1
 -24 -226 l 1,0,-1
EndSplineSet
EndChar

StartChar: uni0238
Encoding: 568 568 506
Width: 1822
GlyphClass: 2
Flags: W
LayerCount: 2
Fore
SplineSet
66 538 m 0,0,1
 66 804 66 804 197 954 c 128,-1,2
 328 1104 328 1104 522 1104 c 0,3,4
 616 1104 616 1104 687 1058 c 128,-1,5
 758 1012 758 1012 794 952 c 1,6,-1
 794 1518 l 1,7,-1
 1030 1518 l 1,8,-1
 1030 954 l 1,9,10
 1130 1104 1130 1104 1302 1104 c 0,11,12
 1502 1104 1502 1104 1629 954 c 128,-1,13
 1756 804 1756 804 1756 538 c 0,14,15
 1756 386 1756 386 1715 271 c 128,-1,16
 1674 156 1674 156 1605 92 c 128,-1,17
 1536 28 1536 28 1460 -3 c 128,-1,18
 1384 -34 1384 -34 1304 -34 c 0,19,20
 1204 -34 1204 -34 1132 17 c 128,-1,21
 1060 68 1060 68 1028 136 c 1,22,-1
 1028 0 l 1,23,-1
 796 0 l 1,24,-1
 796 138 l 1,25,26
 760 66 760 66 687 16 c 128,-1,27
 614 -34 614 -34 520 -34 c 0,28,29
 440 -34 440 -34 364 -3 c 128,-1,30
 288 28 288 28 219 91 c 128,-1,31
 150 154 150 154 108 269 c 128,-1,32
 66 384 66 384 66 538 c 0,0,1
308 538 m 0,33,34
 308 358 308 358 377 263 c 128,-1,35
 446 168 446 168 556 168 c 256,36,37
 666 168 666 168 732 266 c 128,-1,38
 798 364 798 364 798 524 c 2,39,-1
 798 536 l 2,40,41
 798 696 798 696 732 801 c 128,-1,42
 666 906 666 906 554 906 c 256,43,44
 442 906 442 906 375 809 c 128,-1,45
 308 712 308 712 308 538 c 0,33,34
1026 522 m 2,46,47
 1026 366 1026 366 1094 267 c 128,-1,48
 1162 168 1162 168 1270 168 c 256,49,50
 1378 168 1378 168 1446 263 c 128,-1,51
 1514 358 1514 358 1514 538 c 0,52,53
 1514 708 1514 708 1447 807 c 128,-1,54
 1380 906 1380 906 1270 906 c 0,55,56
 1158 906 1158 906 1092 801 c 128,-1,57
 1026 696 1026 696 1026 534 c 2,58,-1
 1026 522 l 2,46,47
EndSplineSet
EndChar

StartChar: uni0239
Encoding: 569 569 507
Width: 1824
GlyphClass: 2
Flags: W
LayerCount: 2
Fore
SplineSet
66 538 m 0,0,1
 66 800 66 800 194 952 c 128,-1,2
 322 1104 322 1104 522 1104 c 0,3,4
 700 1104 700 1104 796 944 c 1,5,-1
 796 1072 l 1,6,-1
 1030 1072 l 1,7,-1
 1030 946 l 1,8,9
 1120 1104 1120 1104 1306 1104 c 0,10,11
 1506 1104 1506 1104 1632 952 c 128,-1,12
 1758 800 1758 800 1758 538 c 0,13,14
 1758 390 1758 390 1718 276 c 128,-1,15
 1678 162 1678 162 1612 97 c 128,-1,16
 1546 32 1546 32 1469 -1 c 128,-1,17
 1392 -34 1392 -34 1306 -34 c 0,18,19
 1202 -34 1202 -34 1132 16 c 128,-1,20
 1062 66 1062 66 1030 134 c 1,21,-1
 1030 -438 l 1,22,-1
 794 -438 l 1,23,-1
 794 132 l 1,24,25
 756 66 756 66 685 16 c 128,-1,26
 614 -34 614 -34 520 -34 c 0,27,28
 434 -34 434 -34 357 -1 c 128,-1,29
 280 32 280 32 213 97 c 128,-1,30
 146 162 146 162 106 276 c 128,-1,31
 66 390 66 390 66 538 c 0,0,1
306 538 m 0,32,33
 306 362 306 362 374 265 c 128,-1,34
 442 168 442 168 552 168 c 0,35,36
 668 168 668 168 733 266 c 128,-1,37
 798 364 798 364 798 538 c 2,38,-1
 798 548 l 2,39,40
 798 706 798 706 731 806 c 128,-1,41
 664 906 664 906 552 906 c 0,42,43
 436 906 436 906 371 803 c 128,-1,44
 306 700 306 700 306 538 c 0,32,33
1026 538 m 2,45,46
 1026 368 1026 368 1095 268 c 128,-1,47
 1164 168 1164 168 1274 168 c 256,48,49
 1384 168 1384 168 1450 264 c 128,-1,50
 1516 360 1516 360 1516 538 c 0,51,52
 1516 704 1516 704 1453 805 c 128,-1,53
 1390 906 1390 906 1274 906 c 0,54,55
 1168 906 1168 906 1097 805 c 128,-1,56
 1026 704 1026 704 1026 550 c 2,57,-1
 1026 538 l 2,45,46
EndSplineSet
EndChar

StartChar: uni023A
Encoding: 570 570 508
Width: 1316
GlyphClass: 2
Flags: W
LayerCount: 2
Fore
SplineSet
438 562 m 1,0,-1
 494 562 l 1,1,-1
 748 960 l 1,2,3
 694 1130 694 1130 664 1234 c 1,4,-1
 652 1234 l 1,5,6
 604 1068 604 1068 564 942 c 2,7,-1
 438 562 l 1,0,-1
668 562 m 1,8,-1
 880 562 l 1,9,-1
 808 780 l 1,10,-1
 668 562 l 1,8,-1
-8 0 m 1,11,-1
 524 1470 l 1,12,-1
 794 1470 l 1,13,-1
 896 1188 l 1,14,-1
 1134 1562 l 1,15,-1
 1306 1562 l 1,16,-1
 958 1016 l 1,17,-1
 1324 0 l 1,18,-1
 1064 0 l 1,19,-1
 942 364 l 1,20,-1
 542 364 l 1,21,-1
 188 -190 l 1,22,-1
 14 -190 l 1,23,-1
 136 0 l 1,24,-1
 -8 0 l 1,11,-1
EndSplineSet
EndChar

StartChar: uni023B
Encoding: 571 571 509
Width: 1326
GlyphClass: 2
Flags: W
LayerCount: 2
Fore
SplineSet
78 736 m 0,0,1
 78 1082 78 1082 256 1293 c 128,-1,2
 434 1504 434 1504 730 1504 c 0,3,4
 832 1504 832 1504 928 1468 c 1,5,-1
 966 1578 l 1,6,-1
 1146 1578 l 1,7,-1
 1074 1382 l 1,8,9
 1190 1294 1190 1294 1248 1148 c 1,10,-1
 1038 1080 l 1,11,12
 1016 1120 1016 1120 986 1154 c 1,13,-1
 628 194 l 1,14,15
 672 176 672 176 728 176 c 0,16,17
 848 176 848 176 936 249 c 128,-1,18
 1024 322 1024 322 1064 420 c 1,19,-1
 1286 352 l 1,20,21
 1258 286 1258 286 1217 228 c 128,-1,22
 1176 170 1176 170 1110 106 c 128,-1,23
 1044 42 1044 42 946 4 c 128,-1,24
 848 -34 848 -34 730 -34 c 0,25,26
 630 -34 630 -34 552 -10 c 1,27,-1
 512 -116 l 1,28,-1
 334 -116 l 1,29,-1
 398 56 l 1,30,31
 246 152 246 152 162 326 c 128,-1,32
 78 500 78 500 78 736 c 0,0,1
482 280 m 1,33,-1
 854 1268 l 1,34,35
 792 1294 792 1294 728 1294 c 0,36,37
 540 1294 540 1294 435 1138 c 128,-1,38
 330 982 330 982 330 736 c 0,39,40
 330 434 330 434 482 280 c 1,33,-1
EndSplineSet
EndChar

StartChar: uni023C
Encoding: 572 572 510
Width: 1030
GlyphClass: 2
Flags: W
LayerCount: 2
Fore
SplineSet
66 538 m 0,0,1
 66 784 66 784 199 944 c 128,-1,2
 332 1104 332 1104 568 1104 c 0,3,4
 634 1104 634 1104 696 1084 c 1,5,-1
 740 1206 l 1,6,-1
 904 1206 l 1,7,-1
 830 1008 l 1,8,9
 876 976 876 976 916 914 c 128,-1,10
 956 852 956 852 970 788 c 1,11,-1
 782 734 l 1,12,13
 770 766 770 766 750 794 c 1,14,-1
 524 170 l 1,15,16
 538 168 538 168 564 168 c 0,17,18
 718 168 718 168 796 354 c 1,19,-1
 994 298 l 1,20,21
 962 178 962 178 848 72 c 128,-1,22
 734 -34 734 -34 562 -34 c 0,23,24
 500 -34 500 -34 450 -22 c 1,25,-1
 418 -116 l 1,26,-1
 252 -116 l 1,27,-1
 308 34 l 1,28,29
 188 106 188 106 127 243 c 128,-1,30
 66 380 66 380 66 538 c 0,0,1
394 262 m 1,31,-1
 622 892 l 1,32,33
 600 904 600 904 564 904 c 0,34,35
 442 904 442 904 375 800 c 128,-1,36
 308 696 308 696 308 538 c 0,37,38
 308 362 308 362 394 262 c 1,31,-1
EndSplineSet
EndChar

StartChar: uni023D
Encoding: 573 573 511
Width: 1094
GlyphClass: 2
Flags: W
LayerCount: 2
Fore
SplineSet
12 730 m 1,0,-1
 12 924 l 1,1,-1
 166 924 l 1,2,-1
 166 1470 l 1,3,-1
 410 1470 l 1,4,-1
 410 924 l 1,5,-1
 776 924 l 1,6,-1
 776 730 l 1,7,-1
 410 730 l 1,8,-1
 410 208 l 1,9,-1
 1076 208 l 1,10,-1
 1076 0 l 1,11,-1
 166 0 l 1,12,-1
 166 730 l 1,13,-1
 12 730 l 1,0,-1
EndSplineSet
EndChar

StartChar: uni023E
Encoding: 574 574 512
Width: 1130
GlyphClass: 2
Flags: W
LayerCount: 2
Fore
SplineSet
688 1260 m 1,0,-1
 688 1016 l 1,1,-1
 822 1260 l 1,2,-1
 688 1260 l 1,0,-1
20 1260 m 1,3,-1
 20 1470 l 1,4,-1
 938 1470 l 1,5,-1
 998 1578 l 1,6,-1
 1164 1578 l 1,7,-1
 1104 1470 l 1,8,-1
 1112 1470 l 1,9,-1
 1112 1260 l 1,10,-1
 988 1260 l 1,11,-1
 688 714 l 1,12,-1
 688 0 l 1,13,-1
 444 0 l 1,14,-1
 444 270 l 1,15,-1
 242 -96 l 1,16,-1
 76 -96 l 1,17,-1
 444 572 l 1,18,-1
 444 1260 l 1,19,-1
 20 1260 l 1,3,-1
EndSplineSet
EndChar

StartChar: uni023F
Encoding: 575 575 513
Width: 980
GlyphClass: 2
Flags: W
LayerCount: 2
Fore
SplineSet
48 224 m 1,0,-1
 216 322 l 1,1,2
 324 158 324 158 508 158 c 0,3,4
 590 158 590 158 643 192 c 128,-1,5
 696 226 696 226 696 284 c 0,6,7
 696 312 696 312 682 335 c 128,-1,8
 668 358 668 358 648 374 c 128,-1,9
 628 390 628 390 591 407 c 128,-1,10
 554 424 554 424 527 433 c 128,-1,11
 500 442 500 442 453 457 c 128,-1,12
 406 472 406 472 380 482 c 0,13,14
 244 530 244 530 168 598 c 128,-1,15
 92 666 92 666 92 790 c 0,16,17
 92 936 92 936 212 1020 c 128,-1,18
 332 1104 332 1104 502 1104 c 0,19,20
 644 1104 644 1104 757 1035 c 128,-1,21
 870 966 870 966 930 858 c 1,22,-1
 774 764 l 1,23,24
 660 914 660 914 500 914 c 0,25,26
 420 914 420 914 375 879 c 128,-1,27
 330 844 330 844 330 786 c 0,28,29
 330 678 330 678 538 622 c 0,30,31
 616 600 616 600 675 576 c 128,-1,32
 734 552 734 552 799 513 c 128,-1,33
 864 474 864 474 899 415 c 128,-1,34
 934 356 934 356 934 284 c 0,35,36
 934 146 934 146 821 56 c 128,-1,37
 708 -34 708 -34 506 -34 c 0,38,39
 406 -34 406 -34 328 -2 c 1,40,41
 372 -146 372 -146 398 -186 c 0,42,43
 456 -278 456 -278 578 -278 c 0,44,45
 654 -278 654 -278 698 -268 c 1,46,-1
 698 -434 l 1,47,48
 616 -446 616 -446 566 -446 c 0,49,50
 482 -446 482 -446 415 -418 c 128,-1,51
 348 -390 348 -390 307 -351 c 128,-1,52
 266 -312 266 -312 232 -249 c 128,-1,53
 198 -186 198 -186 184 -137 c 128,-1,54
 170 -88 170 -88 152 -18 c 0,55,56
 118 144 118 144 48 224 c 1,0,-1
EndSplineSet
EndChar

StartChar: uni0240
Encoding: 576 576 514
Width: 978
GlyphClass: 2
Flags: W
LayerCount: 2
Fore
SplineSet
48 0 m 1,0,-1
 48 156 l 1,1,-1
 602 872 l 1,2,-1
 92 872 l 1,3,-1
 92 1072 l 1,4,-1
 908 1072 l 1,5,-1
 908 926 l 1,6,-1
 316 154 l 1,7,8
 380 140 380 140 437 92 c 128,-1,9
 494 44 494 44 535 -11 c 128,-1,10
 576 -66 576 -66 616 -120 c 128,-1,11
 656 -174 656 -174 706 -210 c 128,-1,12
 756 -246 756 -246 812 -246 c 0,13,14
 880 -246 880 -246 934 -236 c 1,15,-1
 934 -432 l 1,16,17
 880 -446 880 -446 798 -446 c 0,18,19
 708 -446 708 -446 636 -402 c 128,-1,20
 564 -358 564 -358 512 -296 c 128,-1,21
 460 -234 460 -234 414 -170 c 128,-1,22
 368 -106 368 -106 308 -57 c 128,-1,23
 248 -8 248 -8 178 0 c 1,24,-1
 48 0 l 1,0,-1
EndSplineSet
EndChar

StartChar: uni0241
Encoding: 577 577 515
Width: 1170
GlyphClass: 2
Flags: W
LayerCount: 2
Fore
SplineSet
114 1142 m 1,0,1
 156 1300 156 1300 286 1402 c 128,-1,2
 416 1504 416 1504 596 1504 c 0,3,4
 792 1504 792 1504 918 1389 c 128,-1,5
 1044 1274 1044 1274 1044 1088 c 0,6,7
 1044 998 1044 998 1009 926 c 128,-1,8
 974 854 974 854 924 803 c 128,-1,9
 874 752 874 752 824 704 c 128,-1,10
 774 656 774 656 739 594 c 128,-1,11
 704 532 704 532 704 458 c 2,12,-1
 704 0 l 1,13,-1
 460 0 l 1,14,-1
 460 478 l 2,15,16
 460 564 460 564 495 638 c 128,-1,17
 530 712 530 712 578 762 c 128,-1,18
 626 812 626 812 674 859 c 128,-1,19
 722 906 722 906 757 967 c 128,-1,20
 792 1028 792 1028 792 1096 c 0,21,22
 792 1186 792 1186 737 1241 c 128,-1,23
 682 1296 682 1296 598 1296 c 0,24,25
 508 1296 508 1296 439 1238 c 128,-1,26
 370 1180 370 1180 334 1076 c 1,27,-1
 114 1142 l 1,0,1
EndSplineSet
EndChar

StartChar: uni0250
Encoding: 592 592 516
Width: 1094
GlyphClass: 2
Flags: W
LayerCount: 2
Fore
SplineSet
354 540 m 1,0,1
 462 566 462 566 558 582 c 0,2,3
 676 602 676 602 735 647 c 128,-1,4
 794 692 794 692 794 770 c 0,5,6
 794 828 794 828 746 868 c 128,-1,7
 698 908 698 908 620 908 c 0,8,9
 512 908 512 908 433 834 c 128,-1,10
 354 760 354 760 354 650 c 2,11,-1
 354 540 l 1,0,1
118 406 m 2,12,-1
 118 1072 l 1,13,-1
 346 1072 l 1,14,-1
 346 938 l 1,15,16
 376 1002 376 1002 459 1053 c 128,-1,17
 542 1104 542 1104 656 1104 c 0,18,19
 828 1104 828 1104 931 1018 c 128,-1,20
 1034 932 1034 932 1034 790 c 0,21,22
 1034 486 1034 486 564 418 c 0,23,24
 438 400 438 400 352 376 c 0,25,26
 352 368 352 368 353 344 c 128,-1,27
 354 320 354 320 354 312 c 0,28,29
 354 240 354 240 411 196 c 128,-1,30
 468 152 468 152 558 152 c 0,31,32
 734 152 734 152 862 298 c 1,33,-1
 1006 174 l 1,34,35
 922 74 922 74 805 20 c 128,-1,36
 688 -34 688 -34 560 -34 c 0,37,38
 326 -34 326 -34 222 81 c 128,-1,39
 118 196 118 196 118 406 c 2,12,-1
EndSplineSet
EndChar

StartChar: uni0251
Encoding: 593 593 517
Width: 1154
GlyphClass: 2
Flags: W
LayerCount: 2
Fore
SplineSet
308 538 m 0,0,1
 308 358 308 358 377 263 c 128,-1,2
 446 168 446 168 554 168 c 0,3,4
 646 168 646 168 719 259 c 128,-1,5
 792 350 792 350 792 538 c 0,6,7
 792 702 792 702 727 804 c 128,-1,8
 662 906 662 906 552 906 c 0,9,10
 440 906 440 906 374 807 c 128,-1,11
 308 708 308 708 308 538 c 0,0,1
66 538 m 0,12,13
 66 800 66 800 193 952 c 128,-1,14
 320 1104 320 1104 520 1104 c 0,15,16
 614 1104 614 1104 684 1057 c 128,-1,17
 754 1010 754 1010 788 954 c 1,18,-1
 788 1072 l 1,19,-1
 1022 1072 l 1,20,-1
 1022 0 l 1,21,-1
 794 0 l 1,22,-1
 794 140 l 1,23,24
 760 68 760 68 685 17 c 128,-1,25
 610 -34 610 -34 516 -34 c 0,26,27
 434 -34 434 -34 356 -1 c 128,-1,28
 278 32 278 32 212 97 c 128,-1,29
 146 162 146 162 106 275 c 128,-1,30
 66 388 66 388 66 538 c 0,12,13
EndSplineSet
EndChar

StartChar: uni0252
Encoding: 594 594 518
Width: 1154
GlyphClass: 2
Flags: W
LayerCount: 2
Fore
SplineSet
134 0 m 1,0,-1
 134 1072 l 1,1,-1
 366 1072 l 1,2,-1
 366 952 l 1,3,4
 468 1104 468 1104 640 1104 c 0,5,6
 838 1104 838 1104 964 952 c 128,-1,7
 1090 800 1090 800 1090 538 c 0,8,9
 1090 386 1090 386 1049 272 c 128,-1,10
 1008 158 1008 158 941 94 c 128,-1,11
 874 30 874 30 798 -2 c 128,-1,12
 722 -34 722 -34 642 -34 c 0,13,14
 542 -34 542 -34 469 18 c 128,-1,15
 396 70 396 70 364 138 c 1,16,-1
 364 0 l 1,17,-1
 134 0 l 1,0,-1
364 538 m 0,18,19
 364 366 364 366 431 267 c 128,-1,20
 498 168 498 168 604 168 c 0,21,22
 714 168 714 168 781 264 c 128,-1,23
 848 360 848 360 848 538 c 0,24,25
 848 708 848 708 782 807 c 128,-1,26
 716 906 716 906 604 906 c 0,27,28
 494 906 494 906 429 804 c 128,-1,29
 364 702 364 702 364 538 c 0,18,19
EndSplineSet
EndChar

StartChar: uni0253
Encoding: 595 595 519
Width: 1166
GlyphClass: 2
Flags: W
LayerCount: 2
Fore
SplineSet
368 538 m 0,0,1
 368 366 368 366 435 267 c 128,-1,2
 502 168 502 168 614 168 c 0,3,4
 724 168 724 168 791 264 c 128,-1,5
 858 360 858 360 858 538 c 0,6,7
 858 704 858 704 793 805 c 128,-1,8
 728 906 728 906 614 906 c 0,9,10
 502 906 502 906 435 805 c 128,-1,11
 368 704 368 704 368 538 c 0,0,1
138 0 m 1,12,-1
 138 1178 l 2,13,14
 138 1362 138 1362 240 1461 c 128,-1,15
 342 1560 342 1560 512 1560 c 0,16,17
 570 1560 570 1560 718 1542 c 1,18,-1
 714 1334 l 1,19,20
 590 1350 590 1350 552 1350 c 0,21,22
 468 1350 468 1350 419 1293 c 128,-1,23
 370 1236 370 1236 370 1136 c 2,24,-1
 370 952 l 1,25,26
 412 1018 412 1018 484 1061 c 128,-1,27
 556 1104 556 1104 646 1104 c 0,28,29
 848 1104 848 1104 974 951 c 128,-1,30
 1100 798 1100 798 1100 538 c 0,31,32
 1100 258 1100 258 966 112 c 128,-1,33
 832 -34 832 -34 648 -34 c 0,34,35
 546 -34 546 -34 475 18 c 128,-1,36
 404 70 404 70 366 138 c 1,37,-1
 366 0 l 1,38,-1
 138 0 l 1,12,-1
EndSplineSet
EndChar

StartChar: uni0254
Encoding: 596 596 520
Width: 1030
GlyphClass: 2
Flags: W
LayerCount: 2
Fore
SplineSet
38 298 m 1,0,-1
 236 354 l 1,1,2
 260 280 260 280 322 224 c 128,-1,3
 384 168 384 168 466 168 c 0,4,5
 578 168 578 168 650 264 c 128,-1,6
 722 360 722 360 722 536 c 0,7,8
 722 696 722 696 656 801 c 128,-1,9
 590 906 590 906 466 906 c 0,10,11
 392 906 392 906 338 854 c 128,-1,12
 284 802 284 802 262 732 c 1,13,-1
 64 788 l 1,14,15
 92 910 92 910 201 1007 c 128,-1,16
 310 1104 310 1104 470 1104 c 0,17,18
 692 1104 692 1104 828 950 c 128,-1,19
 964 796 964 796 964 536 c 256,20,21
 964 276 964 276 828 121 c 128,-1,22
 692 -34 692 -34 470 -34 c 0,23,24
 310 -34 310 -34 191 66 c 128,-1,25
 72 166 72 166 38 298 c 1,0,-1
EndSplineSet
EndChar

StartChar: uni0255
Encoding: 597 597 521
Width: 1034
GlyphClass: 2
Flags: W
LayerCount: 2
Fore
SplineSet
524 164 m 1,0,1
 580 134 580 134 644 134 c 0,2,3
 710 134 710 134 748 158 c 128,-1,4
 786 182 786 182 786 218 c 0,5,6
 786 250 786 250 760 268 c 128,-1,7
 734 286 734 286 694 286 c 0,8,9
 582 286 582 286 524 164 c 1,0,1
66 550 m 0,10,11
 66 784 66 784 198 944 c 128,-1,12
 330 1104 330 1104 564 1104 c 0,13,14
 728 1104 728 1104 833 1005 c 128,-1,15
 938 906 938 906 968 788 c 1,16,-1
 770 732 l 1,17,18
 748 802 748 802 696 854 c 128,-1,19
 644 906 644 906 564 906 c 0,20,21
 444 906 444 906 376 801 c 128,-1,22
 308 696 308 696 308 538 c 0,23,24
 308 376 308 376 382 274 c 1,25,26
 432 348 432 348 514 401 c 128,-1,27
 596 454 596 454 702 454 c 0,28,29
 826 454 826 454 904 389 c 128,-1,30
 982 324 982 324 982 220 c 0,31,32
 982 102 982 102 891 34 c 128,-1,33
 800 -34 800 -34 638 -34 c 0,34,35
 530 -34 530 -34 454 -14 c 1,36,37
 428 -88 428 -88 422 -128 c 1,38,-1
 220 -84 l 1,39,40
 232 -14 232 -14 268 66 c 1,41,42
 66 226 66 226 66 550 c 0,10,11
EndSplineSet
EndChar

StartChar: uni0256
Encoding: 598 598 522
Width: 1158
GlyphClass: 2
Flags: W
LayerCount: 2
Fore
SplineSet
66 538 m 0,0,1
 66 804 66 804 197 954 c 128,-1,2
 328 1104 328 1104 524 1104 c 0,3,4
 618 1104 618 1104 689 1059 c 128,-1,5
 760 1014 760 1014 796 954 c 1,6,-1
 796 1518 l 1,7,-1
 1030 1518 l 1,8,-1
 1030 -60 l 2,9,10
 1030 -238 1030 -238 1168 -238 c 0,11,12
 1218 -238 1218 -238 1316 -224 c 1,13,-1
 1316 -428 l 1,14,15
 1142 -446 1142 -446 1124 -446 c 0,16,17
 982 -446 982 -446 891 -361 c 128,-1,18
 800 -276 800 -276 800 -74 c 2,19,-1
 800 138 l 1,20,21
 764 66 764 66 690 16 c 128,-1,22
 616 -34 616 -34 522 -34 c 0,23,24
 438 -34 438 -34 360 -2 c 128,-1,25
 282 30 282 30 214 95 c 128,-1,26
 146 160 146 160 106 274 c 128,-1,27
 66 388 66 388 66 538 c 0,0,1
308 538 m 0,28,29
 308 364 308 364 374 266 c 128,-1,30
 440 168 440 168 556 168 c 0,31,32
 664 168 664 168 731 268 c 128,-1,33
 798 368 798 368 798 538 c 0,34,35
 798 702 798 702 733 804 c 128,-1,36
 668 906 668 906 556 906 c 256,37,38
 444 906 444 906 376 808 c 128,-1,39
 308 710 308 710 308 538 c 0,28,29
EndSplineSet
EndChar

StartChar: uni0257
Encoding: 599 599 523
Width: 1158
GlyphClass: 2
Flags: W
LayerCount: 2
Fore
SplineSet
66 538 m 0,0,1
 66 802 66 802 196 954 c 128,-1,2
 326 1106 326 1106 524 1106 c 0,3,4
 616 1106 616 1106 689 1059 c 128,-1,5
 762 1012 762 1012 796 952 c 1,6,-1
 796 1222 l 2,7,8
 796 1386 796 1386 896 1473 c 128,-1,9
 996 1560 996 1560 1154 1560 c 0,10,11
 1234 1560 1234 1560 1332 1550 c 1,12,-1
 1332 1342 l 1,13,14
 1282 1350 1282 1350 1196 1350 c 0,15,16
 1124 1350 1124 1350 1077 1303 c 128,-1,17
 1030 1256 1030 1256 1030 1174 c 2,18,-1
 1030 0 l 1,19,-1
 800 0 l 1,20,-1
 800 142 l 1,21,22
 768 70 768 70 692 18 c 128,-1,23
 616 -34 616 -34 522 -34 c 0,24,25
 436 -34 436 -34 358 -1 c 128,-1,26
 280 32 280 32 213 97 c 128,-1,27
 146 162 146 162 106 275 c 128,-1,28
 66 388 66 388 66 538 c 0,0,1
308 538 m 0,29,30
 308 358 308 358 375 263 c 128,-1,31
 442 168 442 168 556 168 c 0,32,33
 662 168 662 168 730 265 c 128,-1,34
 798 362 798 362 798 538 c 0,35,36
 798 702 798 702 732 804 c 128,-1,37
 666 906 666 906 556 906 c 0,38,39
 440 906 440 906 374 806 c 128,-1,40
 308 706 308 706 308 538 c 0,29,30
EndSplineSet
EndChar

StartChar: uni0258
Encoding: 600 600 524
Width: 1116
GlyphClass: 2
Flags: W
LayerCount: 2
Fore
SplineSet
68 456 m 1,0,1
 66 486 66 486 66 550 c 0,2,3
 66 800 66 800 205 953 c 128,-1,4
 344 1106 344 1106 552 1106 c 0,5,6
 768 1106 768 1106 909 953 c 128,-1,7
 1050 800 1050 800 1050 540 c 0,8,9
 1050 276 1050 276 907 121 c 128,-1,10
 764 -34 764 -34 540 -34 c 0,11,12
 366 -34 366 -34 250 45 c 128,-1,13
 134 124 134 124 82 244 c 1,14,-1
 278 312 l 1,15,16
 312 244 312 244 380 200 c 128,-1,17
 448 156 448 156 538 156 c 0,18,19
 664 156 664 156 737 242 c 128,-1,20
 810 328 810 328 810 456 c 1,21,-1
 68 456 l 1,0,1
304 620 m 1,22,-1
 808 620 l 1,23,24
 804 744 804 744 737 830 c 128,-1,25
 670 916 670 916 552 916 c 256,26,27
 434 916 434 916 369 830 c 128,-1,28
 304 744 304 744 304 620 c 1,22,-1
EndSplineSet
EndChar

StartChar: uni025A
Encoding: 602 602 526
Width: 1314
GlyphClass: 2
Flags: W
LayerCount: 2
Fore
SplineSet
66 458 m 1,0,-1
 774 768 l 1,1,2
 696 914 696 914 540 914 c 0,3,4
 366 914 366 914 276 758 c 1,5,-1
 80 826 l 1,6,7
 134 948 134 948 251 1026 c 128,-1,8
 368 1104 368 1104 544 1104 c 0,9,10
 690 1104 690 1104 799 1037 c 128,-1,11
 908 970 908 970 968 860 c 1,12,-1
 1128 936 l 1,13,14
 1150 866 1150 866 1195 822 c 128,-1,15
 1240 778 1240 778 1294 778 c 0,16,17
 1356 778 1356 778 1382 790 c 1,18,-1
 1382 604 l 1,19,20
 1328 588 1328 588 1274 588 c 0,21,22
 1208 588 1208 588 1156 617 c 128,-1,23
 1104 646 1104 646 1080 692 c 1,24,-1
 1036 670 l 1,25,26
 1048 600 1048 600 1048 534 c 0,27,28
 1048 284 1048 284 911 125 c 128,-1,29
 774 -34 774 -34 550 -34 c 0,30,31
 434 -34 434 -34 342 12 c 128,-1,32
 250 58 250 58 192 131 c 128,-1,33
 134 204 134 204 102 288 c 128,-1,34
 70 372 70 372 66 458 c 1,0,-1
316 360 m 1,35,36
 334 264 334 264 399 209 c 128,-1,37
 464 154 464 154 550 154 c 0,38,39
 650 154 650 154 715 224 c 128,-1,40
 780 294 780 294 794 408 c 1,41,42
 810 464 810 464 810 526 c 0,43,44
 810 548 810 548 808 572 c 1,45,-1
 316 360 l 1,35,36
EndSplineSet
EndChar

StartChar: uni025B
Encoding: 603 603 527
Width: 990
GlyphClass: 2
Flags: W
LayerCount: 2
Fore
SplineSet
66 308 m 0,0,1
 66 404 66 404 118 470 c 128,-1,2
 170 536 170 536 246 566 c 1,3,4
 106 646 106 646 106 796 c 0,5,6
 106 932 106 932 218 1018 c 128,-1,7
 330 1104 330 1104 514 1104 c 0,8,9
 794 1104 794 1104 932 848 c 1,10,-1
 742 770 l 1,11,12
 706 828 706 828 646 867 c 128,-1,13
 586 906 586 906 518 906 c 0,14,15
 434 906 434 906 390 872 c 128,-1,16
 346 838 346 838 346 778 c 0,17,18
 346 720 346 720 397 681 c 128,-1,19
 448 642 448 642 542 642 c 2,20,-1
 664 642 l 1,21,-1
 664 464 l 1,22,-1
 542 464 l 2,23,24
 422 464 422 464 365 420 c 128,-1,25
 308 376 308 376 308 310 c 0,26,27
 308 240 308 240 373 204 c 128,-1,28
 438 168 438 168 522 168 c 0,29,30
 600 168 600 168 669 206 c 128,-1,31
 738 244 738 244 774 298 c 1,32,-1
 956 216 l 1,33,34
 900 104 900 104 785 35 c 128,-1,35
 670 -34 670 -34 518 -34 c 0,36,37
 324 -34 324 -34 195 57 c 128,-1,38
 66 148 66 148 66 308 c 0,0,1
EndSplineSet
EndChar

StartChar: uni025C
Encoding: 604 604 528
Width: 990
GlyphClass: 2
Flags: W
LayerCount: 2
Fore
SplineSet
36 216 m 1,0,-1
 220 298 l 1,1,2
 254 244 254 244 323 206 c 128,-1,3
 392 168 392 168 470 168 c 0,4,5
 554 168 554 168 619 204 c 128,-1,6
 684 240 684 240 684 310 c 0,7,8
 684 376 684 376 627 420 c 128,-1,9
 570 464 570 464 450 464 c 2,10,-1
 328 464 l 1,11,-1
 328 642 l 1,12,-1
 450 642 l 2,13,14
 544 642 544 642 594 681 c 128,-1,15
 644 720 644 720 644 778 c 0,16,17
 644 838 644 838 601 872 c 128,-1,18
 558 906 558 906 474 906 c 0,19,20
 406 906 406 906 346 867 c 128,-1,21
 286 828 286 828 250 770 c 1,22,-1
 58 848 l 1,23,24
 196 1104 196 1104 478 1104 c 0,25,26
 662 1104 662 1104 774 1018 c 128,-1,27
 886 932 886 932 886 796 c 0,28,29
 886 648 886 648 746 566 c 1,30,-1
 748 566 l 1,31,32
 824 536 824 536 875 470 c 128,-1,33
 926 404 926 404 926 308 c 0,34,35
 926 148 926 148 798 57 c 128,-1,36
 670 -34 670 -34 474 -34 c 0,37,38
 324 -34 324 -34 208 36 c 128,-1,39
 92 106 92 106 36 216 c 1,0,-1
EndSplineSet
EndChar

StartChar: uni025D
Encoding: 605 605 529
Width: 1170
GlyphClass: 2
Flags: W
LayerCount: 2
Fore
SplineSet
36 216 m 1,0,-1
 220 298 l 1,1,2
 250 248 250 248 319 208 c 128,-1,3
 388 168 388 168 470 168 c 0,4,5
 566 168 566 168 625 209 c 128,-1,6
 684 250 684 250 684 314 c 0,7,8
 684 380 684 380 625 422 c 128,-1,9
 566 464 566 464 448 464 c 2,10,-1
 328 464 l 1,11,-1
 328 642 l 1,12,-1
 448 642 l 2,13,14
 544 642 544 642 594 681 c 128,-1,15
 644 720 644 720 644 778 c 0,16,17
 644 906 644 906 476 906 c 0,18,19
 336 906 336 906 250 770 c 1,20,-1
 58 848 l 1,21,22
 204 1104 204 1104 478 1104 c 0,23,24
 718 1104 718 1104 828 962 c 1,25,-1
 982 1052 l 1,26,27
 1004 982 1004 982 1053 933 c 128,-1,28
 1102 884 1102 884 1156 884 c 0,29,30
 1214 884 1214 884 1246 898 c 1,31,-1
 1246 710 l 1,32,33
 1192 694 1192 694 1138 694 c 0,34,35
 1072 694 1072 694 1015 725 c 128,-1,36
 958 756 958 756 934 800 c 1,37,-1
 882 774 l 1,38,39
 878 728 878 728 876 724 c 0,40,41
 852 622 852 622 748 568 c 1,42,-1
 748 566 l 1,43,44
 820 536 820 536 873 471 c 128,-1,45
 926 406 926 406 926 312 c 0,46,47
 926 150 926 150 799 58 c 128,-1,48
 672 -34 672 -34 470 -34 c 0,49,50
 320 -34 320 -34 204 37 c 128,-1,51
 88 108 88 108 36 216 c 1,0,-1
EndSplineSet
EndChar

StartChar: uni025E
Encoding: 606 606 530
Width: 1112
GlyphClass: 2
Flags: W
LayerCount: 2
Fore
SplineSet
308 538 m 0,0,1
 308 336 308 336 393 252 c 128,-1,2
 478 168 478 168 592 168 c 0,3,4
 802 168 802 168 802 310 c 0,5,6
 802 370 802 370 749 414 c 128,-1,7
 696 458 696 458 590 458 c 2,8,-1
 512 458 l 1,9,-1
 512 644 l 1,10,-1
 590 644 l 2,11,12
 674 644 674 644 719 683 c 128,-1,13
 764 722 764 722 764 776 c 0,14,15
 764 840 764 840 716 873 c 128,-1,16
 668 906 668 906 590 906 c 0,17,18
 478 906 478 906 393 817 c 128,-1,19
 308 728 308 728 308 538 c 0,0,1
66 538 m 0,20,21
 66 696 66 696 117 819 c 128,-1,22
 168 942 168 942 288 1023 c 128,-1,23
 408 1104 408 1104 590 1104 c 0,24,25
 760 1104 760 1104 883 1025 c 128,-1,26
 1006 946 1006 946 1006 796 c 0,27,28
 1006 716 1006 716 970 656 c 128,-1,29
 934 596 934 596 880 564 c 1,30,31
 1046 488 1046 488 1046 312 c 0,32,33
 1046 138 1046 138 915 52 c 128,-1,34
 784 -34 784 -34 590 -34 c 0,35,36
 328 -34 328 -34 197 123 c 128,-1,37
 66 280 66 280 66 538 c 0,20,21
EndSplineSet
EndChar

StartChar: uni025F
Encoding: 607 607 531
Width: 546
GlyphClass: 2
Flags: W
LayerCount: 2
Fore
SplineSet
-36 500 m 1,0,-1
 -36 694 l 1,1,-1
 162 694 l 1,2,-1
 162 1072 l 1,3,-1
 398 1072 l 1,4,-1
 398 694 l 1,5,-1
 582 694 l 1,6,-1
 582 500 l 1,7,-1
 398 500 l 1,8,-1
 398 -28 l 2,9,10
 398 -224 398 -224 309 -326 c 128,-1,11
 220 -428 220 -428 54 -428 c 2,12,-1
 -22 -428 l 1,13,-1
 -22 -226 l 1,14,-1
 14 -226 l 2,15,16
 162 -226 162 -226 162 -18 c 2,17,-1
 162 500 l 1,18,-1
 -36 500 l 1,0,-1
EndSplineSet
EndChar

StartChar: uni0260
Encoding: 608 608 532
Width: 1158
GlyphClass: 2
Flags: W
LayerCount: 2
Fore
SplineSet
72 558 m 0,0,1
 72 806 72 806 197 955 c 128,-1,2
 322 1104 322 1104 516 1104 c 0,3,4
 612 1104 612 1104 679 1057 c 128,-1,5
 746 1010 746 1010 778 948 c 1,6,-1
 778 1222 l 2,7,8
 778 1384 778 1384 881 1472 c 128,-1,9
 984 1560 984 1560 1142 1560 c 0,10,11
 1178 1560 1178 1560 1324 1550 c 1,12,-1
 1324 1344 l 1,13,14
 1248 1352 1248 1352 1186 1352 c 0,15,16
 1114 1352 1114 1352 1063 1304 c 128,-1,17
 1012 1256 1012 1256 1012 1176 c 2,18,-1
 1012 148 l 2,19,20
 1012 -136 1012 -136 902 -291 c 128,-1,21
 792 -446 792 -446 530 -446 c 0,22,23
 266 -446 266 -446 114 -238 c 1,24,-1
 268 -130 l 1,25,26
 378 -256 378 -256 534 -256 c 0,27,28
 650 -256 650 -256 712 -169 c 128,-1,29
 774 -82 774 -82 776 52 c 2,30,-1
 780 148 l 1,31,32
 746 88 746 88 675 49 c 128,-1,33
 604 10 604 10 524 10 c 0,34,35
 324 10 324 10 198 158 c 128,-1,36
 72 306 72 306 72 558 c 0,0,1
312 558 m 0,37,38
 312 386 312 386 379 298 c 128,-1,39
 446 210 446 210 546 210 c 0,40,41
 654 210 654 210 715 301 c 128,-1,42
 776 392 776 392 776 560 c 0,43,44
 776 718 776 718 715 812 c 128,-1,45
 654 906 654 906 548 906 c 0,46,47
 444 906 444 906 378 814 c 128,-1,48
 312 722 312 722 312 558 c 0,37,38
EndSplineSet
EndChar

StartChar: uni0262
Encoding: 610 610 534
Width: 1114
GlyphClass: 2
Flags: W
LayerCount: 2
Fore
SplineSet
66 532 m 0,0,1
 66 792 66 792 203 948 c 128,-1,2
 340 1104 340 1104 580 1104 c 0,3,4
 868 1104 868 1104 1000 830 c 1,5,-1
 804 748 l 1,6,7
 724 904 724 904 580 904 c 0,8,9
 454 904 454 904 381 805 c 128,-1,10
 308 706 308 706 308 532 c 0,11,12
 308 360 308 360 382 265 c 128,-1,13
 456 170 456 170 578 170 c 0,14,15
 670 170 670 170 729 224 c 128,-1,16
 788 278 788 278 800 372 c 1,17,-1
 800 428 l 1,18,-1
 544 428 l 1,19,-1
 544 608 l 1,20,-1
 1020 608 l 1,21,-1
 1020 0 l 1,22,-1
 844 0 l 1,23,-1
 836 94 l 1,24,25
 804 42 804 42 729 4 c 128,-1,26
 654 -34 654 -34 564 -34 c 0,27,28
 348 -34 348 -34 207 114 c 128,-1,29
 66 262 66 262 66 532 c 0,0,1
EndSplineSet
EndChar

StartChar: uni0263
Encoding: 611 611 535
Width: 1040
GlyphClass: 2
Flags: W
LayerCount: 2
Fore
SplineSet
16 1072 m 1,0,-1
 272 1072 l 1,1,-1
 498 308 l 1,2,-1
 516 234 l 1,3,-1
 520 234 l 1,4,-1
 544 306 l 1,5,-1
 770 1072 l 1,6,-1
 1026 1072 l 1,7,-1
 682 120 l 1,8,9
 822 -10 822 -10 822 -154 c 0,10,11
 822 -280 822 -280 738 -363 c 128,-1,12
 654 -446 654 -446 520 -446 c 0,13,14
 390 -446 390 -446 305 -366 c 128,-1,15
 220 -286 220 -286 220 -154 c 0,16,17
 220 -18 220 -18 358 118 c 1,18,-1
 16 1072 l 1,0,-1
416 -154 m 0,19,20
 416 -206 416 -206 445 -243 c 128,-1,21
 474 -280 474 -280 520 -280 c 0,22,23
 568 -280 568 -280 598 -242 c 128,-1,24
 628 -204 628 -204 628 -154 c 0,25,26
 628 -54 628 -54 520 38 c 1,27,28
 416 -44 416 -44 416 -154 c 0,19,20
EndSplineSet
Substitution2: "'sups' Superscript lookup 5 subtable" uni02E0
Substitution2: "'aalt' Access All Alternates lookup 0 subtable" uni02E0
EndChar

StartChar: uni0264
Encoding: 612 612 536
Width: 972
GlyphClass: 2
Flags: W
LayerCount: 2
Fore
SplineSet
486 628 m 1,0,1
 366 474 366 474 366 336 c 0,2,3
 366 264 366 264 400 216 c 128,-1,4
 434 168 434 168 490 168 c 256,5,6
 546 168 546 168 577 217 c 128,-1,7
 608 266 608 266 608 336 c 0,8,9
 608 480 608 480 486 628 c 1,0,1
32 888 m 1,10,-1
 32 1084 l 1,11,12
 110 1104 110 1104 170 1104 c 0,13,14
 266 1104 266 1104 338 1067 c 128,-1,15
 410 1030 410 1030 486 958 c 1,16,17
 630 1104 630 1104 806 1104 c 0,18,19
 874 1104 874 1104 944 1086 c 1,20,-1
 944 884 l 1,21,22
 882 904 882 904 810 904 c 0,23,24
 726 904 726 904 630 802 c 1,25,26
 738 668 738 668 787 567 c 128,-1,27
 836 466 836 466 836 332 c 0,28,29
 836 170 836 170 746 68 c 128,-1,30
 656 -34 656 -34 490 -34 c 0,31,32
 320 -34 320 -34 231 69 c 128,-1,33
 142 172 142 172 142 332 c 0,34,35
 142 466 142 466 196 573 c 128,-1,36
 250 680 250 680 348 802 c 1,37,38
 250 904 250 904 160 904 c 0,39,40
 144 904 144 904 32 888 c 1,10,-1
EndSplineSet
EndChar

StartChar: uni0265
Encoding: 613 613 537
Width: 1128
GlyphClass: 2
Flags: W
LayerCount: 2
Fore
SplineSet
118 382 m 2,0,-1
 118 1072 l 1,1,-1
 352 1072 l 1,2,-1
 352 408 l 2,3,4
 352 168 352 168 524 168 c 0,5,6
 620 168 620 168 688 255 c 128,-1,7
 756 342 756 342 756 458 c 2,8,-1
 756 1072 l 1,9,-1
 990 1072 l 1,10,-1
 990 -438 l 1,11,-1
 756 -438 l 1,12,-1
 756 108 l 1,13,-1
 754 108 l 1,14,15
 716 50 716 50 643 8 c 128,-1,16
 570 -34 570 -34 474 -34 c 0,17,18
 422 -34 422 -34 375 -23 c 128,-1,19
 328 -12 328 -12 279 17 c 128,-1,20
 230 46 230 46 196 92 c 128,-1,21
 162 138 162 138 140 212 c 128,-1,22
 118 286 118 286 118 382 c 2,0,-1
EndSplineSet
EndChar

StartChar: uni0266
Encoding: 614 614 538
Width: 1128
GlyphClass: 2
Flags: W
LayerCount: 2
Fore
SplineSet
140 0 m 1,0,-1
 140 1214 l 2,1,2
 140 1380 140 1380 243 1470 c 128,-1,3
 346 1560 346 1560 504 1560 c 0,4,5
 580 1560 580 1560 706 1548 c 1,6,-1
 706 1342 l 1,7,8
 646 1350 646 1350 546 1350 c 0,9,10
 468 1350 468 1350 421 1299 c 128,-1,11
 374 1248 374 1248 374 1170 c 2,12,-1
 374 962 l 1,13,-1
 376 962 l 1,14,15
 484 1104 484 1104 654 1104 c 0,16,17
 722 1104 722 1104 781 1085 c 128,-1,18
 840 1066 840 1066 895 1023 c 128,-1,19
 950 980 950 980 981 894 c 128,-1,20
 1012 808 1012 808 1012 690 c 2,21,-1
 1012 0 l 1,22,-1
 778 0 l 1,23,-1
 778 660 l 2,24,25
 778 906 778 906 612 906 c 0,26,27
 512 906 512 906 443 819 c 128,-1,28
 374 732 374 732 374 614 c 2,29,-1
 374 0 l 1,30,-1
 140 0 l 1,0,-1
EndSplineSet
Substitution2: "'sups' Superscript lookup 5 subtable" uni02B1
Substitution2: "'aalt' Access All Alternates lookup 0 subtable" uni02B1
EndChar

StartChar: uni0267
Encoding: 615 615 539
Width: 1134
GlyphClass: 2
Flags: W
LayerCount: 2
Fore
SplineSet
140 0 m 1,0,-1
 140 1214 l 2,1,2
 140 1380 140 1380 243 1470 c 128,-1,3
 346 1560 346 1560 504 1560 c 0,4,5
 580 1560 580 1560 706 1548 c 1,6,-1
 706 1342 l 1,7,8
 646 1350 646 1350 546 1350 c 0,9,10
 468 1350 468 1350 421 1298 c 128,-1,11
 374 1246 374 1246 374 1168 c 2,12,-1
 374 962 l 1,13,-1
 376 962 l 1,14,15
 484 1104 484 1104 654 1104 c 0,16,17
 720 1104 720 1104 777 1086 c 128,-1,18
 834 1068 834 1068 890 1026 c 128,-1,19
 946 984 946 984 979 897 c 128,-1,20
 1012 810 1012 810 1012 690 c 2,21,-1
 1012 -46 l 2,22,23
 1012 -250 1012 -250 924 -347 c 128,-1,24
 836 -444 836 -444 650 -444 c 0,25,26
 582 -444 582 -444 474 -434 c 1,27,-1
 474 -234 l 1,28,29
 542 -244 542 -244 604 -244 c 0,30,31
 696 -244 696 -244 737 -199 c 128,-1,32
 778 -154 778 -154 778 -34 c 2,33,-1
 778 660 l 2,34,35
 778 906 778 906 612 906 c 0,36,37
 512 906 512 906 443 817 c 128,-1,38
 374 728 374 728 374 614 c 2,39,-1
 374 0 l 1,40,-1
 140 0 l 1,0,-1
EndSplineSet
EndChar

StartChar: uni0268
Encoding: 616 616 540
Width: 536
GlyphClass: 2
Flags: W
LayerCount: 2
Fore
SplineSet
144 1232 m 1,0,-1
 144 1490 l 1,1,-1
 394 1490 l 1,2,-1
 394 1232 l 1,3,-1
 144 1232 l 1,0,-1
-8 494 m 1,4,-1
 -8 688 l 1,5,-1
 152 688 l 1,6,-1
 152 1072 l 1,7,-1
 386 1072 l 1,8,-1
 386 688 l 1,9,-1
 542 688 l 1,10,-1
 542 494 l 1,11,-1
 386 494 l 1,12,-1
 386 0 l 1,13,-1
 152 0 l 1,14,-1
 152 494 l 1,15,-1
 -8 494 l 1,4,-1
EndSplineSet
EndChar

StartChar: uni0269
Encoding: 617 617 541
Width: 670
GlyphClass: 2
Flags: W
LayerCount: 2
Fore
SplineSet
118 320 m 2,0,-1
 118 1072 l 1,1,-1
 354 1072 l 1,2,-1
 354 332 l 2,3,4
 354 174 354 174 490 174 c 0,5,6
 548 174 548 174 640 188 c 1,7,-1
 640 -16 l 1,8,9
 478 -34 478 -34 440 -34 c 0,10,11
 300 -34 300 -34 209 51 c 128,-1,12
 118 136 118 136 118 320 c 2,0,-1
EndSplineSet
EndChar

StartChar: uni026B
Encoding: 619 619 543
Width: 526
GlyphClass: 2
Flags: W
LayerCount: 2
Fore
SplineSet
-42 678 m 1,0,-1
 -42 880 l 1,1,2
 54 908 54 908 98 908 c 0,3,4
 104 908 104 908 123 907 c 128,-1,5
 142 906 142 906 146 906 c 1,6,-1
 146 1518 l 1,7,-1
 380 1518 l 1,8,-1
 380 862 l 1,9,10
 386 862 386 862 394 862 c 0,11,12
 426 862 426 862 472 868 c 0,13,14
 520 874 520 874 570 888 c 1,15,-1
 570 686 l 1,16,17
 522 672 522 672 476 668 c 0,18,19
 450 664 450 664 422 664 c 0,20,21
 402 664 402 664 380 666 c 1,22,-1
 380 0 l 1,23,-1
 146 0 l 1,24,-1
 146 704 l 1,25,26
 142 704 142 704 123 706 c 128,-1,27
 104 708 104 708 98 708 c 0,28,29
 68 708 68 708 46 704 c 128,-1,30
 24 700 24 700 -8 689 c 128,-1,31
 -40 678 -40 678 -42 678 c 1,0,-1
EndSplineSet
EndChar

